<svg width="193" height="228" viewBox="0 0 193 228" fill="none" xmlns="http://www.w3.org/2000/svg">
<g clip-path="url(#clip0_317_244)">
<mask id="mask0_317_244" style="mask-type:luminance" maskUnits="userSpaceOnUse" x="0" y="0" width="193" height="229">
<path d="M193 0H0V228.494H193V0Z" fill="white"/>
</mask>
<g mask="url(#mask0_317_244)">
<g filter="url(#filter0_d_317_244)">
<path d="M45.1816 60.5906C54.7246 60.5906 62.7126 61.4953 69.1456 63.3057C75.6861 65.1152 80.5651 68.0966 83.7816 72.2486C87.1056 76.4011 88.7676 81.9372 88.7676 88.8575C88.7676 93.329 87.9096 97.3215 86.1941 100.835C85.1436 103.061 83.7268 105.059 81.9437 106.83C80.9976 107.771 79.9483 108.646 78.7956 109.459C75.5791 111.695 71.6121 113.238 66.8941 114.09V114.889C71.7191 115.634 76.0616 117.018 79.9216 119.041C83.8886 121.064 86.9981 123.938 89.2501 127.665C91.5016 131.391 92.6276 136.235 92.6276 142.197C92.6276 149.118 91.0191 155.026 87.8026 159.924C86.7775 161.451 85.6103 162.865 84.3018 164.164C81.5051 166.943 78.0613 169.203 73.9706 170.944C68.0736 173.392 60.9971 174.617 52.7406 174.617H12.3716V60.5906H45.1816ZM48.0766 109.139C57.9411 109.139 64.6961 107.595 68.3416 104.508C71.9871 101.314 73.8101 96.6294 73.8101 90.4543C73.8101 84.1729 71.5581 79.7015 67.0551 77.0395C62.6586 74.2717 55.5821 72.8875 45.8251 72.8875H26.8466V109.139H48.0766ZM26.8466 121.117V162.479H50.0066C60.1926 162.479 67.2696 160.51 71.2366 156.57C75.2036 152.631 77.1876 147.468 77.1876 141.079C77.1876 137.034 76.2761 133.52 74.4531 130.539C72.7376 127.558 69.7891 125.269 65.6076 123.672C61.5331 121.969 55.9576 121.117 48.8806 121.117H26.8466Z" fill="white"/>
<path d="M80.4928 117.951C77.5596 116.415 74.3668 115.24 70.9204 114.422C74.1699 113.496 77.0368 112.181 79.5054 110.465L79.512 110.461C80.7178 109.611 81.821 108.69 82.8189 107.699C84.6993 105.831 86.1986 103.718 87.311 101.364C89.1168 97.6621 90.0046 93.4846 90.0046 88.8576C90.0046 81.7488 88.297 75.9191 84.7563 71.492C81.3354 67.0803 76.1994 63.9825 69.4804 62.1229C62.9022 60.2725 54.7927 59.3621 45.1817 59.3621H12.3717H11.1345V60.5907V174.617V175.845H12.3717H52.7407C61.1152 175.845 68.3627 174.604 74.4484 172.077L74.4585 172.073C78.6755 170.278 82.2561 167.935 85.1774 165.033C86.5429 163.676 87.7614 162.2 88.8317 160.606L88.8387 160.595C92.2092 155.464 93.8646 149.311 93.8646 142.197C93.8646 136.092 92.7132 131.008 90.3112 127.032C87.9395 123.108 84.6585 120.076 80.4928 117.951ZM66.3924 78.0771L66.4222 78.0951C70.4678 80.4868 72.5728 84.5008 72.5728 90.4544C72.5728 96.3777 70.8349 100.681 67.5307 103.58C64.247 106.355 57.8995 107.911 48.0767 107.911H28.0839V74.1162H45.8252C55.5217 74.1162 62.303 75.5021 66.3924 78.0771ZM73.3794 131.149L73.3957 131.177C75.0835 133.937 75.9503 137.222 75.9503 141.08C75.9503 147.193 74.0628 152.027 70.3616 155.702C66.7556 159.283 60.1081 161.251 50.0067 161.251H28.0839V122.346H48.8807C55.88 122.346 61.2691 123.191 65.1274 124.805L65.1453 124.812L65.1633 124.819C69.1589 126.345 71.8424 128.478 73.3794 131.149Z" stroke="black" stroke-opacity="0.1"/>
</g>
<path d="M101.278 54.8755C98.0616 50.723 93.1831 47.7421 86.6426 45.9321L69.1462 63.3056C75.6863 65.1151 80.5653 68.0965 83.7818 72.2485L101.278 54.8755Z" fill="white"/>
<path d="M86.9746 44.7488C86.5443 44.6297 86.0833 44.7501 85.7675 45.0638L68.2712 62.4364C67.9602 62.7453 67.8378 63.1948 67.9496 63.6175C68.0611 64.0398 68.3905 64.3716 68.8142 64.4885C75.1709 66.2479 79.7893 69.1098 82.8014 72.9972C83.0181 73.2776 83.3462 73.4516 83.7015 73.4744C84.0568 73.4973 84.4051 73.3672 84.6569 73.1172L102.153 55.7442C102.592 55.3078 102.638 54.6153 102.259 54.1267C98.8375 49.7102 93.6985 46.6097 86.9746 44.7488Z" stroke="black" stroke-opacity="0.1" stroke-linejoin="round"/>
<path d="M106.264 71.4844C106.264 64.5641 104.602 59.0275 101.278 54.8755L83.7817 72.2485C87.1057 76.401 88.7677 81.9371 88.7677 88.8574L106.264 71.4844Z" fill="white"/>
<path d="M102.246 54.1111C102.027 53.8373 101.7 53.669 101.349 53.6493C100.996 53.629 100.652 53.7596 100.403 54.0069L82.9065 71.38C82.4622 71.8216 82.4218 72.5242 82.8131 73.0133C85.9164 76.8898 87.5302 82.1293 87.5302 88.8576C87.5302 89.3546 87.8315 89.8023 88.2943 89.9926C88.7562 90.1824 89.2887 90.0774 89.6422 89.7259L107.139 72.3533C107.371 72.1226 107.501 71.8102 107.501 71.4846C107.501 64.3718 105.791 58.5395 102.246 54.1111Z" stroke="black" stroke-opacity="0.1" stroke-linejoin="round"/>
<path d="M86.6424 45.9321C80.209 44.1222 72.2205 43.2173 62.678 43.2173L45.1816 60.59C54.7246 60.59 62.7126 61.4952 69.1457 63.3051L86.6424 45.9321Z" fill="white"/>
<path d="M62.678 41.9888C62.3499 41.9888 62.0354 42.118 61.8033 42.3485L44.3066 59.7217C43.953 60.0728 43.8473 60.6014 44.039 61.0606C44.2302 61.5194 44.6816 61.8186 45.1816 61.8186C54.6549 61.8186 62.5209 62.7181 68.8088 64.4872C69.24 64.6084 69.7036 64.4885 70.0207 64.1738L87.5171 46.8008C87.8272 46.4928 87.95 46.0446 87.8395 45.6228C87.7289 45.2009 87.4017 44.8692 86.9797 44.7501C80.4006 42.8993 72.2907 41.9888 62.678 41.9888Z" stroke="black" stroke-opacity="0.1" stroke-linejoin="round"/>
<path d="M103.69 83.4619C105.406 79.9483 106.264 75.9558 106.264 71.4844L88.7676 88.857C88.7676 93.3289 87.9096 97.3214 86.1941 100.834L103.69 83.4619Z" fill="white"/>
<path d="M107.501 71.4844C107.501 70.9874 107.2 70.5392 106.737 70.349C106.275 70.1591 105.743 70.2641 105.389 70.6157L87.893 87.9887C87.661 88.219 87.5302 88.5314 87.5302 88.857C87.5302 93.1703 86.7039 96.9751 85.0809 100.299C84.8173 100.838 84.9848 101.488 85.477 101.835C85.9691 102.183 86.642 102.128 87.0692 101.704L104.565 84.3302C104.663 84.2335 104.744 84.121 104.804 83.9975C106.612 80.2946 107.501 76.1145 107.501 71.4844Z" stroke="black" stroke-opacity="0.1" stroke-linejoin="round"/>
<path d="M84.5515 59.6665C89.055 62.328 91.3065 66.7999 91.3065 73.0813L73.8102 90.4543C73.8102 84.173 71.5582 79.7015 67.0552 77.0395L84.5515 59.6665Z" fill="white"/>
<path d="M92.1811 73.95C92.4132 73.7197 92.5435 73.4073 92.5435 73.0813C92.5435 66.4716 90.145 61.5427 85.184 58.6105C84.6976 58.3232 84.0769 58.4001 83.6764 58.7977L66.1801 76.1708C65.9103 76.4388 65.7801 76.8154 65.8274 77.192C65.8748 77.5681 66.0941 77.9012 66.4222 78.095C70.4678 80.4867 72.5728 84.5007 72.5728 90.4543C72.5728 90.9513 72.8741 91.399 73.3369 91.5893C73.7988 91.7796 74.3313 91.6745 74.6848 91.323L92.1811 73.95Z" stroke="black" stroke-opacity="0.1" stroke-linejoin="round"/>
<path d="M63.3215 55.5144C73.0786 55.5144 80.1555 56.8981 84.5515 59.6664L67.0552 77.0394C62.6587 74.2716 55.5822 72.887 45.8252 72.887L63.3215 55.5144Z" fill="white"/>
<path d="M85.4262 60.5352C85.692 60.2716 85.8223 59.902 85.7811 59.5316C85.7398 59.1607 85.531 58.8285 85.2139 58.629C80.5113 55.6678 73.1391 54.2859 63.3216 54.2859C62.9935 54.2859 62.6785 54.4151 62.4465 54.6453L44.9506 72.0188C44.5966 72.3699 44.4905 72.8985 44.6822 73.3577C44.8738 73.8164 45.3248 74.1157 45.8252 74.1157C55.5217 74.1157 62.3031 75.502 66.3925 78.077C66.8815 78.385 67.5206 78.3147 67.9299 77.9082L85.4262 60.5352Z" stroke="black" stroke-opacity="0.1" stroke-linejoin="round"/>
<path d="M99.4402 89.4573C101.223 87.686 102.64 85.6875 103.691 83.4619L86.1942 100.835C85.1437 103.061 83.7269 105.059 81.9438 106.83L99.4402 89.4573Z" fill="white"/>
<path d="M81.0702 105.961C82.7532 104.288 84.0858 102.407 85.074 100.313C85.135 100.184 85.2179 100.067 85.3192 99.9664L102.816 82.5933C103.241 82.1715 103.91 82.1135 104.401 82.4562C104.893 82.799 105.066 83.4431 104.811 83.9832C103.698 86.3402 102.198 88.456 100.315 90.3261L82.819 107.699C82.3356 108.179 81.5527 108.179 81.0693 107.699C80.5863 107.22 80.5872 106.44 81.0702 105.961ZM81.0702 105.961C81.0697 105.961 81.0706 105.96 81.0702 105.961Z" stroke="black" stroke-opacity="0.1" stroke-linejoin="round"/>
<path d="M91.3066 73.0813C91.3066 79.2564 89.4836 83.9409 85.8381 87.135L69.6621 103.197C69.2524 103.659 68.812 104.096 68.3418 104.508L69.6621 103.197C72.4277 100.081 73.8103 95.8327 73.8103 90.4548L91.3066 73.0813Z" fill="white"/>
<path d="M72.5727 90.4547C72.5727 95.6068 71.256 99.5259 68.7588 102.357L67.4666 103.639C66.9946 104.109 66.9823 104.866 67.4398 105.349C67.8973 105.833 68.6592 105.868 69.1602 105.429C69.6589 104.992 70.1269 104.529 70.5638 104.039L86.6859 88.0305C90.6481 84.542 92.5434 79.4879 92.5434 73.0812C92.5434 72.5847 92.2421 72.1365 91.7798 71.9467C91.3174 71.7564 90.7854 71.8614 90.4314 72.2125L72.9355 89.5856C72.703 89.8163 72.5727 90.1287 72.5727 90.4547Z" stroke="black" stroke-opacity="0.1" stroke-linejoin="round"/>
<path d="M96.2924 92.0854C97.4408 91.276 98.4874 90.4029 99.4309 89.4666L81.9437 106.83C80.9976 107.771 79.9484 108.646 78.7957 109.459L96.2924 92.0854Z" fill="white"/>
<path d="M100.306 90.3353L82.8189 107.699C81.821 108.69 80.7178 109.61 79.512 110.461C78.9878 110.83 78.2658 110.739 77.8509 110.252C77.4359 109.763 77.4666 109.041 77.921 108.59L95.4174 91.2172C95.4665 91.1684 95.5196 91.124 95.5762 91.084C96.6719 90.312 97.6645 89.4828 98.5563 88.5974L98.565 88.589C99.0488 88.118 99.8257 88.1211 100.306 88.5983C100.786 89.0746 100.789 89.8453 100.316 90.3256L100.306 90.3353ZM100.306 90.3353C100.306 90.3348 100.305 90.3357 100.306 90.3353Z" stroke="black" stroke-opacity="0.1" stroke-linejoin="round"/>
<path d="M62.6785 43.2173H29.8682L12.3718 60.59H45.1817L62.6785 43.2173Z" fill="white"/>
<path d="M29.8682 41.9888C29.5401 41.9888 29.2253 42.118 28.9932 42.3485L11.4969 59.7217C11.1431 60.0728 11.0372 60.6014 11.2287 61.0606C11.4202 61.5194 11.8713 61.8186 12.3717 61.8186H45.1817C45.5098 61.8186 45.8247 61.6894 46.0568 61.4592L63.5527 44.0857C63.9066 43.7344 64.0128 43.2062 63.8211 42.747C63.6294 42.2881 63.1785 41.9888 62.678 41.9888H29.8682Z" stroke="black" stroke-opacity="0.1" stroke-linejoin="round"/>
<path d="M44.343 55.5144H63.3214L45.8251 72.887H26.8467L44.343 55.5144Z" fill="white"/>
<path d="M64.1962 56.3828C64.5501 56.0317 64.6558 55.5031 64.4646 55.0439C64.2729 54.5851 63.822 54.2859 63.3215 54.2859H44.343C44.0149 54.2859 43.7004 54.4151 43.4683 54.6453L25.9719 72.0188C25.618 72.3699 25.5124 72.8985 25.7039 73.3577C25.8952 73.8164 26.3465 74.1157 26.8468 74.1157H45.8252C46.1533 74.1157 46.4678 73.9865 46.7003 73.7558L64.1962 56.3828Z" stroke="black" stroke-opacity="0.1" stroke-linejoin="round"/>
<path d="M106.746 110.292C104.495 106.565 101.385 103.69 97.4179 101.668L79.9216 119.041C83.8887 121.064 86.9986 123.938 89.2501 127.665L106.746 110.292Z" fill="white"/>
<path d="M97.9834 100.575C97.5052 100.331 96.9232 100.422 96.5433 100.799L79.0465 118.172C78.7676 118.45 78.6382 118.843 78.6991 119.231C78.7606 119.619 79.0049 119.954 79.3567 120.134C83.1224 122.054 86.0586 124.771 88.189 128.296C88.3851 128.621 88.7207 128.838 89.0988 128.884C89.4769 128.93 89.8554 128.801 90.1247 128.533L107.621 111.16C108.023 110.762 108.1 110.143 107.807 109.66C105.434 105.733 102.152 102.7 97.9834 100.575Z" stroke="black" stroke-opacity="0.1" stroke-linejoin="round"/>
<path d="M84.3906 96.7173C89.1086 95.8653 93.0756 94.3217 96.2926 92.0859L78.7962 109.459C75.5793 111.695 71.6123 113.238 66.8943 114.09L84.3906 96.7173Z" fill="white"/>
<path d="M97.1671 92.9542C97.6207 92.5038 97.6522 91.784 97.2399 91.2963C96.8276 90.8081 96.1082 90.7141 95.5827 91.0792C92.5408 93.1937 88.7497 94.6815 84.169 95.5081C83.9216 95.5529 83.6935 95.6715 83.5159 95.8482L66.0195 113.222C65.6366 113.601 65.5471 114.184 65.7985 114.66C66.0494 115.136 66.5832 115.395 67.1153 115.299C71.971 114.422 76.1139 112.823 79.5054 110.465C79.5642 110.424 79.6199 110.378 79.6708 110.328L97.1671 92.9542Z" stroke="black" stroke-opacity="0.1" stroke-linejoin="round"/>
<path d="M97.4181 101.668C93.5581 99.645 89.2156 98.2604 84.3906 97.5156L66.8943 114.889C71.7193 115.634 76.0618 117.018 79.9218 119.041L97.4181 101.668Z" fill="white"/>
<path d="M84.5809 96.3015C84.191 96.2413 83.7949 96.3696 83.5159 96.6464L66.0196 114.02C65.6901 114.347 65.5739 114.83 65.7182 115.27C65.8625 115.709 66.2437 116.031 66.7043 116.102C71.41 116.829 75.6187 118.174 79.3445 120.127C79.8239 120.379 80.413 120.29 80.7968 119.909L98.2931 102.536C98.5708 102.26 98.7002 101.87 98.6414 101.484C98.583 101.098 98.3431 100.763 97.9957 100.581C94.0011 98.488 89.5252 97.0651 84.5809 96.3015Z" stroke="black" stroke-opacity="0.1" stroke-linejoin="round"/>
<path d="M110.124 124.824C110.124 118.862 108.998 114.018 106.747 110.292L89.2502 127.665C91.5018 131.391 92.6277 136.235 92.6277 142.197L110.124 124.824Z" fill="white"/>
<path d="M107.807 109.66C107.611 109.335 107.276 109.118 106.898 109.072C106.52 109.026 106.141 109.155 105.871 109.423L88.3754 126.796C87.9737 127.194 87.8969 127.813 88.189 128.296C90.2901 131.774 91.3902 136.379 91.3902 142.197C91.3902 142.694 91.6915 143.142 92.1543 143.332C92.6162 143.523 93.1487 143.417 93.5022 143.066L110.999 125.693C111.231 125.463 111.361 125.15 111.361 124.824C111.361 118.719 110.209 113.635 107.807 109.66Z" stroke="black" stroke-opacity="0.1" stroke-linejoin="round"/>
<path d="M84.3906 97.5152V96.7168L66.8943 114.09V114.889L84.3906 97.5152Z" fill="white"/>
<path d="M85.6279 96.7167C85.6279 96.2202 85.3266 95.772 84.8642 95.5822C84.4019 95.3919 83.8698 95.4969 83.5159 95.848L66.0195 113.222C65.7875 113.452 65.6572 113.764 65.6572 114.09V114.889C65.6572 115.385 65.9586 115.833 66.4209 116.023C66.8832 116.213 67.4153 116.108 67.7693 115.757L85.2656 98.3839C85.4976 98.1536 85.6279 97.8412 85.6279 97.5152V96.7167Z" stroke="black" stroke-opacity="0.1" stroke-linejoin="round"/>
<path d="M85.838 87.135C82.1925 90.2223 75.4375 91.7664 65.573 91.7664L48.0767 109.139C57.9412 109.139 64.6962 107.595 68.3417 104.508L85.838 87.135Z" fill="white"/>
<path d="M65.573 90.5378C65.2449 90.5378 64.9303 90.667 64.6983 90.8977L47.202 108.271C46.848 108.622 46.7423 109.15 46.934 109.61C47.1252 110.068 47.5766 110.368 48.0766 110.368C57.9745 110.368 65.1348 108.838 69.1448 105.443C69.1693 105.422 69.1935 105.4 69.2167 105.377L86.713 88.0037C87.1824 87.5371 87.1977 86.7857 86.7468 86.3014C86.2963 85.8168 85.5406 85.772 85.0352 86.1999C81.7538 88.9792 75.4041 90.5378 65.573 90.5378Z" stroke="black" stroke-opacity="0.1" stroke-linejoin="round"/>
<path d="M83.104 106.299C87.2855 107.896 90.234 110.185 91.95 113.166L74.4536 130.539C72.7381 127.558 69.7892 125.269 65.6077 123.672L83.104 106.299Z" fill="white"/>
<path d="M92.8247 114.035C93.2195 113.643 93.3011 113.037 93.0243 112.556C91.1298 109.265 87.9164 106.821 83.5484 105.152C83.0918 104.978 82.5747 105.087 82.229 105.43L64.7327 122.803C64.4366 123.097 64.3107 123.52 64.3976 123.927C64.4844 124.334 64.7726 124.669 65.1634 124.819C69.159 126.345 71.8425 128.478 73.3795 131.149C73.5708 131.481 73.9072 131.706 74.2893 131.757C74.6713 131.807 75.056 131.679 75.3284 131.408L92.8247 114.035Z" stroke="black" stroke-opacity="0.1" stroke-linejoin="round"/>
<path d="M91.9499 113.166C93.7724 116.147 94.6839 119.66 94.6839 123.706L77.1876 141.079C77.1876 137.034 76.2761 133.52 74.4531 130.539L91.9499 113.166Z" fill="white"/>
<path d="M95.5585 124.575C95.7906 124.344 95.9213 124.032 95.9213 123.706C95.9213 119.472 94.9651 115.731 93.0074 112.529C92.81 112.206 92.4749 111.991 92.0977 111.946C91.7205 111.901 91.3437 112.031 91.0748 112.297L73.5785 129.67C73.1754 130.071 73.0999 130.693 73.3956 131.177C75.0834 133.937 75.9502 137.222 75.9502 141.079C75.9502 141.576 76.2515 142.024 76.7143 142.214C77.1762 142.405 77.7087 142.299 78.0622 141.948L95.5585 124.575Z" stroke="black" stroke-opacity="0.1" stroke-linejoin="round"/>
<path d="M105.299 142.551C108.516 137.654 110.124 131.745 110.124 124.824L92.6277 142.197C92.6277 149.118 91.0193 155.026 87.8027 159.924L105.299 142.551Z" fill="white"/>
<path d="M111.361 124.824C111.361 124.327 111.059 123.879 110.597 123.689C110.135 123.499 109.603 123.604 109.249 123.955L91.7525 141.328C91.5204 141.559 91.3902 141.872 91.3902 142.197C91.3902 148.924 89.829 154.589 86.766 159.253C86.42 159.78 86.5309 160.482 87.0231 160.878C87.5148 161.274 88.2293 161.237 88.6772 160.793L106.174 143.42C106.234 143.359 106.288 143.293 106.335 143.222C109.705 138.09 111.361 131.938 111.361 124.824Z" stroke="black" stroke-opacity="0.1" stroke-linejoin="round"/>
<path d="M44.343 91.7663V55.5144L26.8467 72.887V109.139L44.343 91.7663Z" fill="white"/>
<path d="M45.5804 55.5144C45.5804 55.0174 45.2786 54.5692 44.8168 54.379C44.3544 54.1892 43.8222 54.2942 43.4683 54.6457L25.9718 72.0187C25.74 72.249 25.6096 72.5614 25.6096 72.887V109.139C25.6096 109.636 25.911 110.084 26.3735 110.274C26.8357 110.465 27.3679 110.359 27.7217 110.008L45.2181 92.6346C45.4501 92.4044 45.5804 92.092 45.5804 91.7664V55.5144Z" stroke="black" stroke-opacity="0.1" stroke-linejoin="round"/>
<path d="M66.3774 103.744C73.454 103.744 79.0295 104.595 83.1039 106.299L65.6076 123.672C61.5331 121.969 55.9576 121.117 48.8811 121.117L66.3774 103.744Z" fill="white"/>
<path d="M83.9787 107.167C84.27 106.878 84.3972 106.464 84.3178 106.063C84.2389 105.662 83.9638 105.326 83.584 105.167C79.2937 103.373 73.5317 102.515 66.3776 102.515C66.0495 102.515 65.7345 102.645 65.5025 102.875L48.0062 120.248C47.6522 120.6 47.5465 121.128 47.7382 121.587C47.9294 122.046 48.3808 122.345 48.8808 122.345C55.8801 122.345 61.2692 123.191 65.1275 124.805C65.5911 124.998 66.1267 124.894 66.4824 124.541L83.9787 107.167Z" stroke="black" stroke-opacity="0.1" stroke-linejoin="round"/>
<path d="M65.573 91.7664H44.343L26.8467 109.139H48.0766L65.573 91.7664Z" fill="white"/>
<path d="M44.343 90.5378C44.0149 90.5378 43.7004 90.6675 43.4683 90.8977L25.9719 108.271C25.618 108.622 25.5124 109.15 25.7039 109.61C25.8952 110.068 26.3465 110.368 26.8468 110.368H48.0767C48.4048 110.368 48.7197 110.238 48.9518 110.008L66.4481 92.6347C66.8017 92.2836 66.9078 91.7555 66.7161 91.2963C66.5244 90.8371 66.0735 90.5378 65.573 90.5378H44.343Z" stroke="black" stroke-opacity="0.1" stroke-linejoin="round"/>
<path d="M94.6839 123.706C94.6839 130.094 92.7004 135.258 88.7329 139.197L71.2366 156.57C75.2036 152.631 77.1876 147.467 77.1876 141.079L94.6839 123.706Z" fill="white"/>
<path d="M95.9214 123.706C95.9214 123.209 95.6196 122.761 95.1573 122.571C94.695 122.381 94.1629 122.486 93.8089 122.838L76.3126 140.211C76.081 140.441 75.9503 140.753 75.9503 141.079C75.9503 147.191 74.0646 152.023 70.3673 155.697L70.362 155.702C69.8787 156.182 69.8787 156.959 70.362 157.439C70.845 157.919 71.6284 157.919 72.1118 157.439L89.6081 140.066C93.8418 135.862 95.9214 130.368 95.9214 123.706Z" stroke="black" stroke-opacity="0.1" stroke-linejoin="round"/>
<path d="M101.799 146.791C103.107 145.492 104.274 144.078 105.299 142.551L87.8028 159.924C86.7777 161.451 85.6105 162.865 84.302 164.164L101.799 146.791Z" fill="white"/>
<path d="M106.083 141.601C106.576 142.001 106.681 142.707 106.329 143.232C105.258 144.827 104.039 146.303 102.673 147.66L85.1775 165.033C84.6942 165.512 83.9108 165.513 83.4274 165.033C82.9445 164.554 82.9445 163.776 83.4274 163.296M106.083 141.601L104.27 141.869C103.29 143.329 102.175 144.68 100.924 145.923M106.083 141.601C105.592 141.201 104.874 141.236 104.424 141.682L86.9282 159.055C86.8703 159.113 86.8185 159.175 86.7733 159.242C85.7938 160.701 84.6775 162.054 83.4274 163.296M106.083 141.601L83.4274 163.296M83.4274 163.296C83.4274 163.296 83.427 163.296 83.4274 163.296ZM83.4274 163.296L87.215 159.535L87.3128 159.438L100.924 145.923M100.924 145.923C100.924 145.923 100.924 145.923 100.924 145.923Z" stroke="black" stroke-opacity="0.1" stroke-linejoin="round"/>
<path d="M44.343 103.744H66.3774L48.8807 121.117H26.8467L44.343 103.744Z" fill="white"/>
<path d="M67.2521 104.612C67.6061 104.261 67.7118 103.733 67.5201 103.274C67.3289 102.815 66.8775 102.515 66.3775 102.515H44.343C44.0149 102.515 43.7004 102.645 43.4683 102.875L25.9719 120.248C25.618 120.6 25.5124 121.128 25.7039 121.587C25.8952 122.046 26.3465 122.345 26.8468 122.345H48.8812C49.2093 122.345 49.5238 122.216 49.7558 121.986L67.2521 104.612Z" stroke="black" stroke-opacity="0.1" stroke-linejoin="round"/>
<path d="M91.4675 153.57C95.5525 151.832 98.9932 149.575 101.788 146.802L84.3019 164.164C81.5052 166.943 78.0614 169.203 73.9707 170.944L91.4675 153.57Z" fill="white"/>
<path d="M100.913 145.933L100.923 145.923C101.408 145.453 102.183 145.457 102.663 145.933C103.142 146.409 103.146 147.179 102.674 147.66L102.663 147.671M100.913 145.933C100.913 145.933 100.914 145.932 100.913 145.933ZM100.913 145.933C98.2434 148.582 94.9379 150.757 90.9801 152.441C90.8353 152.503 90.7037 152.591 90.5923 152.701L73.096 170.074C72.6766 170.491 72.6139 171.144 72.9464 171.632C73.2789 172.12 73.9132 172.304 74.4584 172.072C78.6754 170.278 82.2556 167.935 85.1769 165.033L102.663 147.671M102.663 147.671C102.663 147.67 102.662 147.671 102.663 147.671Z" stroke="black" stroke-opacity="0.1" stroke-linejoin="round"/>
<path d="M88.7329 139.198C84.7659 143.137 77.6889 145.106 67.5029 145.106L50.0066 162.479C60.193 162.479 67.2696 160.51 71.2366 156.571L88.7329 139.198Z" fill="white"/>
<path d="M89.6073 140.067L72.1119 157.439C67.7839 161.737 60.2779 163.708 50.0068 163.708C49.5068 163.708 49.0554 163.409 48.8642 162.949C48.6725 162.49 48.7782 161.962 49.1322 161.61L66.6285 144.237C66.8605 144.007 67.175 143.878 67.5031 143.878C77.6045 143.878 84.252 141.909 87.8585 138.329C88.3414 137.849 89.1248 137.849 89.6082 138.329C90.0911 138.808 90.0907 139.587 89.6073 140.067Z" stroke="black" stroke-opacity="0.1" stroke-linejoin="round"/>
<path d="M29.8682 43.2173V157.243L12.3718 174.616V60.59L29.8682 43.2173Z" fill="white"/>
<path d="M30.7428 158.112C30.9749 157.882 31.1053 157.569 31.1053 157.244V43.2174C31.1053 42.7204 30.8037 42.2725 30.3415 42.0823C29.8793 41.8922 29.3471 41.9973 28.9932 42.3486L11.4969 59.7218C11.2649 59.9521 11.1345 60.2645 11.1345 60.5906V174.616C11.1345 175.113 11.436 175.561 11.8983 175.752C12.3606 175.941 12.8927 175.836 13.2465 175.485L30.7428 158.112Z" stroke="black" stroke-opacity="0.1" stroke-linejoin="round"/>
<path d="M70.2375 157.243C78.4931 157.243 85.57 156.019 91.4675 153.57L73.9707 170.944C68.0737 173.392 60.9972 174.617 52.7407 174.617L70.2375 157.243Z" fill="white"/>
<path d="M92.3422 154.439C92.7598 154.024 92.8243 153.373 92.4949 152.886C92.1655 152.399 91.5351 152.211 90.9899 152.437C85.2811 154.808 78.3752 156.015 70.2376 156.015C69.9095 156.015 69.5946 156.144 69.3625 156.375L51.8662 173.748C51.5127 174.099 51.4065 174.628 51.5982 175.086C51.7894 175.546 52.2408 175.845 52.7408 175.845C61.1153 175.845 68.3629 174.604 74.4481 172.077C74.5968 172.015 74.7319 171.925 74.8459 171.812L92.3422 154.439Z" stroke="black" stroke-opacity="0.1" stroke-linejoin="round"/>
<path d="M44.343 145.106V103.744L26.8467 121.117V162.479L44.343 145.106Z" fill="white"/>
<path d="M45.5804 103.744C45.5804 103.247 45.2786 102.799 44.8168 102.609C44.3544 102.419 43.8222 102.524 43.4683 102.875L25.9718 120.248C25.74 120.479 25.6096 120.791 25.6096 121.117V162.479C25.6096 162.976 25.911 163.424 26.3735 163.614C26.8357 163.804 27.3679 163.699 27.7217 163.348L45.2181 145.975C45.4501 145.745 45.5804 145.432 45.5804 145.106V103.744Z" stroke="black" stroke-opacity="0.1" stroke-linejoin="round"/>
<path d="M67.503 145.106H44.343L26.8467 162.479H50.0066L67.503 145.106Z" fill="white"/>
<path d="M44.343 143.878C44.0149 143.878 43.7004 144.007 43.4683 144.238L25.9719 161.611C25.618 161.962 25.5124 162.49 25.7039 162.949C25.8952 163.408 26.3465 163.708 26.8468 163.708H50.0067C50.3348 163.708 50.6498 163.578 50.8818 163.348L68.3781 145.975C68.7317 145.623 68.8378 145.095 68.6461 144.636C68.4544 144.177 68.0035 143.878 67.503 143.878H44.343Z" stroke="black" stroke-opacity="0.1" stroke-linejoin="round"/>
<path d="M29.8682 157.243H70.2375L52.7412 174.617H12.3718L29.8682 157.243Z" fill="white"/>
<path d="M71.1121 158.112C71.4657 157.761 71.5718 157.232 71.3801 156.774C71.1889 156.314 70.7375 156.015 70.2375 156.015H29.8682C29.5401 156.015 29.2253 156.144 28.9932 156.375L11.4969 173.748C11.1431 174.099 11.0372 174.628 11.2287 175.086C11.4202 175.546 11.8713 175.845 12.3717 175.845H52.7407C53.0688 175.845 53.3838 175.716 53.6158 175.485L71.1121 158.112Z" stroke="black" stroke-opacity="0.1" stroke-linejoin="round"/>
<g filter="url(#filter1_d_317_244)">
<path d="M62.678 43.2173C72.2206 43.2173 80.209 44.1222 86.6425 45.9321C93.183 47.742 98.0615 50.723 101.278 54.8755C104.602 59.0275 106.264 64.5636 106.264 71.4844C106.264 75.9558 105.406 79.9483 103.691 83.4618C102.082 86.8686 99.616 89.7432 96.2925 92.0857C93.0755 94.3215 89.1081 95.8651 84.3905 96.7167V97.5156C89.2155 98.2604 93.558 99.6449 97.418 101.668C101.385 103.69 104.495 106.565 106.747 110.291C108.998 114.018 110.124 118.862 110.124 124.824C110.124 131.744 108.516 137.654 105.299 142.551C102.082 147.342 97.4715 151.015 91.4675 153.57C85.57 156.019 78.4931 157.243 70.2375 157.243H29.8682V43.2173H62.678ZM65.573 91.7663C75.4375 91.7663 82.1925 90.2226 85.838 87.1349C89.4835 83.9408 91.3065 79.2562 91.3065 73.0812C91.3065 66.7998 89.055 62.3279 84.5515 59.6664C80.1555 56.8981 73.0785 55.5144 63.3215 55.5144H44.343V91.7663H65.573ZM44.343 103.744V145.106H67.503C77.689 145.106 84.7656 143.136 88.733 139.197C92.7005 135.258 94.684 130.094 94.684 123.706C94.684 119.66 93.7725 116.147 91.95 113.166C90.234 110.185 87.2855 107.896 83.104 106.299C79.0295 104.595 73.454 103.744 66.3775 103.744H44.343Z" fill="white"/>
</g>
<g filter="url(#filter2_d_317_244)">
<path d="M129.52 201.643H115.045V100.233H79.1794V87.6167H165.225V100.233H129.52V201.643Z" fill="#37BFEF"/>
<path d="M129.52 202.871H130.757V201.643V101.462H165.225H166.462V100.233V87.6166V86.3884H165.225H79.1795H77.9421V87.6166V100.233V101.462H79.1795H113.808V201.643V202.871H115.045H129.52Z" stroke="black" stroke-opacity="0.1"/>
</g>
<path d="M182.722 82.8601V70.2437L165.226 87.6167V100.233L182.722 82.8601Z" fill="#37BFEF"/>
<path d="M183.959 70.2434C183.959 69.7465 183.657 69.2987 183.195 69.1084C182.733 68.9182 182.201 69.0236 181.847 69.3747L164.35 86.7478C164.118 86.978 163.988 87.2909 163.988 87.6165V100.233C163.988 100.73 164.289 101.178 164.752 101.368C165.214 101.558 165.746 101.453 166.1 101.102L183.596 83.7286C183.828 83.4983 183.959 83.1854 183.959 82.8598V70.2434Z" stroke="black" stroke-opacity="0.1" stroke-linejoin="round"/>
<path d="M147.017 82.8599H182.722L165.226 100.233H129.521L147.017 82.8599Z" fill="#37BFEF"/>
<path d="M183.596 83.7282C183.95 83.3771 184.056 82.849 183.864 82.3898C183.673 81.9306 183.222 81.6313 182.722 81.6313H147.017C146.689 81.6313 146.374 81.761 146.142 81.9912L128.645 99.3643C128.291 99.7158 128.186 100.244 128.377 100.703C128.569 101.162 129.02 101.461 129.52 101.461H165.225C165.554 101.461 165.868 101.332 166.1 101.102L183.596 83.7282Z" stroke="black" stroke-opacity="0.1" stroke-linejoin="round"/>
<path d="M182.722 70.2437H96.6758L79.1794 87.6167H165.225L182.722 70.2437Z" fill="#37BFEF"/>
<path d="M96.676 69.0149C96.3479 69.0149 96.0329 69.1441 95.8009 69.3748L78.3046 86.7478C77.9506 87.0993 77.8453 87.6275 78.0366 88.0867C78.2282 88.5459 78.6792 88.8451 79.1796 88.8451H165.225C165.553 88.8451 165.868 88.7155 166.1 88.4852L183.597 71.1122C183.95 70.7607 184.056 70.2325 183.865 69.7733C183.673 69.3141 183.222 69.0149 182.722 69.0149H96.676Z" stroke="black" stroke-opacity="0.1" stroke-linejoin="round"/>
<path d="M96.6758 82.8599H132.542L115.045 100.233H79.1794L96.6758 82.8599Z" fill="#37BFEF"/>
<path d="M133.417 83.7282C133.77 83.3771 133.876 82.849 133.685 82.3898C133.493 81.9306 133.042 81.6313 132.542 81.6313H96.676C96.3479 81.6313 96.0329 81.761 95.8009 81.9912L78.3046 99.3643C77.9506 99.7158 77.8453 100.244 78.0366 100.703C78.2282 101.162 78.6792 101.461 79.1796 101.461H115.045C115.373 101.461 115.688 101.332 115.92 101.102L133.417 83.7282Z" stroke="black" stroke-opacity="0.1" stroke-linejoin="round"/>
<path d="M96.6758 70.2437V82.8601L79.1794 100.233V87.6167L96.6758 70.2437Z" fill="#37BFEF"/>
<path d="M97.5505 83.7286C97.7825 83.4983 97.9133 83.1854 97.9133 82.8598V70.2434C97.9133 69.7465 97.6115 69.2987 97.1492 69.1084C96.6868 68.9182 96.1548 69.0236 95.8008 69.3747L78.3045 86.7478C78.0729 86.978 77.9421 87.2909 77.9421 87.6165V100.233C77.9421 100.73 78.2435 101.178 78.7062 101.368C79.1681 101.558 79.7006 101.453 80.0542 101.102L97.5505 83.7286Z" stroke="black" stroke-opacity="0.1" stroke-linejoin="round"/>
<path d="M147.017 184.27V82.8599L129.521 100.233V201.643L147.017 184.27Z" fill="#37BFEF"/>
<path d="M148.254 82.86C148.254 82.363 147.953 81.9153 147.49 81.725C147.028 81.5347 146.496 81.6397 146.142 81.9913L128.646 99.3643C128.413 99.595 128.283 99.907 128.283 100.233V201.643C128.283 202.14 128.585 202.587 129.047 202.778C129.509 202.968 130.042 202.863 130.395 202.511L147.892 185.138C148.124 184.908 148.254 184.595 148.254 184.27V82.86Z" stroke="black" stroke-opacity="0.1" stroke-linejoin="round"/>
<path d="M132.542 82.8599V184.27L115.045 201.643V100.233L132.542 82.8599Z" fill="#37BFEF"/>
<path d="M133.416 185.138C133.649 184.908 133.779 184.595 133.779 184.27V82.86C133.779 82.363 133.477 81.9153 133.015 81.725C132.553 81.5347 132.021 81.6397 131.667 81.9913L114.17 99.3643C113.938 99.595 113.808 99.907 113.808 100.233V201.643C113.808 202.14 114.109 202.587 114.572 202.778C115.034 202.968 115.566 202.863 115.92 202.511L133.416 185.138Z" stroke="black" stroke-opacity="0.1" stroke-linejoin="round"/>
<path d="M132.542 184.27H147.017L129.52 201.643H115.045L132.542 184.27Z" fill="#37BFEF"/>
<path d="M147.891 185.138C148.245 184.787 148.351 184.259 148.159 183.799C147.968 183.34 147.517 183.041 147.017 183.041H132.542C132.214 183.041 131.899 183.171 131.667 183.401L114.17 200.774C113.817 201.125 113.711 201.654 113.902 202.113C114.094 202.572 114.545 202.871 115.045 202.871H129.52C129.849 202.871 130.163 202.742 130.395 202.511L147.891 185.138Z" stroke="black" stroke-opacity="0.1" stroke-linejoin="round"/>
<g filter="url(#filter3_d_317_244)">
<path d="M147.017 184.27H132.542V82.8601H96.6758V70.2437H182.722V82.8601H147.017V184.27Z" fill="#37BFEF"/>
</g>
</g>
</g>
<defs>
<filter id="filter0_d_317_244" x="6.63452" y="58.8621" width="91.7302" height="125.483" filterUnits="userSpaceOnUse" color-interpolation-filters="sRGB">
<feFlood flood-opacity="0" result="BackgroundImageFix"/>
<feColorMatrix in="SourceAlpha" type="matrix" values="0 0 0 0 0 0 0 0 0 0 0 0 0 0 0 0 0 0 127 0" result="hardAlpha"/>
<feOffset dy="4"/>
<feGaussianBlur stdDeviation="2"/>
<feComposite in2="hardAlpha" operator="out"/>
<feColorMatrix type="matrix" values="0 0 0 0 0 0 0 0 0 0 0 0 0 0 0 0 0 0 0.25 0"/>
<feBlend mode="normal" in2="BackgroundImageFix" result="effect1_dropShadow_317_244"/>
<feBlend mode="normal" in="SourceGraphic" in2="effect1_dropShadow_317_244" result="shape"/>
</filter>
<filter id="filter1_d_317_244" x="25.8682" y="43.2173" width="88.2559" height="122.026" filterUnits="userSpaceOnUse" color-interpolation-filters="sRGB">
<feFlood flood-opacity="0" result="BackgroundImageFix"/>
<feColorMatrix in="SourceAlpha" type="matrix" values="0 0 0 0 0 0 0 0 0 0 0 0 0 0 0 0 0 0 127 0" result="hardAlpha"/>
<feOffset dy="4"/>
<feGaussianBlur stdDeviation="2"/>
<feComposite in2="hardAlpha" operator="out"/>
<feColorMatrix type="matrix" values="0 0 0 0 0 0 0 0 0 0 0 0 0 0 0 0 0 0 0.25 0"/>
<feBlend mode="normal" in2="BackgroundImageFix" result="effect1_dropShadow_317_244"/>
<feBlend mode="normal" in="SourceGraphic" in2="effect1_dropShadow_317_244" result="shape"/>
</filter>
<filter id="filter2_d_317_244" x="73.4421" y="85.8884" width="97.5203" height="125.483" filterUnits="userSpaceOnUse" color-interpolation-filters="sRGB">
<feFlood flood-opacity="0" result="BackgroundImageFix"/>
<feColorMatrix in="SourceAlpha" type="matrix" values="0 0 0 0 0 0 0 0 0 0 0 0 0 0 0 0 0 0 127 0" result="hardAlpha"/>
<feOffset dy="4"/>
<feGaussianBlur stdDeviation="2"/>
<feComposite in2="hardAlpha" operator="out"/>
<feColorMatrix type="matrix" values="0 0 0 0 0 0 0 0 0 0 0 0 0 0 0 0 0 0 0.25 0"/>
<feBlend mode="normal" in2="BackgroundImageFix" result="effect1_dropShadow_317_244"/>
<feBlend mode="normal" in="SourceGraphic" in2="effect1_dropShadow_317_244" result="shape"/>
</filter>
<filter id="filter3_d_317_244" x="92.6758" y="70.2437" width="94.0459" height="122.026" filterUnits="userSpaceOnUse" color-interpolation-filters="sRGB">
<feFlood flood-opacity="0" result="BackgroundImageFix"/>
<feColorMatrix in="SourceAlpha" type="matrix" values="0 0 0 0 0 0 0 0 0 0 0 0 0 0 0 0 0 0 127 0" result="hardAlpha"/>
<feOffset dy="4"/>
<feGaussianBlur stdDeviation="2"/>
<feComposite in2="hardAlpha" operator="out"/>
<feColorMatrix type="matrix" values="0 0 0 0 0 0 0 0 0 0 0 0 0 0 0 0 0 0 0.25 0"/>
<feBlend mode="normal" in2="BackgroundImageFix" result="effect1_dropShadow_317_244"/>
<feBlend mode="normal" in="SourceGraphic" in2="effect1_dropShadow_317_244" result="shape"/>
</filter>
<clipPath id="clip0_317_244">
<rect width="193" height="228.494" fill="white"/>
</clipPath>
</defs>
</svg>
