<svg width="83" height="83" viewBox="0 0 83 83" fill="none" xmlns="http://www.w3.org/2000/svg">
<path d="M15.3084 70.5526L9.48279 5.1875H73.5173L67.6839 70.5422L41.4611 77.8125L15.3084 70.5526Z" fill="#1572B6"/>
<path d="M41.5 72.2567L62.6909 66.3818L67.6761 10.5332H41.5V72.2567Z" fill="#33A9DC"/>
<path d="M41.5 34.214H52.1084L52.8399 26.0048H41.5V17.9875H61.6016L61.4096 20.1378L59.441 42.2313H41.5V34.214Z" fill="white"/>
<path d="M41.5493 55.0342L41.513 55.0446L32.5853 52.6324L32.0147 46.2388H23.9663L25.0894 58.8262L41.5104 63.386L41.5493 63.3757V55.0342Z" fill="#EBEBEB"/>
<path d="M51.4263 41.8916L50.4614 52.6271L41.5208 55.0393V63.3808L57.9548 58.8262L58.0767 57.4723L59.4695 41.8916H51.4263Z" fill="white"/>
<path d="M41.5285 17.9875V26.0048H22.1635L22.0027 24.2022L21.637 20.1378L21.4451 17.9875H41.5285ZM41.4999 34.214V42.2313H32.6838L32.523 40.4287L32.1599 36.3643L31.9679 34.214H41.4999Z" fill="#EBEBEB"/>
</svg>
