<svg width="84" height="84" viewBox="0 0 84 84" fill="none" xmlns="http://www.w3.org/2000/svg">
<path d="M15.4927 71.4026L9.59436 5.25H74.4056L68.4994 71.3921L41.9606 78.75L15.4927 71.4026Z" fill="#E44F26"/>
<path d="M42 73.1273L63.4463 67.1817L68.4915 10.6602H42V73.1273Z" fill="#F1662A"/>
<path d="M42 35.1935H31.2638L30.5235 26.8854H42V18.7715H21.6562L21.8505 20.9502L23.8429 43.3074H42V35.1935ZM42 56.2644L41.9632 56.2749L32.928 53.8362L32.3505 47.3656H24.2051L25.3418 60.1021L41.9632 64.7169L42 64.7064V56.2644Z" fill="#EBEBEB"/>
<path d="M41.9711 35.1935V43.3074H51.9618L51.0221 53.831L41.9711 56.2722V64.7142L58.6057 60.1021L58.7264 58.7319L60.6322 37.3722L60.8317 35.1935H41.9711ZM41.9711 18.7715V26.8854H61.5693L61.7321 25.0636L62.1022 20.9502L62.2964 18.7715H41.9711Z" fill="white"/>
</svg>
