<svg width="84" height="83" viewBox="0 0 84 83" fill="none" xmlns="http://www.w3.org/2000/svg">
<g clip-path="url(#clip0_348_83)">
<path d="M0 0H84V83H0V0Z" fill="#F7DF1E"/>
<path d="M22.0868 69.3607L28.5147 65.5168C29.755 67.6894 30.8831 69.5277 33.5892 69.5277C36.183 69.5277 37.8187 68.5252 37.8187 64.6255V38.1051H45.7124V64.7357C45.7124 72.8143 40.9198 76.4916 33.9275 76.4916C27.6127 76.4916 23.9472 73.2601 22.0864 69.3601M50 68.5249L56.4273 64.8479C58.1195 67.5782 60.3186 69.5838 64.2088 69.5838C67.4799 69.5838 69.5655 67.9679 69.5655 65.7392C69.5655 63.065 67.4228 62.1177 63.8141 60.5582L61.8411 59.7217C56.1458 57.3267 52.3681 54.3179 52.3681 47.9665C52.3681 42.1163 56.8788 37.6589 63.9273 37.6589C68.9456 37.6589 72.5543 39.3864 75.1478 43.8992L69.0014 47.7995C67.6479 45.4039 66.1825 44.4568 63.927 44.4568C61.615 44.4568 60.1489 45.9054 60.1489 47.7995C60.1489 50.1394 61.615 51.0871 64.998 52.5357L66.9713 53.3712C73.6815 56.213 77.4592 59.1099 77.4592 65.628C77.4592 72.6486 71.8771 76.4926 64.3778 76.4926C57.0478 76.4926 52.3113 73.0383 49.9997 68.5252" fill="black"/>
</g>
<defs>
<clipPath id="clip0_348_83">
<rect width="84" height="83" fill="white"/>
</clipPath>
</defs>
</svg>
