<svg width="264" height="182" viewBox="0 0 264 182" fill="none" xmlns="http://www.w3.org/2000/svg">
<path d="M28.2468 115.245H221.63" stroke="black" stroke-width="2"/>
<path d="M159.2 141.401C157.241 141.175 155.266 141.062 153.277 141.062C152.405 141.032 151.518 141.006 150.615 140.985C142.4 140.647 134.164 140.56 125.909 140.724C125.498 140.724 125.16 140.724 124.893 140.724C124.442 140.692 124.114 140.698 123.908 140.739C123.703 140.77 123.539 140.883 123.416 141.077C123.293 141.262 123.15 141.57 122.986 142.001C122.873 142.247 122.739 142.556 122.585 142.924C121.211 145.922 119.949 148.971 118.801 152.07C118.053 154.071 117.474 156.123 117.063 158.228C116.909 158.885 116.852 159.521 116.893 160.137C116.944 160.762 117.227 161.322 117.74 161.815C117.811 161.866 117.837 161.928 117.817 162C117.796 162.081 117.749 162.154 117.678 162.215C117.606 162.287 117.53 162.333 117.447 162.354C116.227 162.539 115.494 162.102 115.247 161.045C115.104 160.449 115.078 159.839 115.17 159.213C115.17 159.162 115.17 159.126 115.17 159.106C115.263 158.028 115.453 156.955 115.74 155.887C116.037 154.831 116.365 153.768 116.724 152.701C117.883 149.499 119.16 146.337 120.555 143.218C120.626 143.084 120.683 142.951 120.724 142.817C120.796 142.664 120.873 142.504 120.954 142.34C121.067 142.115 121.171 141.888 121.263 141.662C121.355 141.437 121.391 141.201 121.371 140.954C121.258 140.862 121.145 140.806 121.032 140.785C120.919 140.764 120.807 140.764 120.694 140.785C120.673 140.785 120.647 140.785 120.617 140.785C119.653 140.785 118.684 140.796 117.709 140.816C117.442 140.816 117.161 140.816 116.863 140.816C116.503 140.836 116.201 140.949 115.955 141.154C115.709 141.36 115.473 141.611 115.247 141.909C114.95 142.288 114.653 142.668 114.356 143.048C113.094 144.66 111.822 146.256 110.54 147.837C108.643 150.135 106.658 152.352 104.587 154.487C102.525 156.621 100.335 158.623 98.0176 160.491C95.1049 162.892 92.0128 165.007 88.7411 166.833C83.7363 169.523 78.4903 170.795 73.0034 170.652C67.8345 170.539 63.1731 169.143 59.0195 166.464C57.8503 165.715 56.8145 164.811 55.912 163.754C55.3069 163.005 54.8299 162.194 54.4813 161.322C54.1223 160.46 53.9429 159.521 53.9429 158.505C53.9942 157.283 54.2762 156.155 54.789 155.118C55.2914 154.071 55.994 153.121 56.8965 152.27C58.1375 151.069 59.5015 150.053 60.9886 149.222C62.4348 148.38 63.927 147.646 65.4653 147.02C66.9935 146.384 68.537 145.82 70.0959 145.326C72.6189 144.516 75.1675 143.833 77.7417 143.279C80.3159 142.724 82.9004 142.253 85.4951 141.862C91.6487 141.011 97.8176 140.447 104.002 140.169C107.161 139.974 110.31 139.877 113.447 139.877C114.309 139.898 114.976 139.533 115.447 138.783C116.278 137.613 117.114 136.438 117.955 135.259C119.257 133.452 120.539 131.614 121.801 129.746C127.667 120.982 133.287 112.074 138.662 103.021C139.113 102.251 139.554 101.471 139.985 100.681C140.189 100.28 140.406 99.875 140.631 99.4645C140.898 98.941 141.324 98.6486 141.908 98.5869C142.225 98.5869 142.457 98.6793 142.6 98.864C142.753 99.0385 142.774 99.2746 142.661 99.5723C142.549 99.8185 142.421 100.055 142.277 100.28C141.405 101.84 140.631 103.421 139.954 105.022C139.697 105.587 139.446 106.141 139.2 106.685C136.831 111.827 134.452 116.974 132.062 122.126C130.237 126.098 128.395 130.08 126.54 134.072C126.006 135.253 125.478 136.428 124.955 137.598C124.842 137.845 124.729 138.081 124.617 138.306C124.596 138.358 124.575 138.415 124.555 138.476C124.483 138.64 124.421 138.804 124.37 138.968C124.329 139.122 124.344 139.277 124.417 139.43C124.57 139.543 124.749 139.605 124.955 139.615C125.16 139.625 125.35 139.63 125.524 139.63C125.667 139.61 125.796 139.6 125.909 139.6C126.76 139.62 127.616 139.62 128.478 139.6C129.647 139.6 130.821 139.61 132 139.63C138.4 139.743 144.805 139.881 151.216 140.047C153.318 140.087 155.405 140.175 157.477 140.308C157.661 140.328 157.856 140.339 158.061 140.339C158.174 140.339 158.297 140.339 158.43 140.339C158.697 140.339 158.953 140.364 159.2 140.415C159.456 140.457 159.696 140.543 159.922 140.677C159.963 140.708 159.994 140.76 160.014 140.832C160.035 140.892 160.035 140.945 160.014 140.985C160.014 141.057 159.984 141.124 159.922 141.185C159.871 141.237 159.824 141.273 159.784 141.293C159.599 141.365 159.404 141.401 159.2 141.401ZM113.34 141.57C113.411 141.426 113.417 141.298 113.355 141.185C113.304 141.073 113.212 141.016 113.078 141.016C112.874 140.996 112.657 140.996 112.433 141.016C112.32 141.016 112.207 141.016 112.094 141.016C104.351 141.109 96.6023 141.642 88.8488 142.617C85.8849 142.977 82.9363 143.449 80.0031 144.033C77.0699 144.618 74.1623 145.352 71.2805 146.235C69.742 146.707 68.2242 147.251 66.7268 147.867C65.2295 148.473 63.768 149.196 62.3424 150.037C60.8553 150.869 59.5015 151.885 58.2811 153.086C56.8555 154.553 56.0555 156.114 55.8812 157.766C55.6966 159.428 56.1375 161.03 57.2042 162.569C57.9939 163.647 58.9375 164.571 60.0349 165.341C64.0346 168.184 68.7985 169.631 74.3265 169.682C75.7418 169.682 77.3674 169.497 79.2031 169.127C81.0287 168.748 82.7927 168.188 84.4952 167.45C86.1977 166.72 87.8488 165.858 89.4488 164.863C93.3973 162.43 97.0535 159.598 100.418 156.365C102.746 154.179 104.94 151.88 107.002 149.468C109.064 147.046 111.064 144.582 113.002 142.079C113.115 141.894 113.227 141.724 113.34 141.57ZM122.755 138.383C124.242 134.996 125.775 131.62 127.355 128.254C127.426 128.069 127.662 127.54 128.062 126.667C128.472 125.785 128.94 124.764 129.462 123.604C129.996 122.434 130.482 121.33 130.923 120.294C131.365 119.258 131.672 118.483 131.847 117.97C132.032 117.446 131.981 117.394 131.693 117.815C131.621 117.908 131.564 118 131.524 118.092C131.278 118.452 131.042 118.811 130.816 119.17C128.94 122.085 127.053 124.995 125.155 127.899C123.258 130.804 121.293 133.667 119.263 136.49C119.068 136.757 118.867 137.039 118.663 137.336C118.273 137.87 117.889 138.409 117.509 138.953C117.355 139.179 117.309 139.368 117.37 139.523C117.442 139.666 117.602 139.738 117.847 139.738C118.258 139.738 118.663 139.728 119.063 139.707C119.699 139.656 120.33 139.63 120.954 139.63C121.437 139.651 121.812 139.549 122.078 139.323C122.345 139.096 122.57 138.783 122.755 138.383ZM132.262 147.667C130.642 148.273 129.473 148.765 128.755 149.144C128.231 149.401 127.929 149.616 127.847 149.791C127.775 149.956 127.837 150.263 128.031 150.715C128.031 150.735 128.047 150.767 128.078 150.807C128.303 151.352 128.437 151.916 128.478 152.501C128.55 153.681 127.545 154.508 125.462 154.98C123.391 155.451 122.006 155.467 121.309 155.025C120.601 154.584 120.386 154.025 120.662 153.348C120.929 152.67 121.632 151.982 122.77 151.284C123.908 150.587 124.668 150.084 125.047 149.776C125.437 149.468 125.554 149.124 125.401 148.744C125.35 148.611 125.294 148.478 125.232 148.344C125.098 148.026 124.96 147.697 124.817 147.359C124.549 146.743 124.436 146.137 124.478 145.543C124.508 144.947 124.724 144.449 125.124 144.049C125.535 143.639 126.165 143.418 127.017 143.387C127.498 143.366 127.929 143.433 128.308 143.587C128.688 143.731 128.991 144.003 129.217 144.403C129.4 144.68 129.345 144.931 129.047 145.158C128.852 145.311 128.642 145.332 128.416 145.219C128.273 145.158 128.135 145.07 128.001 144.958C128.001 144.926 128.001 144.911 128.001 144.911C127.939 144.87 127.883 144.829 127.831 144.788C127.77 144.696 127.703 144.624 127.632 144.573C127.365 144.377 127.093 144.32 126.817 144.403C126.549 144.475 126.35 144.68 126.216 145.018C126.124 145.286 126.078 145.558 126.078 145.835C126.099 146.173 126.176 146.501 126.308 146.82C126.401 147.015 126.483 147.195 126.555 147.359C126.729 147.81 126.872 148.124 126.985 148.298C127.098 148.462 127.232 148.533 127.385 148.514C127.549 148.482 129.006 147.959 131.755 146.943C132.349 146.748 132.518 146.99 132.262 147.667ZM125.601 153.548C126.319 153.301 126.621 152.819 126.508 152.101C126.508 152.049 126.498 151.993 126.478 151.931C126.437 151.541 126.355 151.244 126.231 151.038C126.108 150.823 125.831 150.827 125.401 151.054C124.334 151.659 123.35 152.367 122.447 153.178C122.385 153.25 122.329 153.317 122.278 153.378C122.278 153.378 122.268 153.393 122.247 153.425C122.185 153.506 122.176 153.599 122.217 153.702C122.257 153.804 122.349 153.855 122.494 153.855C123.55 154.02 124.585 153.917 125.601 153.548ZM134.093 151.823H134.047C132.56 151.803 131.58 151.474 131.108 150.838C130.637 150.191 130.657 149.335 131.17 148.267C131.6 147.456 132.145 146.748 132.801 146.143C133.026 145.937 133.257 145.773 133.493 145.65C133.729 145.527 133.996 145.465 134.292 145.465C134.467 145.435 134.667 145.465 134.893 145.558C134.965 145.578 135.037 145.603 135.108 145.635C135.282 145.603 135.452 145.547 135.616 145.465C135.657 145.435 135.713 145.409 135.785 145.388C136.123 145.254 136.483 145.198 136.862 145.219C137.016 145.219 137.175 145.219 137.339 145.219C137.944 145.311 138.4 145.568 138.708 145.988C139.016 146.399 139.124 146.903 139.031 147.497C138.979 147.856 138.867 148.195 138.692 148.514C137.514 150.627 136.011 151.731 134.185 151.823H134.093ZM136.524 146.312C135.713 146.281 134.99 146.518 134.354 147.02C133.729 147.513 133.262 148.082 132.954 148.729C132.646 149.376 132.56 149.909 132.693 150.331C132.837 150.74 133.267 150.854 133.985 150.669C134.795 150.422 135.508 149.961 136.123 149.284C136.749 148.606 137.129 147.965 137.262 147.359C137.405 146.743 137.159 146.394 136.524 146.312ZM150.922 147.452C150.974 147.452 151.031 147.467 151.092 147.497C151.163 147.518 151.22 147.548 151.261 147.59C151.405 147.723 151.42 147.882 151.307 148.067C151.163 148.221 151.025 148.354 150.892 148.467C150.102 149.196 149.225 149.807 148.262 150.299C146.744 151.069 145.072 151.465 143.247 151.485C142.57 151.505 141.872 151.393 141.154 151.146C139.841 150.633 139.308 149.684 139.554 148.298C139.852 147.015 140.574 145.952 141.724 145.111C142.872 144.26 144.103 143.89 145.415 144.003C145.662 144.043 145.907 144.1 146.154 144.172C146.38 144.264 146.548 144.403 146.661 144.588C146.774 144.762 146.784 144.905 146.692 145.018C146.446 145.286 146.164 145.352 145.846 145.219C145.374 145.014 144.938 144.958 144.538 145.05C144.148 145.142 143.754 145.358 143.354 145.696C142.964 145.994 142.544 146.425 142.093 146.99C141.641 147.554 141.354 148.124 141.231 148.699C141.108 149.273 141.364 149.74 142.001 150.099C142.718 150.418 143.451 150.495 144.199 150.331C146.067 149.95 147.8 149.242 149.4 148.205C149.544 148.133 149.672 148.052 149.785 147.959C149.959 147.826 150.133 147.718 150.307 147.635C150.492 147.544 150.697 147.482 150.922 147.452ZM156.215 148.991C155.671 149.637 155.026 150.233 154.276 150.776C153.527 151.32 152.681 151.69 151.738 151.885C150.794 152.07 150.062 151.998 149.538 151.669C149.016 151.341 148.912 150.612 149.231 149.484C149.64 148.314 150.205 147.199 150.922 146.143C151.087 145.917 151.323 145.758 151.631 145.665C151.857 145.614 152.051 145.656 152.215 145.788C152.389 145.912 152.456 146.071 152.415 146.266C152.261 146.635 152.092 147.005 151.908 147.374C151.723 147.744 151.6 147.984 151.538 148.097C151.179 148.754 150.928 149.442 150.784 150.161C150.784 150.571 151.333 150.597 152.43 150.238C153.527 149.878 154.594 149.222 155.63 148.267C156.666 147.303 157.158 147.02 157.107 147.42C157.066 147.81 156.768 148.333 156.215 148.991ZM153.538 143.833C153.487 143.875 153.379 143.926 153.215 143.988C153.061 144.039 152.892 144.079 152.707 144.111C152.533 144.131 152.394 144.1 152.292 144.018C152.189 143.936 152.185 143.771 152.277 143.526C152.441 143.094 152.609 142.72 152.784 142.402C152.969 142.073 153.205 141.714 153.492 141.324C153.676 141.149 153.876 141.057 154.091 141.047C154.308 141.026 154.487 141.083 154.63 141.216C154.774 141.339 154.815 141.513 154.753 141.739C154.528 142.55 154.123 143.248 153.538 143.833ZM167.261 147.635C167.506 147.769 167.527 148.103 167.322 148.637C167.024 149.027 166.707 149.391 166.368 149.729C166.03 150.069 165.661 150.371 165.261 150.638C165.229 150.638 165.214 150.648 165.214 150.669C164.948 150.854 164.665 151.012 164.368 151.146C161.917 152.029 160.666 151.51 160.614 149.591C159.62 150.453 158.953 150.982 158.615 151.176C157.805 151.659 156.928 151.874 155.984 151.823C155.286 151.782 154.815 151.572 154.568 151.192C154.312 150.802 154.333 150.278 154.63 149.622C155.081 148.586 155.722 147.661 156.553 146.85C157.528 145.948 158.61 145.224 159.799 144.68C160.435 144.362 161.102 144.239 161.799 144.311C162.497 144.352 162.917 144.747 163.061 145.496C163.122 145.722 163.066 145.922 162.891 146.096C162.665 146.301 162.405 146.348 162.107 146.235C162.086 146.235 162.056 146.23 162.015 146.22C161.984 146.209 161.958 146.194 161.937 146.173C161.64 145.763 161.338 145.594 161.03 145.665C160.733 145.727 160.414 145.86 160.076 146.065C158.497 146.99 157.322 148.277 156.553 149.929C156.512 150.001 156.487 150.084 156.476 150.176C156.466 150.258 156.491 150.325 156.553 150.376C156.738 150.438 156.943 150.427 157.169 150.346C157.394 150.253 157.62 150.125 157.846 149.961C158.071 149.786 158.261 149.642 158.414 149.529C158.435 149.499 158.446 149.484 158.446 149.484C159.194 148.857 159.928 148.216 160.646 147.559C160.963 147.22 161.358 147.031 161.83 146.99C162.507 146.99 162.789 147.292 162.676 147.897C162.614 148.124 162.548 148.35 162.476 148.575C162.209 149.55 162.199 150.125 162.445 150.299C162.691 150.463 163.066 150.463 163.568 150.299C164.081 150.125 164.588 149.801 165.091 149.329C165.604 148.847 166.034 148.411 166.383 148.02C166.732 147.62 167.024 147.492 167.261 147.635ZM179.983 147.374C180.198 147.426 180.311 147.503 180.322 147.605C180.332 147.708 180.337 147.759 180.337 147.759C180.09 148.19 179.809 148.586 179.491 148.944C178.763 149.755 177.917 150.402 176.952 150.884C176.48 151.151 175.947 151.295 175.353 151.316C173.978 151.336 173.347 150.669 173.46 149.314C173.511 149.027 173.578 148.744 173.66 148.467C173.711 148.333 173.747 148.201 173.767 148.067C173.901 147.575 173.937 147.303 173.875 147.251C173.824 147.19 173.665 147.328 173.398 147.667C173.326 147.728 173.26 147.795 173.198 147.867C172.789 148.359 172.368 148.842 171.937 149.314C171.147 150.218 170.245 150.976 169.229 151.593C168.624 151.952 167.983 152.142 167.307 152.163C166.199 152.214 165.578 151.705 165.445 150.638C165.393 150.207 165.414 149.78 165.506 149.36C165.958 147.616 166.86 146.286 168.214 145.373C169.568 144.46 171.117 144.136 172.86 144.403C173.352 144.547 173.711 144.413 173.937 144.003C174.029 143.849 174.122 143.69 174.214 143.526C174.685 142.715 175.147 141.904 175.598 141.093C176.45 139.533 177.306 137.962 178.167 136.382C178.865 135.14 179.562 133.888 180.26 132.625C180.465 132.236 180.69 131.861 180.937 131.502C181.05 131.327 181.188 131.225 181.352 131.193C181.527 131.153 181.706 131.133 181.891 131.133C181.932 131.133 181.978 131.133 182.029 131.133C182.234 131.133 182.398 131.184 182.521 131.286C182.645 131.389 182.67 131.527 182.598 131.702C182.465 132.133 182.306 132.544 182.121 132.934C181.178 134.823 180.285 136.736 179.444 138.676C178.614 140.605 177.794 142.55 176.983 144.511C176.716 145.188 176.444 145.865 176.167 146.543C175.829 147.333 175.547 148.144 175.321 148.975C175.26 149.16 175.23 149.344 175.23 149.529C175.23 149.704 175.317 149.858 175.491 149.991C175.604 150.063 175.722 150.078 175.845 150.037C175.967 149.986 176.101 149.929 176.245 149.869C176.265 149.837 176.296 149.812 176.337 149.791C177.311 149.227 178.203 148.55 179.014 147.759C179.147 147.626 179.285 147.513 179.429 147.42C179.583 147.328 179.768 147.312 179.983 147.374ZM172.383 146.373C172.496 146.188 172.527 146.014 172.476 145.85C172.434 145.675 172.321 145.547 172.137 145.465C171.758 145.26 171.352 145.234 170.922 145.388C169.865 145.707 168.979 146.312 168.26 147.205C167.553 148.097 167.169 149.084 167.107 150.161C167.127 150.212 167.137 150.248 167.137 150.269C167.137 150.361 167.137 150.453 167.137 150.546C167.229 151.038 167.532 151.136 168.045 150.838C168.568 150.531 169.148 150.037 169.784 149.36C170.43 148.682 171.004 148.041 171.507 147.435C172.019 146.82 172.312 146.466 172.383 146.373ZM181.629 151.823H181.583C180.096 151.803 179.116 151.474 178.644 150.838C178.173 150.191 178.194 149.335 178.706 148.267C179.137 147.456 179.681 146.748 180.337 146.143C180.562 145.937 180.793 145.773 181.029 145.65C181.265 145.527 181.531 145.465 181.829 145.465C182.004 145.435 182.204 145.465 182.428 145.558C182.501 145.578 182.573 145.603 182.645 145.635C182.818 145.603 182.988 145.547 183.152 145.465C183.193 145.435 183.25 145.409 183.321 145.388C183.659 145.254 184.019 145.198 184.398 145.219C184.552 145.219 184.711 145.219 184.875 145.219C185.48 145.311 185.936 145.568 186.244 145.988C186.551 146.399 186.66 146.903 186.568 147.497C186.516 147.856 186.404 148.195 186.229 148.514C185.049 150.627 183.546 151.731 181.721 151.823H181.629ZM184.059 146.312C183.25 146.281 182.526 146.518 181.891 147.02C181.265 147.513 180.799 148.082 180.49 148.729C180.183 149.376 180.096 149.909 180.229 150.331C180.373 150.74 180.803 150.854 181.521 150.669C182.332 150.422 183.044 149.961 183.659 149.284C184.285 148.606 184.664 147.965 184.798 147.359C184.941 146.743 184.696 146.394 184.059 146.312ZM194.812 147.667C193.193 148.273 192.024 148.765 191.306 149.144C190.782 149.401 190.48 149.616 190.397 149.791C190.326 149.956 190.388 150.263 190.582 150.715C190.582 150.735 190.598 150.767 190.629 150.807C190.855 151.352 190.987 151.916 191.028 152.501C191.1 153.681 190.095 154.508 188.014 154.98C185.942 155.451 184.557 155.467 183.859 155.025C183.152 154.584 182.937 154.025 183.214 153.348C183.48 152.67 184.183 151.982 185.322 151.284C186.459 150.587 187.218 150.084 187.598 149.776C187.988 149.468 188.106 149.124 187.952 148.744C187.901 148.611 187.844 148.478 187.782 148.344C187.649 148.026 187.511 147.697 187.367 147.359C187.1 146.743 186.988 146.137 187.028 145.543C187.06 144.947 187.275 144.449 187.675 144.049C188.085 143.639 188.716 143.418 189.567 143.387C190.049 143.366 190.48 143.433 190.859 143.587C191.239 143.731 191.541 144.003 191.767 144.403C191.952 144.68 191.895 144.931 191.598 145.158C191.403 145.311 191.193 145.332 190.967 145.219C190.823 145.158 190.685 145.07 190.552 144.958C190.552 144.926 190.552 144.911 190.552 144.911C190.49 144.87 190.433 144.829 190.382 144.788C190.321 144.696 190.254 144.624 190.182 144.573C189.916 144.377 189.644 144.32 189.367 144.403C189.1 144.475 188.9 144.68 188.767 145.018C188.675 145.286 188.629 145.558 188.629 145.835C188.649 146.173 188.726 146.501 188.859 146.82C188.951 147.015 189.034 147.195 189.106 147.359C189.279 147.81 189.424 148.124 189.536 148.298C189.649 148.462 189.782 148.533 189.937 148.514C190.101 148.482 191.557 147.959 194.305 146.943C194.9 146.748 195.069 146.99 194.812 147.667ZM188.152 153.548C188.87 153.301 189.172 152.819 189.06 152.101C189.06 152.049 189.049 151.993 189.028 151.931C188.987 151.541 188.906 151.244 188.783 151.038C188.659 150.823 188.382 150.827 187.952 151.054C186.885 151.659 185.901 152.367 184.998 153.178C184.937 153.25 184.88 153.317 184.828 153.378C184.828 153.378 184.819 153.393 184.798 153.425C184.737 153.506 184.726 153.599 184.767 153.702C184.809 153.804 184.901 153.855 185.044 153.855C186.1 154.02 187.136 153.917 188.152 153.548Z" fill="black"/>
<path d="M34.7438 98.2192C34.5352 99.2108 34.3136 100.111 34.0789 100.92C33.8442 101.729 33.5313 102.433 33.1402 103.033C32.7491 103.607 32.2537 104.051 31.654 104.364C31.0543 104.677 30.2982 104.834 29.3856 104.834H21.3678V79.7844H25.0833V79.1582H14.2104V79.7844H17.574V104.834H14.2104V105.46H34.3527C35.1088 105.46 35.4869 105.043 35.4869 104.208V98.3367C35.4869 97.7104 35.3826 97.3973 35.174 97.3973C34.9915 97.3973 34.8481 97.6713 34.7438 98.2192ZM46.1108 104.834V105.46H54.7934V104.834H50.1783L52.6423 97.2799H60.5037L63.0459 104.834H59.0174V105.46H70.477V104.834H67.0743L58.509 78.8059H58.0397L49.4743 104.834H46.1108ZM56.5534 85.4597L60.3081 96.6537H52.877L56.5534 85.4597ZM100.658 79.7844H104.022V104.834H100.737V105.46H111.18V104.834H107.816V91.9177H110.906C111.48 91.9177 111.936 92.0091 112.275 92.1917C112.614 92.3483 112.875 92.5831 113.057 92.8962C113.266 93.2094 113.422 93.5877 113.527 94.0313C113.631 94.4749 113.735 94.9706 113.839 95.5186C113.918 95.8839 114.022 96.0666 114.152 96.0666C114.309 96.0666 114.387 95.897 114.387 95.5577V87.6124C114.387 87.2992 114.309 87.1427 114.152 87.1427C114.022 87.1427 113.918 87.3253 113.839 87.6906C113.735 88.2386 113.631 88.7344 113.527 89.178C113.422 89.6215 113.266 89.9999 113.057 90.313C112.875 90.6261 112.614 90.874 112.275 91.0567C111.936 91.2132 111.48 91.2915 110.906 91.2915H107.816V79.7844H113.761C114.648 79.7844 115.391 80.0062 115.991 80.4498C116.59 80.8673 117.073 81.4022 117.438 82.0545C117.803 82.6807 118.063 83.3592 118.22 84.0898C118.402 84.7943 118.507 85.4336 118.533 86.0076C118.533 86.3729 118.637 86.5556 118.846 86.5556C119.028 86.5556 119.119 86.386 119.119 86.0468V80.0975C119.119 79.4713 118.794 79.1582 118.142 79.1582H100.658V79.7844ZM141.641 79.7844V79.1582H131.12V79.7844H134.484V104.834H131.12V105.46H141.641V104.834H138.277V79.7844H141.641ZM172.792 103.777C172.714 103.516 172.648 103.151 172.596 102.681C172.57 102.212 172.544 101.703 172.518 101.155C172.518 100.607 172.505 100.046 172.479 99.4717C172.479 98.8977 172.44 98.3497 172.362 97.8279C172.205 96.7841 171.944 95.923 171.579 95.2446C171.214 94.5662 170.771 94.0182 170.25 93.6008C169.728 93.1572 169.128 92.818 168.451 92.5831C167.773 92.3222 167.043 92.0874 166.26 91.8786C168.294 91.5133 169.859 90.7957 170.954 89.7259C172.049 88.63 172.596 87.2601 172.596 85.6162C172.596 84.5986 172.375 83.6853 171.931 82.8764C171.514 82.0676 170.941 81.3891 170.211 80.8412C169.48 80.2932 168.607 79.8757 167.59 79.5887C166.599 79.3017 165.543 79.1582 164.422 79.1582H153.393V79.7844H156.756V104.834H153.393V105.46H163.914V104.834H160.55V92.0352H163.796C164.214 92.0352 164.657 92.1134 165.126 92.27C165.595 92.4005 166.026 92.6744 166.417 93.0919C166.834 93.4833 167.186 94.0443 167.473 94.7749C167.786 95.4795 168.007 96.3927 168.138 97.5147C168.216 98.1932 168.255 98.8846 168.255 99.5891C168.281 100.294 168.32 100.972 168.372 101.624C168.451 102.277 168.568 102.877 168.724 103.425C168.907 103.973 169.181 104.442 169.546 104.834C169.885 105.199 170.276 105.447 170.719 105.578C171.188 105.708 171.684 105.773 172.205 105.773C172.648 105.773 173.092 105.721 173.535 105.617C173.978 105.538 174.382 105.434 174.747 105.304C175.139 105.173 175.464 105.043 175.725 104.912C176.012 104.756 176.221 104.612 176.351 104.482C176.429 104.403 176.468 104.325 176.468 104.247C176.468 104.169 176.429 104.129 176.351 104.129C176.299 104.129 176.221 104.155 176.116 104.208C175.595 104.573 175.008 104.756 174.356 104.756C173.548 104.756 173.027 104.429 172.792 103.777ZM160.55 91.4089V79.7844H164.422C167.395 79.7844 168.881 81.4935 168.881 84.9117V86.3208C168.881 89.7129 167.395 91.4089 164.422 91.4089H160.55ZM186.831 104.834V105.46H193.714V104.834H190.585V80.4498L199.307 105.46H199.815L208.537 80.2932V104.834H205.408V105.46H215.46V104.834H212.331V79.7844H215.46V79.1582H208.224L201.263 99.276L194.066 79.1582H186.831V79.7844H189.959V104.834H186.831ZM226.327 104.834V105.46H235.01V104.834H230.395L232.859 97.2799H240.72L243.262 104.834H239.234V105.46H250.694V104.834H247.291L238.726 78.8059H238.256L229.691 104.834H226.327ZM236.77 85.4597L240.525 96.6537H233.094L236.77 85.4597Z" fill="black"/>
<path d="M109.918 50.6765C107.892 50.443 105.849 50.3262 103.791 50.3262C102.889 50.2943 101.972 50.2678 101.038 50.2465C92.5397 49.8962 84.0203 49.8058 75.4796 49.9758C75.0552 49.9758 74.7051 49.9758 74.4292 49.9758C73.9624 49.9439 73.6229 49.9492 73.4107 49.9916C73.1985 50.0235 73.0287 50.1404 72.9014 50.3421C72.7742 50.5332 72.6256 50.8517 72.4559 51.2976C72.3392 51.5525 72.2012 51.871 72.042 52.2532C70.6204 55.3535 69.3155 58.5068 68.1271 61.7133C67.3526 63.7836 66.7532 65.9071 66.3288 68.0837C66.1696 68.7632 66.1113 69.4214 66.1538 70.0585C66.2068 70.7062 66.4986 71.2848 67.0291 71.7945C67.1033 71.8475 67.1298 71.9112 67.1086 71.9855C67.0874 72.0705 67.0396 72.1448 66.9654 72.2085C66.8911 72.2829 66.8116 72.3306 66.7266 72.3519C65.4641 72.5429 64.7056 72.0917 64.4509 70.9981C64.3024 70.3823 64.2759 69.7506 64.3714 69.103C64.3714 69.0498 64.3714 69.0127 64.3714 68.9914C64.4669 67.8766 64.6631 66.7671 64.9602 65.6629C65.2679 64.5693 65.6074 63.4704 65.9787 62.3662C67.1776 59.0536 68.4985 55.7835 69.9413 52.5557C70.0157 52.4178 70.074 52.2797 70.1165 52.1417C70.1907 51.9825 70.2703 51.8179 70.3552 51.648C70.4718 51.4144 70.578 51.1809 70.6735 50.9473C70.7689 50.7137 70.806 50.4695 70.7848 50.2146C70.6682 50.1191 70.5515 50.0607 70.4347 50.0395C70.318 50.0183 70.2013 50.0183 70.0846 50.0395C70.0634 50.0395 70.0368 50.0395 70.005 50.0395C69.0078 50.0395 68.0051 50.0501 66.9973 50.0713C66.7214 50.0713 66.4296 50.0713 66.1219 50.0713C65.7506 50.0925 65.4376 50.2093 65.1829 50.4218C64.9284 50.6341 64.6844 50.8941 64.4509 51.202C64.1432 51.595 63.8356 51.9878 63.5279 52.3806C62.2229 54.0475 60.9073 55.6986 59.5811 57.3336C57.6184 59.7119 55.5654 62.0052 53.4223 64.2136C51.2898 66.4221 49.0246 68.4924 46.6269 70.4248C43.6137 72.9092 40.4149 75.0965 37.0305 76.9863C31.853 79.768 26.4262 81.0846 20.7501 80.936C15.4029 80.8191 10.5808 79.3752 6.28396 76.6041C5.07447 75.829 4.00291 74.8947 3.06927 73.8012C2.4433 73.0261 1.94995 72.1873 1.58923 71.2848C1.21789 70.3929 1.03223 69.4214 1.03223 68.3703C1.08527 67.1068 1.37704 65.9389 1.90752 64.8666C2.42739 63.7836 3.15414 62.8016 4.08779 61.9203C5.37154 60.678 6.78261 59.627 8.321 58.7669C9.81695 57.8964 11.3606 57.1372 12.9521 56.4895C14.533 55.8312 16.1297 55.2473 17.7423 54.7377C20.3523 53.8989 22.9888 53.1929 25.6517 52.6195C28.3147 52.0462 30.9883 51.5578 33.6725 51.1543C40.0383 50.273 46.4199 49.6891 52.8175 49.4025C56.0853 49.2007 59.3424 49.0998 62.589 49.0998C63.4802 49.1211 64.1697 48.7442 64.6578 47.9691C65.5172 46.7587 66.3819 45.543 67.2518 44.322C68.5993 42.4534 69.9255 40.5529 71.2305 38.6206C77.2991 29.5533 83.1132 20.3375 88.6725 10.973C89.1394 10.1766 89.5956 9.36971 90.0412 8.55217C90.2534 8.1381 90.4762 7.71871 90.7096 7.29401C90.9854 6.75254 91.4257 6.44994 92.0305 6.38623C92.3594 6.38623 92.5981 6.48179 92.7466 6.67291C92.9058 6.8534 92.927 7.0976 92.8103 7.4055C92.6936 7.66032 92.5609 7.90452 92.4124 8.1381C91.5106 9.75194 90.7096 11.387 90.0094 13.0433C89.7442 13.6273 89.4842 14.2006 89.2295 14.7633C86.7788 20.0826 84.3174 25.4072 81.8454 30.7371C79.9568 34.8461 78.0524 38.9655 76.1321 43.0958C75.5804 44.3167 75.0339 45.5324 74.4929 46.7428C74.3762 46.9976 74.2594 47.2418 74.1427 47.4754C74.1216 47.5285 74.1004 47.5868 74.0791 47.6505C74.0049 47.8205 73.9412 47.9903 73.8881 48.1602C73.8457 48.3195 73.8616 48.4787 73.9359 48.638C74.0951 48.7548 74.2807 48.8184 74.4929 48.8291C74.7051 48.8397 74.9014 48.8451 75.0817 48.8451C75.2302 48.8238 75.3629 48.8132 75.4796 48.8132C76.3601 48.8344 77.2461 48.8344 78.1373 48.8132C79.3468 48.8132 80.5615 48.8238 81.7817 48.8451C88.402 48.9618 95.0278 49.1051 101.659 49.2751C103.834 49.3175 105.993 49.4077 108.136 49.5458C108.327 49.567 108.528 49.5776 108.741 49.5776C108.857 49.5776 108.984 49.5776 109.122 49.5776C109.398 49.5776 109.663 49.6042 109.918 49.6572C110.184 49.6997 110.432 49.79 110.666 49.9281C110.708 49.9598 110.741 50.013 110.761 50.0872C110.783 50.1509 110.783 50.2041 110.761 50.2465C110.761 50.3209 110.73 50.3899 110.666 50.4535C110.613 50.5067 110.566 50.5438 110.522 50.565C110.332 50.6393 110.13 50.6765 109.918 50.6765ZM62.4775 50.8517C62.5518 50.703 62.5572 50.5704 62.4935 50.4535C62.4404 50.3367 62.3449 50.2783 62.207 50.2783C61.9948 50.2571 61.772 50.2571 61.5386 50.2783C61.4219 50.2783 61.3052 50.2783 61.1885 50.2783C53.1782 50.3739 45.1627 50.926 37.1419 51.9347C34.0757 52.3063 31.0255 52.7947 27.9911 53.3999C24.9568 54.0051 21.949 54.7642 18.9677 55.6772C17.3762 56.1657 15.806 56.7284 14.257 57.3655C12.7081 57.9918 11.1962 58.7404 9.72146 59.611C8.18308 60.471 6.78261 61.5221 5.52007 62.7644C4.04534 64.2827 3.21779 65.8965 3.03744 67.6059C2.84647 69.3258 3.30268 70.9822 4.40606 72.5748C5.22301 73.6896 6.19908 74.6452 7.33431 75.4414C11.4721 78.3825 16.4002 79.8796 22.1188 79.9326C23.5828 79.9326 25.2645 79.7415 27.1636 79.3593C29.0521 78.9664 30.8769 78.3878 32.6381 77.6234C34.3993 76.8695 36.1075 75.9777 37.7626 74.9477C41.8473 72.4315 45.6295 69.5011 49.1095 66.1566C51.5178 63.8951 53.7883 61.5168 55.9209 59.0217C58.0533 56.516 60.1222 53.9679 62.1274 51.3773C62.2442 51.1862 62.3608 51.0109 62.4775 50.8517ZM72.2172 47.555C73.7555 44.0513 75.3416 40.5582 76.9755 37.0757C77.0498 36.8846 77.2938 36.3378 77.7076 35.4353C78.132 34.5222 78.6147 33.4657 79.1558 32.266C79.7075 31.0557 80.2115 29.9142 80.6677 28.8419C81.1239 27.7696 81.4422 26.968 81.6225 26.4371C81.8135 25.8957 81.7604 25.8425 81.4634 26.2778C81.3891 26.3734 81.3307 26.469 81.2884 26.5645C81.0337 26.9361 80.7897 27.3077 80.5562 27.6793C78.6147 30.6946 76.6626 33.7047 74.6998 36.7093C72.737 39.7141 70.7053 42.6763 68.6046 45.5961C68.403 45.8722 68.1961 46.1641 67.9839 46.472C67.5808 47.0242 67.1829 47.5815 66.7903 48.1443C66.6312 48.3779 66.5834 48.5742 66.6471 48.7335C66.7214 48.8821 66.8858 48.9565 67.1404 48.9565C67.5648 48.9565 67.9839 48.9459 68.3977 48.9247C69.0555 48.8716 69.708 48.8451 70.3552 48.8451C70.8538 48.8663 71.241 48.7601 71.5169 48.5265C71.7927 48.2929 72.0262 47.9691 72.2172 47.555ZM82.0522 57.6362C82.4024 57.2858 82.6941 57.0894 82.9275 57.0469C83.1609 57.0044 83.3094 57.0416 83.3731 57.1584C83.4474 57.2752 83.4049 57.4344 83.2458 57.6362C82.3121 58.7617 81.267 59.7331 80.1107 60.5507C78.9542 61.3682 77.7606 61.8407 76.5299 61.9681C75.3098 62.0955 74.5724 61.4266 74.3178 59.9614C74.1269 58.5068 75.0074 55.5446 76.9596 51.0746C78.9118 46.6048 80.4555 42.9418 81.5907 40.0857C81.6862 39.8308 81.8294 39.608 82.0204 39.4168C82.275 39.162 82.5774 39.1036 82.9275 39.2417C83.0442 39.2947 83.1609 39.3797 83.2776 39.4964C83.3943 39.6132 83.4314 39.8203 83.389 40.1175C78.3707 52.0302 75.9411 58.5068 76.1003 59.5473C76.2594 60.5878 76.9278 60.8479 78.1055 60.3277C79.2937 59.7968 80.2062 59.2606 80.8427 58.7192C81.4899 58.1671 81.893 57.806 82.0522 57.6362ZM92.2533 57.5406C90.8316 59.2182 89.4365 60.4551 88.0678 61.2514C86.7098 62.0477 85.251 62.3132 83.6914 62.0477C82.1424 61.7716 81.5058 60.7259 81.7817 58.9103C81.9726 57.9972 82.2326 57.1053 82.5614 56.2347C83.3784 54.2068 84.2059 52.1895 85.0441 50.1828C85.3199 49.4609 85.6118 48.7335 85.9194 48.001C85.9936 47.8417 86.0626 47.6824 86.1263 47.5231C86.243 47.2577 86.3596 46.987 86.4764 46.711C86.6461 46.2438 86.4605 45.9996 85.9194 45.9783C85.6118 45.9783 85.3093 45.9783 85.0123 45.9783C84.8743 45.9783 84.7205 45.9783 84.5508 45.9783C84.3916 45.9996 84.2271 46.0208 84.0574 46.042C83.7816 46.0633 83.5057 46.0739 83.2299 46.0739C82.9646 46.0739 82.7152 46.0049 82.4819 45.8669C82.4182 45.8457 82.3652 45.8085 82.3227 45.7554C82.2909 45.6917 82.275 45.6227 82.275 45.5483C82.2962 45.5059 82.328 45.4581 82.3705 45.405C82.4235 45.3413 82.4872 45.2988 82.5614 45.2776C82.7949 45.182 83.0389 45.113 83.2935 45.0706C83.9513 45.0387 84.6038 45.0122 85.251 44.9909C85.5056 44.9909 85.7284 44.9909 85.9194 44.9909C86.3438 44.9909 86.6568 44.975 86.8583 44.9432C87.0705 44.9113 87.2403 44.7999 87.3676 44.6087C87.4949 44.4176 87.6435 44.1256 87.8132 43.7328C87.9087 43.5204 88.0253 43.2869 88.1633 43.0321C88.5135 42.2888 88.8635 41.5296 89.2137 40.7547C89.3728 40.4042 89.5372 40.0645 89.707 39.7354C89.8449 39.4062 90.0624 39.1513 90.3595 38.9709C90.6459 38.8329 90.8952 38.8434 91.1075 39.0027C91.1711 39.0452 91.2189 39.1143 91.2507 39.2098C91.2931 39.3053 91.3144 39.3903 91.3144 39.4646C91.3144 39.8787 91.2082 40.2875 90.996 40.6909C90.9537 40.7759 90.9059 40.8768 90.8529 40.9935C90.7149 41.3757 90.5664 41.7633 90.4072 42.1561C90.0995 42.8781 89.8078 43.616 89.532 44.3698C89.4577 44.5078 89.4524 44.6299 89.516 44.7362C89.5903 44.8423 89.6964 44.8953 89.8343 44.8953C90.5876 44.9166 91.3249 44.9272 92.0464 44.9272C92.4177 44.9272 92.7891 44.9272 93.1604 44.9272C94.3274 44.9485 94.7943 45.113 94.5609 45.4209C94.4018 45.6015 94.2266 45.7076 94.0357 45.7394C93.8553 45.7606 93.6697 45.7554 93.4787 45.7236C93.3619 45.7236 93.2453 45.7236 93.1286 45.7236C91.9404 45.7978 90.7627 45.8457 89.5957 45.8669C89.0545 45.8669 88.6938 46.111 88.5135 46.5994C88.3225 47.0666 88.1368 47.5338 87.9565 48.001C87.6912 48.6168 87.4418 49.2167 87.2085 49.8006C86.975 50.3527 86.7416 50.9101 86.5083 51.4729C85.9035 52.8955 85.3199 54.3236 84.7576 55.7569C84.4076 56.6913 84.1317 57.6469 83.9301 58.6236C83.4845 60.3967 84.1688 61.0763 85.9831 60.6621C87.7655 60.2375 89.6327 58.9527 91.5849 56.8081C92.4337 56.2665 92.6564 56.5107 92.2533 57.5406ZM104.269 57.8114C104.078 57.9813 103.876 58.1352 103.664 58.2732C102.985 58.698 102.37 59.0324 101.818 59.2766C101.277 59.5208 100.635 59.7703 99.8922 60.0251C98.7888 60.3542 98.078 60.2799 97.7597 59.8022C97.452 59.3243 97.4042 58.6608 97.6165 57.8114C97.9135 56.601 98.0832 55.7144 98.1257 55.1517C98.1787 54.5891 97.993 54.3979 97.5687 54.5784C97.155 54.7482 96.3963 55.327 95.2929 56.3144C93.7546 57.6415 92.4389 59.1598 91.3462 60.8691C91.2082 61.1028 91.0385 61.2939 90.8369 61.4425C90.6354 61.5912 90.386 61.6655 90.089 61.6655C89.8025 61.6655 89.5957 61.5912 89.4683 61.4425C89.341 61.2939 89.3357 61.0921 89.4524 60.8373C90.0783 59.4571 90.7202 58.0874 91.378 56.7284C92.5026 54.3714 93.6113 52.025 94.7041 49.6891C95.5211 47.9372 96.3273 46.1854 97.1231 44.4335C97.6112 43.4037 98.0885 42.3737 98.5554 41.3438C98.5978 41.2589 98.6455 41.1687 98.6987 41.0731C98.741 40.9563 98.7888 40.8396 98.8419 40.7228C98.9055 40.6059 98.9745 40.4785 99.0487 40.3405C99.1124 40.2238 99.229 40.1282 99.3989 40.0538C99.5792 39.9796 99.7542 39.9317 99.924 39.9105C100.104 39.8893 100.242 39.8999 100.338 39.9424C100.476 40.038 100.55 40.1387 100.561 40.245C100.582 40.3512 100.566 40.4626 100.513 40.5794C100.492 40.6007 100.481 40.6378 100.481 40.6909C100.269 41.3173 100.046 41.9225 99.8126 42.5065C98.4652 45.7554 96.9958 48.9565 95.4043 52.1099C95.2876 52.3222 95.1498 52.5771 94.9906 52.8743C94.7571 53.299 94.5396 53.7184 94.3381 54.1324C94.1365 54.5359 94.0676 54.8067 94.1312 54.9447C94.2054 55.0828 94.5238 54.9765 95.0861 54.6261C95.2558 54.5094 95.4096 54.3926 95.5476 54.2758C95.9931 53.9785 96.4335 53.6971 96.8685 53.4317C97.2504 53.1769 97.6748 53.0389 98.1416 53.0176C99.2557 52.9433 99.8816 53.4477 100.02 54.5306C100.073 54.9659 100.057 55.3959 99.9717 55.8207C99.8869 56.2453 99.7861 56.6647 99.6694 57.0788C99.6482 57.1955 99.6269 57.3123 99.6057 57.4292C99.4147 58.1511 99.4625 58.5652 99.749 58.6713C100.046 58.7776 100.455 58.7192 100.974 58.4962C101.505 58.2732 102.041 58.0025 102.582 57.6839C102.953 57.4929 103.277 57.3283 103.552 57.1902C103.839 57.0523 104.051 56.9939 104.189 57.0151C104.444 57.0576 104.56 57.1637 104.539 57.3336C104.518 57.4929 104.428 57.6521 104.269 57.8114ZM115.043 57.1265C115.297 57.2646 115.319 57.6097 115.106 58.1618C114.799 58.5652 114.469 58.9422 114.12 59.2925C113.77 59.6429 113.387 59.9561 112.973 60.2321C112.942 60.2321 112.926 60.2428 112.926 60.264C112.65 60.4551 112.359 60.6196 112.051 60.7577C109.515 61.6708 108.221 61.1346 108.168 59.1492C107.139 60.041 106.449 60.5878 106.099 60.7896C105.261 61.2886 104.353 61.5115 103.377 61.4584C102.656 61.416 102.168 61.1984 101.913 60.8054C101.648 60.402 101.669 59.8605 101.977 59.181C102.444 58.1087 103.107 57.1531 103.966 56.3144C104.974 55.38 106.093 54.6315 107.324 54.0687C107.982 53.7396 108.671 53.6122 109.393 53.6866C110.114 53.729 110.55 54.1378 110.698 54.9128C110.761 55.1465 110.703 55.3535 110.522 55.534C110.29 55.7463 110.019 55.7941 109.711 55.6772C109.69 55.6772 109.659 55.672 109.615 55.6614C109.584 55.6507 109.558 55.6348 109.536 55.6135C109.229 55.1889 108.916 55.0137 108.597 55.088C108.29 55.1517 107.961 55.2898 107.611 55.5021C105.977 56.4577 104.762 57.7901 103.966 59.4996C103.924 59.5738 103.897 59.6587 103.887 59.7543C103.876 59.8393 103.903 59.9083 103.966 59.9614C104.157 60.0251 104.369 60.0145 104.603 59.9296C104.836 59.834 105.07 59.7013 105.303 59.5314C105.536 59.3508 105.733 59.2022 105.892 59.0855C105.913 59.0536 105.924 59.0377 105.924 59.0377C106.698 58.3901 107.457 57.7264 108.2 57.0469C108.528 56.6965 108.936 56.5002 109.425 56.4577C110.125 56.4577 110.417 56.7709 110.3 57.3973C110.237 57.6309 110.167 57.8645 110.093 58.098C109.817 59.1067 109.807 59.7013 110.062 59.8817C110.316 60.0517 110.703 60.0517 111.223 59.8817C111.753 59.7013 112.279 59.3668 112.799 58.8785C113.329 58.3794 113.775 57.9281 114.136 57.5248C114.497 57.1106 114.799 56.9779 115.043 57.1265ZM126.739 56.8718C126.506 56.9673 126.263 57.0469 126.007 57.1106C125.944 57.1425 125.886 57.169 125.832 57.1902C125.578 57.2858 125.323 57.376 125.069 57.461C124.347 57.6946 123.61 57.9441 122.857 58.2095C122.294 58.3688 121.854 58.7192 121.536 59.2606C121.016 60.0994 120.363 60.7524 119.578 61.2196C118.804 61.6867 118.013 62.0212 117.207 62.2228C116.401 62.414 115.684 62.5361 115.058 62.5892C114.443 62.6316 114.046 62.6423 113.865 62.6211C113.844 62.6211 113.818 62.6211 113.785 62.6211C113.531 62.7803 113.277 63.0935 113.021 63.5607C112.767 64.0278 112.544 64.4472 112.353 64.8188C112.311 64.9144 112.279 64.9994 112.258 65.0736C111.207 67.1759 110.167 69.2781 109.138 71.3804C108.555 72.5482 107.971 73.7161 107.388 74.8841C107.197 75.2981 106.974 75.6963 106.719 76.0785C106.486 76.3758 106.194 76.4342 105.844 76.2537C105.611 76.0839 105.552 75.8502 105.669 75.553C105.786 75.2451 105.913 74.9372 106.051 74.6293C107.876 70.308 109.812 66.0345 111.86 61.8088C112.497 60.5029 113.096 59.1704 113.658 57.8114C113.913 57.185 114.178 56.5426 114.454 55.8844C114.475 55.8207 114.512 55.7516 114.565 55.6772C114.703 55.327 114.867 54.9872 115.058 54.658C115.143 54.5412 115.303 54.467 115.536 54.4351C115.77 54.4033 115.971 54.4351 116.14 54.5306C116.353 54.6686 116.459 54.8756 116.459 55.1517C116.459 55.2898 116.433 55.4331 116.379 55.5817C116.337 55.6986 116.311 55.8153 116.3 55.9321C116.289 56.0489 116.326 56.1657 116.411 56.2825C116.581 56.3037 116.729 56.2825 116.857 56.2188C116.985 56.1444 117.106 56.0595 117.222 55.964C117.34 55.8684 117.478 55.7993 117.636 55.7569C117.732 55.7039 117.828 55.6561 117.923 55.6135C118.433 55.38 118.937 55.1783 119.435 55.0084C120.082 54.8067 120.724 54.8544 121.361 55.1517C121.637 55.3216 121.843 55.5286 121.981 55.7728C122.119 56.017 122.225 56.2772 122.299 56.5532C122.374 56.7656 122.564 56.8771 122.873 56.8876C123.191 56.8983 123.541 56.8611 123.922 56.7762C124.316 56.6806 124.671 56.5851 124.989 56.4895C125.254 56.4151 125.446 56.3674 125.562 56.3462C125.88 56.2718 126.204 56.2506 126.533 56.2825C126.629 56.2825 126.713 56.2984 126.787 56.3302C126.872 56.3621 126.914 56.447 126.914 56.5851C126.914 56.6381 126.899 56.6965 126.867 56.7602C126.835 56.8134 126.793 56.8505 126.739 56.8718ZM120.056 57.9229C120.268 57.7848 120.395 57.5566 120.437 57.2381C120.49 56.9195 120.459 56.6116 120.343 56.3144C120.289 56.2188 120.214 56.1551 120.119 56.1232C120.034 56.0807 119.944 56.0595 119.848 56.0595C119.658 56.0914 119.472 56.1498 119.292 56.2347C117.329 57.2221 115.743 58.6236 114.534 60.4392C114.3 60.8638 114.326 61.055 114.613 61.0126C114.911 60.9594 115.351 60.7789 115.934 60.471C116.517 60.1525 117.122 59.7915 117.748 59.388C118.374 58.974 118.91 58.6236 119.355 58.3369C119.758 58.0822 119.992 57.9441 120.056 57.9229ZM137.355 57.1265C137.609 57.2646 137.631 57.6097 137.418 58.1618C137.11 58.5652 136.781 58.9422 136.431 59.2925C136.082 59.6429 135.699 59.9561 135.285 60.2321C135.254 60.2321 135.237 60.2428 135.237 60.264C134.963 60.4551 134.67 60.6196 134.363 60.7577C131.827 61.6708 130.532 61.1346 130.48 59.1492C129.45 60.041 128.761 60.5878 128.41 60.7896C127.573 61.2886 126.666 61.5115 125.689 61.4584C124.968 61.416 124.48 61.1984 124.226 60.8054C123.96 60.402 123.981 59.8605 124.289 59.181C124.756 58.1087 125.418 57.1531 126.278 56.3144C127.286 55.38 128.405 54.6315 129.636 54.0687C130.294 53.7396 130.983 53.6122 131.706 53.6866C132.427 53.729 132.861 54.1378 133.01 54.9128C133.073 55.1465 133.016 55.3535 132.835 55.534C132.602 55.7463 132.331 55.7941 132.023 55.6772C132.002 55.6772 131.971 55.672 131.928 55.6614C131.896 55.6507 131.87 55.6348 131.848 55.6135C131.54 55.1889 131.227 55.0137 130.909 55.088C130.602 55.1517 130.273 55.2898 129.923 55.5021C128.289 56.4577 127.074 57.7901 126.278 59.4996C126.235 59.5738 126.209 59.6587 126.198 59.7543C126.188 59.8393 126.215 59.9083 126.278 59.9614C126.469 60.0251 126.681 60.0145 126.914 59.9296C127.148 59.834 127.382 59.7013 127.615 59.5314C127.849 59.3508 128.044 59.2022 128.204 59.0855C128.225 59.0536 128.235 59.0377 128.235 59.0377C129.01 58.3901 129.768 57.7264 130.512 57.0469C130.841 56.6965 131.249 56.5002 131.737 56.4577C132.437 56.4577 132.729 56.7709 132.612 57.3973C132.549 57.6309 132.479 57.8645 132.405 58.098C132.129 59.1067 132.118 59.7013 132.374 59.8817C132.628 60.0517 133.016 60.0517 133.535 59.8817C134.065 59.7013 134.591 59.3668 135.11 58.8785C135.642 58.3794 136.087 57.9281 136.448 57.5248C136.808 57.1106 137.11 56.9779 137.355 57.1265ZM144.022 55.4544C143.928 56.1869 143.582 56.6647 142.988 56.8876C142.394 57.1106 142.198 56.8186 142.399 56.0118C142.612 55.2049 142.251 55.0031 141.317 55.4065C140.384 55.7993 139.615 56.2984 139.01 56.9036C138.076 57.8592 137.248 58.889 136.527 59.9933C136.453 60.0888 136.394 60.1684 136.352 60.2321C136.14 60.54 135.927 60.832 135.715 61.1081C135.577 61.2991 135.418 61.4212 135.237 61.4744C135.047 61.5168 134.856 61.5221 134.665 61.4903C134.485 61.4691 134.347 61.4 134.251 61.2833C134.155 61.1665 134.146 61.0284 134.219 60.8691C134.336 60.5826 134.474 60.2905 134.633 59.9933C135.588 58.2201 136.559 56.4418 137.545 54.658C137.567 54.6368 137.578 54.6156 137.578 54.5943C137.716 54.3182 137.88 54.0635 138.071 53.8299C138.283 53.5963 138.527 53.5008 138.803 53.5432C139.079 53.5857 139.265 53.7503 139.359 54.0369C139.477 54.4085 139.578 54.6209 139.662 54.674C139.747 54.7164 139.938 54.6793 140.235 54.5624C140.872 54.3289 141.492 54.1643 142.097 54.0687C142.702 53.9733 143.195 53.9998 143.577 54.1484C143.97 54.2864 144.118 54.7217 144.022 55.4544ZM151.98 55.4544C151.885 56.1869 151.539 56.6647 150.945 56.8876C150.352 57.1106 150.155 56.8186 150.356 56.0118C150.569 55.2049 150.208 55.0031 149.274 55.4065C148.341 55.7993 147.572 56.2984 146.966 56.9036C146.033 57.8592 145.205 58.889 144.484 59.9933C144.41 60.0888 144.351 60.1684 144.309 60.2321C144.097 60.54 143.884 60.832 143.672 61.1081C143.534 61.2991 143.376 61.4212 143.195 61.4744C143.004 61.5168 142.813 61.5221 142.622 61.4903C142.441 61.4691 142.304 61.4 142.208 61.2833C142.113 61.1665 142.103 61.0284 142.176 60.8691C142.294 60.5826 142.432 60.2905 142.59 59.9933C143.545 58.2201 144.517 56.4418 145.503 54.658C145.524 54.6368 145.535 54.6156 145.535 54.5943C145.673 54.3182 145.837 54.0635 146.028 53.8299C146.24 53.5963 146.484 53.5008 146.76 53.5432C147.036 53.5857 147.222 53.7503 147.317 54.0369C147.434 54.4085 147.535 54.6209 147.619 54.674C147.704 54.7164 147.895 54.6793 148.192 54.5624C148.829 54.3289 149.45 54.1643 150.054 54.0687C150.659 53.9733 151.152 53.9998 151.534 54.1484C151.927 54.2864 152.076 54.7217 151.98 55.4544ZM154.829 61.4584H154.781C153.243 61.4372 152.229 61.0975 151.741 60.4392C151.253 59.7703 151.274 58.8838 151.804 57.7795C152.251 56.9407 152.812 56.2081 153.491 55.5817C153.725 55.3694 153.964 55.1995 154.207 55.0721C154.452 54.9447 154.728 54.881 155.035 54.881C155.216 54.8491 155.423 54.881 155.656 54.9765C155.731 54.9977 155.804 55.0244 155.878 55.0561C156.06 55.0244 156.235 54.9659 156.404 54.881C156.447 54.8491 156.505 54.8226 156.579 54.8014C156.929 54.6633 157.3 54.6049 157.693 54.6261C157.852 54.6261 158.016 54.6261 158.187 54.6261C158.813 54.7217 159.284 54.9872 159.603 55.4225C159.921 55.8472 160.033 56.3674 159.937 56.9832C159.884 57.3548 159.768 57.7052 159.587 58.0343C158.367 60.2215 156.813 61.3629 154.924 61.4584H154.829ZM157.343 55.7569C156.505 55.7251 155.757 55.9693 155.099 56.4895C154.452 56.9992 153.97 57.5885 153.651 58.2573C153.333 58.9262 153.243 59.4783 153.381 59.9136C153.528 60.3383 153.975 60.4551 154.717 60.264C155.556 60.0092 156.292 59.5314 156.929 58.8306C157.576 58.1299 157.969 57.4663 158.107 56.8399C158.255 56.2028 158.001 55.8419 157.343 55.7569ZM255.01 19.2704C255.286 19.504 255.535 19.7694 255.757 20.0667C255.98 20.3534 256.123 20.6984 256.188 21.1019C256.261 21.5478 256.102 21.8875 255.709 22.1212C255.476 22.2379 255.248 22.2539 255.025 22.1689C254.802 22.084 254.644 21.9141 254.548 21.6593C254.293 20.9585 253.906 20.4064 253.386 20.0029C252.877 19.5889 252.32 19.2279 251.715 18.92C250.378 18.2193 248.999 17.6513 247.578 17.216C246.155 16.77 244.724 16.3825 243.281 16.0533C240.872 15.5437 237.663 15.2145 233.652 15.0659C229.653 14.9066 225.196 14.965 220.285 15.2412C215.372 15.5065 210.343 16.0321 205.197 16.8178C200.052 17.5928 195.124 18.6652 190.413 20.0348C185.713 21.3938 181.581 23.0926 178.015 25.1311C174.462 27.1591 171.81 29.5533 170.058 32.3138C168.595 34.7133 168.303 37.2456 169.184 39.9105C169.82 41.7367 170.732 43.3983 171.92 44.8953C173.692 47.1356 175.656 49.19 177.809 51.0588C179.623 52.715 181.454 54.3714 183.3 56.0277C185.092 57.6202 186.89 59.2341 188.695 60.8691C190.699 62.7165 192.673 64.5853 194.615 66.4752C194.795 66.6556 194.981 66.8308 195.171 67.0007C196.221 67.9775 197.145 69.0605 197.94 70.2497C198.757 71.6087 198.911 72.6598 198.402 73.4029C197.903 74.1568 196.948 74.6665 195.537 74.9319C194.127 75.1973 192.487 75.2769 190.62 75.1707C188.752 75.0752 186.87 74.8416 184.971 74.47C183.082 74.1091 181.401 73.6737 179.925 73.164C178.462 72.6545 177.426 72.1289 176.822 71.5874C175.613 70.462 175.533 69.2728 176.583 68.02C177.719 66.7352 179.103 65.801 180.737 65.217C183.103 64.3039 185.495 64.2295 187.915 64.994C188.381 65.1639 188.827 65.3869 189.251 65.6629C189.293 65.6841 189.331 65.7107 189.363 65.7426C189.479 65.8062 189.558 65.9018 189.602 66.0292C189.644 66.1566 189.623 66.2947 189.538 66.4433C189.347 66.6768 189.113 66.7459 188.837 66.6503C188.572 66.5547 188.323 66.438 188.09 66.2999C186.413 65.4612 184.689 65.286 182.917 65.7743C181.145 66.2628 179.649 67.2289 178.429 68.673C177.899 69.3737 177.873 69.9842 178.35 70.5044C178.828 71.0353 179.554 71.4813 180.53 71.8422C181.517 72.2138 182.503 72.5005 183.491 72.7022C184.487 72.9145 185.23 73.0579 185.718 73.1322C185.814 73.1322 185.883 73.1428 185.925 73.164C186.021 73.164 186.137 73.1747 186.275 73.1959C186.901 73.334 187.755 73.4773 188.837 73.6259C189.93 73.7852 191.054 73.8914 192.211 73.9445C193.367 74.0082 194.359 73.9338 195.187 73.7215C196.015 73.5091 196.482 73.1003 196.588 72.4952C196.694 71.8899 196.232 70.9929 195.203 69.8037C194.111 68.5402 192.954 67.3139 191.733 66.1248C188.699 63.1837 185.585 60.333 182.392 57.5725C181.246 56.5426 180.1 55.5128 178.955 54.4828C177.045 52.7629 175.167 51.0004 173.321 49.1954C171.613 47.5391 170.106 45.7182 168.801 43.7328C167.868 42.2888 167.215 40.7333 166.844 39.0664C166.282 36.3378 166.786 33.8161 168.356 31.5016C170.075 28.9109 172.568 26.6176 175.836 24.6216C179.103 22.6254 182.891 20.9214 187.199 19.5092C191.505 18.0972 196.094 16.9558 200.965 16.0852C205.834 15.204 210.751 14.5828 215.717 14.2219C220.693 13.8503 225.461 13.7229 230.024 13.8396C234.586 13.9564 238.714 14.3015 242.405 14.8748C246.108 15.4482 249.142 16.2391 251.508 17.2478C252.76 17.7362 253.928 18.4104 255.01 19.2704ZM198.784 61.4584H198.737C197.198 61.4372 196.185 61.0975 195.697 60.4392C195.209 59.7703 195.23 58.8838 195.76 57.7795C196.206 56.9407 196.768 56.2081 197.447 55.5817C197.681 55.3694 197.92 55.1995 198.163 55.0721C198.407 54.9447 198.683 54.881 198.991 54.881C199.171 54.8491 199.379 54.881 199.611 54.9765C199.686 54.9977 199.76 55.0244 199.834 55.0561C200.014 55.0244 200.19 54.9659 200.36 54.881C200.402 54.8491 200.461 54.8226 200.535 54.8014C200.884 54.6633 201.256 54.6049 201.648 54.6261C201.808 54.6261 201.972 54.6261 202.141 54.6261C202.768 54.7217 203.24 54.9872 203.558 55.4225C203.876 55.8472 203.988 56.3674 203.893 56.9832C203.839 57.3548 203.723 57.7052 203.543 58.0343C202.323 60.2215 200.768 61.3629 198.88 61.4584H198.784ZM201.298 55.7569C200.461 55.7251 199.712 55.9693 199.055 56.4895C198.407 56.9992 197.925 57.5885 197.607 58.2573C197.288 58.9262 197.198 59.4783 197.336 59.9136C197.484 60.3383 197.93 60.4551 198.672 60.264C199.511 60.0092 200.248 59.5314 200.884 58.8306C201.532 58.1299 201.924 57.4663 202.062 56.8399C202.211 56.2028 201.957 55.8419 201.298 55.7569ZM212.359 55.4544C212.264 56.1869 211.919 56.6647 211.325 56.8876C210.731 57.1106 210.534 56.8186 210.736 56.0118C210.948 55.2049 210.587 55.0031 209.654 55.4065C208.72 55.7993 207.95 56.2984 207.346 56.9036C206.412 57.8592 205.584 58.889 204.863 59.9933C204.789 60.0888 204.73 60.1684 204.688 60.2321C204.476 60.54 204.264 60.832 204.051 61.1081C203.913 61.2991 203.755 61.4212 203.574 61.4744C203.383 61.5168 203.192 61.5221 203.002 61.4903C202.821 61.4691 202.683 61.4 202.588 61.2833C202.492 61.1665 202.481 61.0284 202.555 60.8691C202.673 60.5826 202.811 60.2905 202.969 59.9933C203.924 58.2201 204.895 56.4418 205.882 54.658C205.903 54.6368 205.913 54.6156 205.913 54.5943C206.051 54.3182 206.215 54.0635 206.407 53.8299C206.62 53.5963 206.863 53.5008 207.139 53.5432C207.415 53.5857 207.601 53.7503 207.696 54.0369C207.812 54.4085 207.914 54.6209 207.998 54.674C208.083 54.7164 208.274 54.6793 208.571 54.5624C209.207 54.3289 209.829 54.1643 210.433 54.0687C211.038 53.9733 211.531 53.9998 211.914 54.1484C212.306 54.2864 212.455 54.7217 212.359 55.4544ZM218.995 58.528C218.433 59.1969 217.764 59.8127 216.989 60.3754C216.216 60.9382 215.34 61.3204 214.364 61.5221C213.388 61.7133 212.63 61.6389 212.089 61.2991C211.548 60.9594 211.441 60.2056 211.77 59.0377C212.194 57.8273 212.778 56.6753 213.521 55.5817C213.69 55.3482 213.934 55.1835 214.253 55.088C214.486 55.0349 214.687 55.0774 214.858 55.2154C215.038 55.3428 215.107 55.5074 215.064 55.7091C214.906 56.0914 214.73 56.4736 214.54 56.8558C214.348 57.2381 214.221 57.4876 214.157 57.6043C213.786 58.2839 213.526 58.9952 213.377 59.7384C213.377 60.1631 213.945 60.1896 215.081 59.818C216.216 59.4464 217.319 58.7669 218.391 57.7795C219.462 56.7815 219.972 56.4895 219.918 56.9036C219.876 57.3071 219.569 57.8485 218.995 58.528ZM216.226 53.1929C216.174 53.2353 216.062 53.2884 215.892 53.3521C215.732 53.4052 215.558 53.4477 215.366 53.4795C215.186 53.5008 215.044 53.4689 214.937 53.384C214.831 53.299 214.825 53.1291 214.921 52.8743C215.09 52.4284 215.266 52.0408 215.447 51.7117C215.637 51.372 215.881 51.0004 216.178 50.5969C216.369 50.4164 216.577 50.3209 216.799 50.3102C217.022 50.289 217.208 50.3474 217.356 50.4854C217.504 50.6128 217.547 50.7934 217.484 51.0269C217.25 51.8657 216.831 52.5876 216.226 53.1929ZM230.422 57.1265C230.676 57.2646 230.698 57.6097 230.485 58.1618C230.178 58.5652 229.848 58.9422 229.498 59.2925C229.149 59.6429 228.766 59.9561 228.352 60.2321C228.321 60.2321 228.306 60.2428 228.306 60.264C228.03 60.4551 227.737 60.6196 227.43 60.7577C224.894 61.6708 223.599 61.1346 223.547 59.1492C222.517 60.041 221.828 60.5878 221.477 60.7896C220.64 61.2886 219.733 61.5115 218.756 61.4584C218.035 61.416 217.547 61.1984 217.293 60.8054C217.027 60.402 217.048 59.8605 217.356 59.181C217.823 58.1087 218.485 57.1531 219.345 56.3144C220.353 55.38 221.472 54.6315 222.703 54.0687C223.361 53.7396 224.051 53.6122 224.773 53.6866C225.494 53.729 225.929 54.1378 226.077 54.9128C226.14 55.1465 226.083 55.3535 225.902 55.534C225.669 55.7463 225.398 55.7941 225.091 55.6772C225.069 55.6772 225.038 55.672 224.995 55.6614C224.963 55.6507 224.937 55.6348 224.915 55.6135C224.607 55.1889 224.295 55.0137 223.976 55.088C223.669 55.1517 223.34 55.2898 222.99 55.5021C221.356 56.4577 220.141 57.7901 219.345 59.4996C219.302 59.5738 219.276 59.6587 219.266 59.7543C219.255 59.8393 219.282 59.9083 219.345 59.9614C219.536 60.0251 219.749 60.0145 219.981 59.9296C220.215 59.834 220.449 59.7013 220.682 59.5314C220.916 59.3508 221.111 59.2022 221.271 59.0855C221.292 59.0536 221.303 59.0377 221.303 59.0377C222.077 58.3901 222.835 57.7264 223.579 57.0469C223.908 56.6965 224.316 56.5002 224.804 56.4577C225.504 56.4577 225.796 56.7709 225.68 57.3973C225.616 57.6309 225.546 57.8645 225.472 58.098C225.196 59.1067 225.185 59.7013 225.441 59.8817C225.695 60.0517 226.083 60.0517 226.602 59.8817C227.132 59.7013 227.658 59.3668 228.177 58.8785C228.709 58.3794 229.154 57.9281 229.515 57.5248C229.875 57.1106 230.178 56.9779 230.422 57.1265Z" fill="black"/>
</svg>
