<svg width="84" height="56" viewBox="0 0 84 56" fill="none" xmlns="http://www.w3.org/2000/svg">
<g clip-path="url(#clip0_348_89)">
<path d="M24.9884 36.9531L27.5412 45.0541C28.1147 46.8935 28.3539 48.1775 28.2581 48.9093C29.6543 45.2521 30.6298 41.2667 31.1848 36.9531H34.2544C32.9346 43.9757 31.1937 49.0789 29.0328 52.2624C27.3492 54.7156 25.5048 55.9422 23.4964 55.9422C22.9609 55.9422 22.3007 55.784 21.5173 55.4698V53.777C21.9 53.8318 22.3491 53.8612 22.8656 53.8612C23.8025 53.8612 24.5577 53.6072 25.1322 53.1003C25.8202 52.4827 26.1645 51.7886 26.1645 51.0192C26.1645 50.4938 25.8959 49.4157 25.3613 47.7848L21.8044 36.9531H24.9884ZM5.45065 31.9739L10.1264 45.9267H10.1553L14.8598 31.9739H18.7034C19.5451 38.8935 20.0422 45.2247 20.1948 50.9635H16.9542C16.8402 45.5989 16.5244 40.5544 16.0079 35.8291H15.9797L11.045 50.9635H8.57719L3.67237 35.8291H3.6435C3.27961 40.3671 3.05058 45.4116 2.95509 50.9635H0C0.190969 44.2114 0.668883 37.8821 1.43374 31.9739H5.45065Z" fill="#00758F"/>
<path d="M57.8317 31.6921C62.8614 31.6921 65.3763 34.8348 65.3763 41.1172C65.3763 44.5311 64.62 47.1099 63.1088 48.852C62.8364 49.1703 62.5354 49.4453 62.2184 49.7001L65.7778 51.4214L65.7743 51.4212L64.5105 53.5556L59.8753 50.9105C59.107 51.133 58.2616 51.2442 57.3404 51.2442C54.8707 51.2442 53.026 50.5403 51.8064 49.1342C50.4676 47.5787 49.7986 45.13 49.7986 41.7921C49.7986 38.3975 50.5536 35.8285 52.0653 34.0842C53.4421 32.4886 55.3645 31.6921 57.8317 31.6921ZM42.4295 31.7197C44.2272 31.7197 45.8617 32.1901 47.334 33.1277L46.5862 34.7575C45.3264 34.2337 44.0843 33.9707 42.8594 33.9707C41.8655 33.9707 41.0996 34.2047 40.5658 34.6755C40.029 35.1421 39.6969 35.7425 39.6969 36.4745C39.6969 37.5993 40.5162 38.5748 42.0291 39.3989C42.5247 39.6638 43.0186 39.9319 43.5107 40.2029L43.6236 40.265L43.6802 40.2962L43.7932 40.3583L43.8497 40.3894L43.9625 40.4516C45.1077 41.083 46.1853 41.6857 46.1853 41.6857C47.6979 42.7359 48.4519 43.8556 48.4519 45.6998C48.4519 47.3103 47.8485 48.6323 46.6456 49.6668C45.4419 50.6966 43.8247 51.2129 41.7995 51.2129C39.9054 51.2129 38.0697 50.6186 36.2916 49.4399L37.1234 47.8087C38.6536 48.5588 40.0383 48.9335 41.2818 48.9335C42.4479 48.9335 43.3608 48.6788 44.0211 48.1759C44.6801 47.6694 45.075 46.9629 45.075 46.067C45.075 44.9395 44.2731 43.9756 42.802 43.1671C42.3415 42.9183 41.8824 42.667 41.4246 42.4134L41.3119 42.351C41.1049 42.2366 40.8964 42.1207 40.6921 42.0073L40.5814 41.9457C39.588 41.393 38.7291 40.9102 38.7291 40.9102C37.2584 39.8581 36.521 38.7293 36.521 36.8692C36.521 35.3309 37.0709 34.0875 38.1692 33.1416C39.27 32.1936 40.6903 31.7197 42.4295 31.7197ZM71.2873 31.9738V48.6275H77.3967V50.9634H68.1888V31.9738H71.2873ZM80.7914 48.6347V49.0294H80.1198V50.9613H79.6063V49.0294H78.9085V48.6347H80.7916H80.7914ZM82.0318 48.6347L82.6767 50.2207L83.2691 48.6347H83.9971V50.9613H83.5131V49.1907L82.8388 50.9613H82.4898L81.8144 49.1907H81.7885V50.9613H81.3306V48.6347H82.0319H82.0318ZM57.5154 34.0274C54.5515 34.0274 53.0687 36.4198 53.0687 41.2015C53.0687 43.9405 53.4616 45.9266 54.246 47.1646C54.9724 48.3103 56.1102 48.882 57.6595 48.882C60.6234 48.882 62.106 46.4709 62.106 41.6511C62.106 38.9504 61.7131 36.9812 60.9297 35.7427C60.2024 34.5996 59.0651 34.0274 57.5156 34.0274H57.5154Z" fill="#F29111"/>
<path d="M49.7467 1.17665C50.7299 -1.18626 54.1678 0.603174 55.502 1.42857C55.829 1.63508 56.204 2.07137 56.5789 2.23263C57.1638 2.25509 57.7482 2.29986 58.334 2.32377C59.4329 2.57633 60.4623 2.78268 61.3282 3.26502C65.3523 5.58284 67.9719 7.94479 70.3828 11.8462C70.8979 12.6725 71.1554 13.5668 71.5762 14.461C72.1602 15.7939 72.8165 17.1931 73.4944 18.4535C73.7979 19.0511 74.0327 19.7155 74.4542 20.2202C74.6187 20.4509 75.0861 20.519 75.3655 20.6568C76.1379 21.0478 77.0738 21.3447 77.8002 21.8036C79.1569 22.6309 80.4685 23.6168 81.6609 24.626C82.1054 25.0156 82.4082 25.5671 82.8317 25.9792V26.1871C82.4558 26.2999 82.0813 26.4155 81.7064 26.5081C80.8875 26.7138 80.1622 26.6672 79.3678 26.8731C78.877 27.0124 78.2675 27.1961 77.7526 27.2428L77.8002 27.2897C78.1031 28.1361 79.7417 28.8244 80.4912 29.3307C81.4014 29.9732 82.2448 30.7523 82.9237 31.6472C83.1582 31.8756 83.3926 32.0834 83.6259 32.311C83.789 32.5418 83.8349 32.8402 84 33.0459V33.1156C83.8172 33.0525 83.6858 32.9322 83.5613 32.8064L83.487 32.7305C83.4126 32.6551 83.3377 32.5809 83.2522 32.5198C82.7357 32.1748 82.2229 31.7621 81.7064 31.4414C80.8185 30.8903 79.7887 30.5705 78.877 30.0174C78.3615 29.6964 77.8701 29.3307 77.3787 28.9632C76.9333 28.6412 76.4428 28.0228 76.1629 27.5639C75.998 27.3104 75.9754 27.0124 75.787 26.829C75.8206 26.5227 76.1076 26.4317 76.3972 26.3569L76.4638 26.3397C76.5637 26.3144 76.6615 26.289 76.7468 26.2555C77.9631 25.7504 79.4133 25.5671 81.2859 25.613C81.2153 25.1532 80.0453 24.5802 79.6717 24.3048C78.9219 23.7763 78.128 23.2248 77.3326 22.7437C76.9112 22.4918 76.1849 22.3079 75.7179 22.102C75.0861 21.8495 73.6819 21.5971 73.3318 21.116C72.7371 20.3577 72.3099 19.4532 71.8951 18.5395L71.7822 18.2902C71.7446 18.2071 71.7069 18.124 71.669 18.041C71.1788 16.9407 70.5698 15.7936 70.0785 14.667C69.8215 14.1175 69.7036 13.6351 69.4222 13.108C67.7148 9.8735 65.1878 7.16544 62.1239 5.26096C61.117 4.64127 59.9944 4.06779 58.755 3.67804C58.0527 3.47057 57.2097 3.58529 56.4614 3.42612H55.9689C55.5486 3.31027 55.1977 2.87446 54.8697 2.64469C54.1454 2.16363 53.4199 1.84063 52.5536 1.49741C52.2501 1.35974 51.3834 1.03914 51.0808 1.29154C50.8935 1.33759 50.7985 1.40675 50.7524 1.59064C50.566 1.86502 50.7299 2.27836 50.8459 2.5314C51.1973 3.2647 51.6882 3.7005 52.1338 4.32019C52.5302 4.86976 53.0225 5.48945 53.3036 6.087C53.9099 7.37147 54.1923 8.79458 54.7542 10.0789C54.9626 10.5619 55.2922 11.1114 55.5955 11.5471C55.8526 11.8929 56.32 12.1429 56.4614 12.5806C56.7433 13.0395 56.0395 14.5537 55.8765 15.0346C55.2671 16.9163 55.3852 19.532 56.087 21.163L56.1245 21.249L56.1619 21.3362C56.4181 21.9336 56.6924 22.5768 57.3738 22.7439C57.4207 22.6983 57.3738 22.7222 57.4668 22.6983C57.6317 21.4358 57.6781 20.22 58.1231 19.2322C58.3801 18.6146 58.8935 18.178 59.2454 17.6739C59.48 17.8112 59.48 18.2254 59.6198 18.4994C59.9243 19.2103 60.2513 19.9896 60.6267 20.7025C61.3971 22.1707 62.264 23.5941 63.2462 24.8784C63.5752 25.3372 64.0419 25.8422 64.4629 26.2553C64.6504 26.4153 64.8605 26.5077 65.0014 26.7136H65.0473V26.7829C64.3455 26.5299 63.9005 25.8197 63.3407 25.4051C62.2868 24.6257 61.0247 23.4553 60.2982 22.3323C59.9944 21.6876 59.6659 21.0696 59.3384 20.4281V20.3818C59.1985 20.565 59.2454 20.747 59.1754 21.0242C58.8715 22.1707 59.1055 23.4786 58.0527 23.891C56.8593 24.374 55.9691 23.1116 55.5955 22.538C54.4018 20.634 54.0748 17.4219 54.9166 14.8291C55.1037 14.2551 55.1291 13.5668 55.4556 13.1085C55.385 12.6942 55.0585 12.5809 54.8697 12.3271C54.5422 11.8932 54.2618 11.3877 54.0054 10.9059C53.5129 9.96464 53.1625 8.83999 52.7886 7.83054C52.6242 7.41832 52.5771 7.0045 52.4132 6.61427C52.1336 6.01865 51.6183 5.4211 51.2208 4.89415C50.6825 4.13679 49.1147 2.66892 49.7467 1.17665ZM57.4202 5.6719C57.4827 5.73319 57.5582 5.78678 57.6363 5.83957L57.7305 5.90279C57.856 5.98784 57.9775 6.07737 58.052 6.19932C58.1701 6.36074 58.1921 6.52008 58.3336 6.68182C58.3336 7.23332 58.1701 7.59996 57.8402 7.82846C57.8402 7.82846 57.8177 7.85252 57.7946 7.87499C57.6076 7.50738 57.4437 7.14169 57.2553 6.77441C57.0233 6.45381 56.6954 6.19948 56.5064 5.83316H56.4609V5.7871C56.7433 5.71891 57.0233 5.6719 57.4202 5.6719Z" fill="#00758F"/>
</g>
<defs>
<clipPath id="clip0_348_89">
<rect width="84" height="56" fill="white"/>
</clipPath>
</defs>
</svg>
