<svg width="85" height="50" viewBox="0 0 85 50" fill="none" xmlns="http://www.w3.org/2000/svg">
<g clip-path="url(#clip0_348_48)">
<path d="M42.0203 49.8559C41.7326 49.8559 41.4639 49.7823 41.2144 49.6535L38.6626 48.1997C38.2788 47.9971 38.4707 47.9236 38.5859 47.8868C39.1039 47.7212 39.1998 47.6842 39.737 47.39C39.7946 47.353 39.8715 47.3715 39.929 47.4083L41.8861 48.5309C41.9628 48.5677 42.0588 48.5677 42.1162 48.5309L49.772 44.2796C49.8487 44.2428 49.8872 44.1691 49.8872 44.0772V35.5932C49.8872 35.501 49.8487 35.4275 49.772 35.3906L42.1162 31.1578C42.0395 31.1209 41.9436 31.1209 41.8861 31.1578L34.2303 35.3906C34.1536 35.4274 34.1151 35.5194 34.1151 35.593V44.0771C34.1151 44.1508 34.1536 44.2427 34.2303 44.2796L36.3218 45.439C37.4538 45.9911 38.1637 45.347 38.1637 44.7029V36.3291C38.1637 36.2188 38.2597 36.1083 38.394 36.1083H39.3725C39.4877 36.1083 39.6027 36.2003 39.6027 36.3291V44.7029C39.6027 46.1567 38.7776 47.0033 37.3386 47.0033C36.8973 47.0033 36.552 47.0033 35.5734 46.5432L33.5588 45.439C33.0599 45.1631 32.7529 44.6476 32.7529 44.0955V35.6115C32.7529 35.0594 33.0599 34.5439 33.5588 34.268L41.2144 30.0167C41.6942 29.7591 42.3466 29.7591 42.8263 30.0167L50.4819 34.268C50.9808 34.5439 51.2879 35.0594 51.2879 35.6115V44.0955C51.2879 44.6476 50.9808 45.1631 50.4819 45.439L42.8263 49.6903C42.5767 49.8008 42.2889 49.8559 42.0203 49.8559ZM44.3803 44.022C41.0227 44.022 40.3319 42.5497 40.3319 41.2982C40.3319 41.1877 40.4278 41.0774 40.5621 41.0774H41.5599C41.6749 41.0774 41.7709 41.151 41.7709 41.2615C41.9245 42.2368 42.3657 42.7153 44.3996 42.7153C46.0113 42.7153 46.7022 42.3656 46.7022 41.5374C46.7022 41.0589 46.5102 40.7094 43.9967 40.4701C41.9052 40.2675 40.6005 39.826 40.6005 38.2248C40.6005 36.7341 41.9054 35.8506 44.0926 35.8506C46.5485 35.8506 47.7574 36.6605 47.911 38.4271C47.911 38.4825 47.8917 38.5376 47.8534 38.5928C47.8149 38.6296 47.7574 38.6664 47.6998 38.6664H46.7021C46.6061 38.6664 46.5101 38.5928 46.4911 38.5008C46.2608 37.4887 45.666 37.1573 44.0926 37.1573C42.3274 37.1573 42.1162 37.7463 42.1162 38.1879C42.1162 38.7217 42.3657 38.8873 44.7449 39.1817C47.105 39.4763 48.2179 39.8995 48.2179 41.4822C48.1987 43.1017 46.8173 44.022 44.3803 44.022Z" fill="#539E43"/>
<path d="M18.2663 16.6739C18.2663 16.3427 18.0744 16.0297 17.7675 15.8641L9.63204 11.3736C9.49757 11.2999 9.34417 11.2631 9.19077 11.2446H9.11391C8.96051 11.2446 8.80694 11.2999 8.67264 11.3736L0.537207 15.8641C0.230078 16.0297 0.0383301 16.3426 0.0383301 16.6739L0.0575879 28.7467C0.0575879 28.9123 0.153545 29.0779 0.306943 29.1516C0.460508 29.2437 0.652256 29.2437 0.786729 29.1516L5.62193 26.5015C5.9289 26.3359 6.12081 26.023 6.12081 25.6918V20.0418C6.12081 19.7106 6.31256 19.3977 6.61969 19.232L8.67264 18.091C8.8262 17.9989 8.99886 17.962 9.17151 17.962C9.34417 17.962 9.51683 17.9989 9.6513 18.091L11.7042 19.232C12.0114 19.3977 12.2031 19.7104 12.2031 20.0418V25.6918C12.2031 26.023 12.395 26.3359 12.702 26.5015L17.5372 29.1516C17.6119 29.1967 17.6984 29.2207 17.7866 29.2207C17.8749 29.2207 17.9614 29.1967 18.0361 29.1516C18.1896 29.0779 18.2856 28.9123 18.2856 28.7467L18.2663 16.6739ZM57.3702 0.0552946C57.2168 -0.0184315 57.0249 -0.0184315 56.8904 0.0552946C56.737 0.147333 56.641 0.294467 56.641 0.460072V12.4227C56.641 12.533 56.5836 12.6434 56.4684 12.7171C56.3533 12.7722 56.2381 12.7722 56.1231 12.7171L54.0892 11.5945C53.9401 11.513 53.7715 11.4702 53.5999 11.4702C53.4283 11.4702 53.2596 11.513 53.1105 11.5945L44.9751 16.1034C44.6681 16.269 44.4762 16.5819 44.4762 16.9131V25.9125C44.4762 26.2437 44.6681 26.5567 44.9751 26.7223L53.1105 31.2313C53.2596 31.3127 53.4283 31.3555 53.5999 31.3555C53.7715 31.3555 53.9401 31.3127 54.0892 31.2313L62.2246 26.7223C62.5316 26.5567 62.7235 26.2438 62.7235 25.9125V3.47838C62.7235 3.1287 62.5316 2.81596 62.2246 2.6502L57.3702 0.0552946ZM56.6219 22.9496C56.6219 23.0416 56.5836 23.1152 56.5067 23.1519L53.7246 24.6978C53.6858 24.716 53.6431 24.7254 53.5999 24.7254C53.5566 24.7254 53.514 24.716 53.4751 24.6978L50.693 23.1519C50.6162 23.1152 50.5778 23.0231 50.5778 22.9496V19.8577C50.5778 19.7656 50.6162 19.6921 50.693 19.6553L53.4751 18.1093C53.514 18.0911 53.5566 18.0816 53.5999 18.0816C53.6431 18.0816 53.6858 18.0911 53.7246 18.1093L56.5067 19.6553C56.5836 19.6919 56.6219 19.7841 56.6219 19.8577V22.9496ZM84.4435 19.7841C84.7506 19.6185 84.9233 19.3056 84.9233 18.9742V16.7843C84.9233 16.4531 84.7314 16.1402 84.4435 15.9746L76.3657 11.4841C76.2166 11.4027 76.0479 11.3599 75.8763 11.3599C75.7048 11.3599 75.5361 11.4027 75.387 11.4841L67.2516 15.9929C66.9445 16.1585 66.7527 16.4714 66.7527 16.8026V25.8021C66.7527 26.1333 66.9446 26.4462 67.2516 26.6118L75.3294 31.0287C75.6365 31.1943 76.0011 31.1943 76.289 31.0287L81.1816 28.4156C81.3352 28.3419 81.4311 28.1763 81.4311 28.0107C81.4311 27.8451 81.3352 27.6795 81.1816 27.6058L73.0078 23.0969C72.8543 23.0048 72.7583 22.8577 72.7583 22.6921V19.8763C72.7583 19.7107 72.8543 19.5451 73.0078 19.4714L75.5597 18.0727C75.6344 18.0276 75.7208 18.0036 75.8091 18.0036C75.8974 18.0036 75.9838 18.0276 76.0585 18.0727L78.6105 19.4714C78.7641 19.5634 78.8599 19.7106 78.8599 19.8763V22.0848C78.8599 22.2504 78.9559 22.416 79.1094 22.4895C79.1841 22.5346 79.2706 22.5586 79.3589 22.5586C79.4471 22.5586 79.5336 22.5346 79.6083 22.4895L84.4435 19.7841Z" fill="#333333"/>
<path d="M75.7516 19.3606C75.7801 19.3426 75.8134 19.333 75.8475 19.333C75.8817 19.333 75.915 19.3426 75.9435 19.3606L77.4977 20.2256C77.5552 20.2625 77.5935 20.3176 77.5935 20.3912V22.1213C77.5935 22.1949 77.5554 22.2501 77.4977 22.2869L75.9435 23.1519C75.915 23.1699 75.8817 23.1795 75.8475 23.1795C75.8134 23.1795 75.7801 23.1699 75.7516 23.1519L74.1975 22.2869C74.1399 22.2501 74.1016 22.1949 74.1016 22.1213V20.3914C74.1016 20.3176 74.1397 20.2624 74.1975 20.2257L75.7516 19.3606Z" fill="#539E43"/>
<path d="M31.8702 11.5209C31.7211 11.4395 31.5525 11.3967 31.381 11.3967C31.2094 11.3967 31.0408 11.4395 30.8917 11.5209L22.8139 15.9928C22.5068 16.1584 22.3341 16.4713 22.3341 16.8025V25.7652C22.3341 26.0964 22.526 26.4093 22.8139 26.5749L30.8917 31.0471C31.0408 31.1285 31.2094 31.1713 31.381 31.1713C31.5525 31.1713 31.7211 31.1285 31.8702 31.0471L39.9482 26.5749C40.2552 26.4093 40.428 26.0964 40.428 25.7652V16.8026C40.428 16.4714 40.2359 16.1585 39.9482 15.9929L31.8702 11.5209Z" fill="url(#paint0_linear_348_48)"/>
</g>
<defs>
<linearGradient id="paint0_linear_348_48" x1="34.672" y1="14.8547" x2="26.334" y2="28.5139" gradientUnits="userSpaceOnUse">
<stop stop-color="#41873F"/>
<stop offset="0.3288" stop-color="#418B3D"/>
<stop offset="0.6352" stop-color="#419637"/>
<stop offset="0.9319" stop-color="#3FA92D"/>
<stop offset="1" stop-color="#3FAE2A"/>
</linearGradient>
<clipPath id="clip0_348_48">
<rect width="85" height="50" fill="white"/>
</clipPath>
</defs>
</svg>
