<svg width="193" height="192" viewBox="0 0 193 192" fill="none" xmlns="http://www.w3.org/2000/svg">
<g clip-path="url(#clip0_317_145)">
<path fill-rule="evenodd" clip-rule="evenodd" d="M87.9731 38.2016C87.904 37.9327 87.8321 37.6593 87.7575 37.3812L87.7478 37.3828C87.7098 37.1517 87.5512 36.4441 87.2183 35.4368L87.1975 35.3937C85.2492 28.7779 81.9355 20.3099 77.417 13.3207C72.1534 5.179 65.1594 -1.09458 56.6901 0.160324L56.7551 0.598178L56.753 0.598172L56.6626 0.194355C54.3893 0.701496 52.4979 1.67883 50.9477 2.87529C50.8309 2.96412 50.7163 3.05377 50.6043 3.14414C50.0659 3.3756 49.5819 3.82767 49.1923 4.28595C48.9442 4.57782 48.7195 4.89007 48.5277 5.18752C48.3972 5.34453 48.2726 5.50125 48.1539 5.65714C46.5371 7.71078 45.6116 9.85596 45.2443 11.267L45.2302 11.2653C44.1751 20.1343 50.6181 27.2874 58.9129 32.5928C66.9202 37.7145 76.7694 41.194 83.6959 42.9106C83.9338 42.9617 84.2573 43.0195 84.5498 43.0414L85.9407 43.0432L90.2799 47.3758L57.5987 79.622C56.2467 80.9561 56.2337 83.1319 57.5698 84.4818L59.3454 86.2759L58.6089 87.0114C57.2821 88.1371 55.1047 89.6442 52.8719 90.19C52.4148 90.3017 52.2071 90.3749 52.1959 90.4168C51.5624 90.6649 50.9686 91.0446 50.4566 91.5556L49.4328 92.5779C47.4435 94.5641 47.4435 97.7845 49.4328 99.7707L50.2751 100.612C52.2643 102.598 55.4896 102.598 57.479 100.612L58.5027 99.5894C59.0457 99.0473 59.4404 98.4134 59.6869 97.7377C59.7293 97.693 59.7953 97.4829 59.8897 97.0682C60.5031 94.3747 62.4994 91.7417 63.5745 90.5884L63.5942 90.5686L65.0902 92.08C66.4263 93.4301 68.6055 93.443 69.9575 92.1089L102.164 60.3311L89.7491 47.9353L90.2947 47.3905L108.142 65.2103L108.237 65.1158C109.147 67.6349 112.046 71.7501 116.119 76.2275L121.236 82.3089C121.427 82.6784 121.677 83.0251 121.987 83.3348L129.765 91.1009C131.378 92.7113 133.993 92.7113 135.606 91.1009L136.344 90.364C137.957 88.7536 137.957 86.1424 136.344 84.532L128.567 76.7661C128.331 76.5309 128.074 76.33 127.802 76.1635L121.832 70.9476C116.978 66.5166 112.523 63.4343 110.022 62.7276L92.478 45.2107L92.7872 44.9018L92.4761 45.2088L88.1434 40.8829L88.1457 39.1847L88.1452 39.1601C88.1437 39.0884 88.1423 39.0229 88.1315 38.9305C88.1162 38.7979 88.0815 38.6146 87.9978 38.2975L87.9935 38.2813L87.9794 38.2282C87.977 38.2195 87.9755 38.2105 87.9731 38.2016ZM87.4395 40.1799L87.456 40.1965V40.1634L87.4395 40.1799ZM86.5529 35.6412C86.872 36.7271 87.1538 37.7625 87.3978 38.7324L87.5024 39.1466L87.5002 39.1486C83.6351 31.9348 77.2635 21.5861 70.5433 13.6912C67.1494 9.70401 63.6497 6.32231 60.3237 4.292C57.7774 2.73761 55.2834 1.94782 53.0056 2.34091C53.3969 2.11864 53.8098 1.90711 54.2453 1.70911L54.2478 1.71581C57.0212 0.714305 60.0678 1.51439 63.2281 3.58562C66.3862 5.65534 69.601 8.95978 72.6658 12.8456C78.2637 19.943 83.3119 28.9161 86.5529 35.6412ZM85.2029 31.4169C83.2275 25.689 80.4104 19.2183 76.8386 13.6935C71.8847 6.03075 65.5642 0.311324 58.1082 0.707477C59.9219 0.990064 61.7697 1.80765 63.606 3.01105C66.8535 5.13945 70.122 8.50943 73.2066 12.4204C77.809 18.2556 82.0348 25.3377 85.2029 31.4169ZM46.069 10.8982C45.9045 13.9111 47.0568 16.9089 49.0514 19.7861C51.3701 23.1308 54.8495 26.347 58.8168 29.2924C65.2704 34.0836 73.0597 38.1911 79.3739 40.996C73.1075 39.0759 65.6078 36.0588 59.2843 32.0141C51.0696 26.7598 44.9632 19.8564 45.9008 11.459L45.9052 11.4602C45.9505 11.2844 46.005 11.0965 46.069 10.8982ZM46.8816 9.5524L46.9309 9.56226C46.2769 12.8182 47.3585 16.1365 49.6174 19.3949C51.8763 22.6535 55.2903 25.8177 59.2276 28.7408C67.0732 34.5654 76.9295 39.3837 83.6415 42.0488L84.0573 42.1772C76.9088 38.3876 66.7347 32.1779 58.9211 25.5757C54.9404 22.2122 51.5525 18.7304 49.4948 15.3997C47.9426 12.8873 47.1216 10.4162 47.4232 8.13439C47.1556 8.68596 46.9795 9.17257 46.8816 9.5524ZM48.6857 6.28571L48.6973 6.29148C47.4412 8.81215 48.0751 11.7926 50.0807 15.0388C52.0825 18.2789 55.4066 21.7058 59.3657 25.0511C67.2752 31.7344 77.6398 38.0271 84.7796 41.781L84.8306 41.8073L85.051 41.5877C78.235 36.5495 68.443 28.8019 60.7733 21.5992C56.8763 17.9395 53.5138 14.408 51.3694 11.4365C50.2984 9.95251 49.5171 8.58912 49.1315 7.40575C48.9672 6.90146 48.8709 6.4171 48.8603 5.96383C48.7946 6.07867 48.7361 6.18704 48.6857 6.28571ZM49.8513 4.77737C49.4784 5.33547 49.4395 6.12964 49.786 7.19312C50.1396 8.27796 50.874 9.5743 51.9278 11.0347C54.0332 13.9519 57.3573 17.4476 61.245 21.0986C68.9192 28.3056 78.7369 36.0695 85.5439 41.0968L86.1648 40.4786C81.0728 33.6054 73.2696 23.7564 66.0617 16.0798C62.3946 12.1742 58.8944 8.84488 55.9912 6.75438C54.5376 5.70767 53.2542 4.98665 52.1884 4.65162C51.1453 4.32368 50.3805 4.38459 49.8513 4.77737ZM50.9542 3.7528C51.4054 3.74985 51.8899 3.83721 52.3952 3.99605C53.5637 4.36341 54.917 5.13339 56.3939 6.19693C59.3519 8.32694 62.8884 11.6952 66.564 15.6097C73.768 23.2822 81.5553 33.1065 86.6574 39.9879L86.991 39.6557C83.1495 32.4594 76.7529 22.0476 70.0188 14.1363C66.6427 10.17 63.1987 6.85258 59.9647 4.87839C56.7241 2.9003 53.7783 2.31732 51.3219 3.64273L51.2666 3.67257L51.2043 3.68096C51.1281 3.69122 51.0506 3.71051 50.972 3.73807L50.9542 3.7528ZM125.015 13.1032C126.367 11.7692 128.547 11.7821 129.883 13.1321L131.417 14.682L131.458 14.6402C132.533 13.487 134.53 10.8539 135.143 8.16047C135.238 7.74567 135.303 7.53559 135.346 7.49101C135.592 6.81531 135.987 6.18135 136.53 5.6393L137.554 4.61703C139.543 2.63081 142.769 2.63081 144.757 4.61703L145.6 5.45794C147.589 7.44416 147.589 10.6645 145.6 12.6506L144.576 13.6729C144.064 14.1841 143.47 14.5637 142.836 14.8118C142.825 14.8538 142.618 14.9268 142.161 15.0386C139.927 15.5845 137.751 17.0915 136.423 18.2173L135.665 18.9747L137.402 20.7303C138.739 22.0803 138.726 24.2561 137.373 25.5901L105.422 57.1162L92.9893 44.7025L125.015 13.1032ZM0.265381 118.578V134.389H1.93471V129.397H6.1757C7.51417 129.397 8.66465 129.179 9.62714 128.742C10.5896 128.306 11.3265 127.688 11.8379 126.89C12.3642 126.077 12.6274 125.113 12.6274 123.999C12.6274 122.855 12.3642 121.883 11.8379 121.085C11.3265 120.272 10.5896 119.655 9.62714 119.233C8.66465 118.797 7.51417 118.578 6.1757 118.578H0.265381ZM1.93471 127.929H6.13058C7.70967 127.929 8.90527 127.59 9.71737 126.913C10.5445 126.22 10.9581 125.249 10.9581 123.999C10.9581 122.734 10.5445 121.755 9.71737 121.063C8.90527 120.37 7.70967 120.024 6.13058 120.024H1.93471V127.929ZM23.2102 132.527V134.389H24.7442V127.026C24.7442 125.475 24.3231 124.323 23.4809 123.57C22.6537 122.802 21.4732 122.418 19.9392 122.418C19.0068 122.418 18.1195 122.561 17.2773 122.847C16.4351 123.118 15.7133 123.51 15.1117 124.022L15.8336 125.219C16.3148 124.797 16.9013 124.458 17.5931 124.202C18.2849 123.946 19.0143 123.818 19.7813 123.818C20.8942 123.818 21.7289 124.089 22.2853 124.631C22.8568 125.173 23.1425 125.949 23.1425 126.958V127.681H19.3753C18.2473 127.681 17.345 127.839 16.6682 128.155C16.0065 128.456 15.5253 128.863 15.2245 129.375C14.9388 129.872 14.7959 130.429 14.7959 131.046C14.7959 131.724 14.9688 132.326 15.3147 132.853C15.6606 133.365 16.1569 133.772 16.8036 134.073C17.4653 134.359 18.2398 134.502 19.1271 134.502C20.255 134.502 21.1875 134.268 21.9244 133.802C22.473 133.46 22.9016 133.036 23.2102 132.527ZM23.1425 130.82V128.878H19.4204C18.2774 128.878 17.4803 129.081 17.0292 129.488C16.593 129.894 16.375 130.399 16.375 131.001C16.375 131.679 16.6382 132.221 17.1645 132.627C17.6909 133.034 18.4278 133.237 19.3753 133.237C20.2776 133.237 21.0521 133.034 21.6988 132.627C22.3605 132.206 22.8417 131.603 23.1425 130.82ZM29.5004 134.095C30.3726 134.366 31.2975 134.502 32.275 134.502C33.3127 134.502 34.1925 134.366 34.9144 134.095C35.6513 133.809 36.2077 133.418 36.5837 132.921C36.9747 132.409 37.1702 131.807 37.1702 131.114C37.1702 130.466 37.0274 129.947 36.7416 129.555C36.4709 129.149 36.1025 128.84 35.6363 128.629C35.1851 128.404 34.6813 128.23 34.1248 128.11C33.5834 127.974 33.0345 127.861 32.4781 127.771C31.9367 127.681 31.4329 127.568 30.9667 127.432C30.5155 127.282 30.147 127.078 29.8613 126.823C29.5906 126.567 29.4552 126.213 29.4552 125.761C29.4552 125.189 29.7034 124.722 30.1997 124.36C30.711 123.984 31.5005 123.796 32.5683 123.796C33.1699 123.796 33.7714 123.878 34.373 124.044C34.9745 124.195 35.5385 124.451 36.0649 124.812L36.7642 123.525C36.2679 123.193 35.6363 122.93 34.8693 122.734C34.1023 122.523 33.3353 122.418 32.5683 122.418C31.5607 122.418 30.7035 122.568 29.9966 122.87C29.3049 123.156 28.7785 123.555 28.4176 124.067C28.0566 124.579 27.8762 125.158 27.8762 125.806C27.8762 126.484 28.0115 127.026 28.2822 127.432C28.5679 127.839 28.9364 128.163 29.3876 128.404C29.8387 128.629 30.335 128.803 30.8764 128.923C31.4329 129.044 31.9893 129.149 32.5457 129.239C33.1022 129.33 33.606 129.443 34.0572 129.578C34.5083 129.699 34.8693 129.887 35.14 130.143C35.4257 130.384 35.5686 130.722 35.5686 131.159C35.5686 131.746 35.3204 132.221 34.8242 132.582C34.3279 132.928 33.5158 133.102 32.3878 133.102C31.5607 133.102 30.7712 132.974 30.0192 132.718C29.2673 132.447 28.6507 132.13 28.1694 131.769L27.4475 133.034C27.9438 133.455 28.6281 133.809 29.5004 134.095ZM41.2823 133.598C41.8838 134.201 42.741 134.502 43.8539 134.502C44.3201 134.502 44.7713 134.434 45.2074 134.299C45.6586 134.163 46.0421 133.952 46.3579 133.666L45.7939 132.514C45.3277 132.921 44.7412 133.124 44.0344 133.124C43.3727 133.124 42.8614 132.936 42.5004 132.559C42.1545 132.183 41.9816 131.648 41.9816 130.956V123.863H45.5909V122.531H41.9816V119.911H40.3799V122.531H38.2594V123.863H40.3799V131.046C40.3799 132.145 40.6807 132.996 41.2823 133.598ZM50.6371 133.734C51.5695 134.246 52.6523 134.502 53.8855 134.502C54.833 134.502 55.6977 134.336 56.4798 134.005C57.2768 133.674 57.9385 133.192 58.4649 132.559L57.5626 131.52C57.1114 132.048 56.57 132.439 55.9384 132.695C55.3218 132.951 54.6525 133.079 53.9306 133.079C53.0133 133.079 52.1937 132.891 51.4718 132.514C50.765 132.123 50.2085 131.588 49.8025 130.911C49.4746 130.33 49.2841 129.675 49.2312 128.946H59.1868V128.697C59.2018 128.607 59.2093 128.524 59.2093 128.449C59.2093 127.259 58.9612 126.213 58.4649 125.309C57.9686 124.39 57.2843 123.683 56.4121 123.186C55.5549 122.674 54.5698 122.418 53.4569 122.418C52.3591 122.418 51.3665 122.681 50.4792 123.208C49.607 123.72 48.9152 124.428 48.4038 125.332C47.9075 126.235 47.6594 127.274 47.6594 128.449C47.6594 129.623 47.9226 130.67 48.4489 131.588C48.9753 132.492 49.7047 133.207 50.6371 133.734ZM49.2382 127.749C49.2966 127.084 49.4697 126.481 49.7573 125.942C50.1183 125.264 50.6221 124.737 51.2688 124.36C51.9154 123.984 52.6448 123.796 53.4569 123.796C54.2841 123.796 55.0135 123.984 55.6451 124.36C56.2767 124.737 56.773 125.264 57.1339 125.942C57.4391 126.479 57.6205 127.081 57.678 127.749H49.2382ZM62.4694 117.63V134.389H64.071V117.63H62.4694ZM70.3097 133.734C71.2421 134.246 72.3249 134.502 73.5581 134.502C74.5056 134.502 75.3703 134.336 76.1523 134.005C76.9494 133.674 77.6111 133.192 78.1375 132.559L77.2352 131.52C76.784 132.048 76.2426 132.439 75.6109 132.695C74.9943 132.951 74.3251 133.079 73.6032 133.079C72.6859 133.079 71.8662 132.891 71.1444 132.514C70.4375 132.123 69.8811 131.588 69.475 130.911C69.1471 130.33 68.9567 129.675 68.9038 128.946H78.8594V128.697C78.8744 128.607 78.8819 128.524 78.8819 128.449C78.8819 127.259 78.6338 126.213 78.1375 125.309C77.6412 124.39 76.9569 123.683 76.0847 123.186C75.2274 122.674 74.2424 122.418 73.1295 122.418C72.0317 122.418 71.0391 122.681 70.1518 123.208C69.2795 123.72 68.5877 124.428 68.0764 125.332C67.5801 126.235 67.332 127.274 67.332 128.449C67.332 129.623 67.5952 130.67 68.1215 131.588C68.6479 132.492 69.3773 133.207 70.3097 133.734ZM68.9108 127.749C68.9691 127.084 69.1422 126.481 69.4299 125.942C69.7909 125.264 70.2947 124.737 70.9413 124.36C71.588 123.984 72.3174 123.796 73.1295 123.796C73.9567 123.796 74.686 123.984 75.3177 124.36C75.9493 124.737 76.4456 125.264 76.8065 125.942C77.1117 126.479 77.2931 127.081 77.3504 127.749H68.9108ZM82.142 122.531V134.389H83.7436V128.336C83.7436 126.935 84.097 125.859 84.8039 125.106C85.5107 124.338 86.4882 123.954 87.7365 123.954C87.7966 123.954 87.8568 123.961 87.9169 123.976H88.0974V122.418C86.9394 122.418 85.9694 122.659 85.1874 123.141C84.5185 123.54 84.0147 124.099 83.676 124.817V122.531H82.142ZM91.0199 122.531V134.389H92.6215V122.531H91.0199ZM93.4563 117.878L90.3658 120.679H91.9448L95.5992 117.878H93.4563ZM104.5 132.527V134.389H106.034V127.026C106.034 125.475 105.613 124.323 104.77 123.57C103.943 122.802 102.763 122.418 101.229 122.418C100.296 122.418 99.4091 122.561 98.5669 122.847C97.7247 123.118 97.0029 123.51 96.4013 124.022L97.1232 125.219C97.6044 124.797 98.1909 124.458 98.8827 124.202C99.5745 123.946 100.304 123.818 101.071 123.818C102.184 123.818 103.018 124.089 103.575 124.631C104.146 125.173 104.432 125.949 104.432 126.958V127.681H100.665C99.5369 127.681 98.6346 127.839 97.9578 128.155C97.2961 128.456 96.8149 128.863 96.5141 129.375C96.2283 129.872 96.0855 130.429 96.0855 131.046C96.0855 131.724 96.2584 132.326 96.6043 132.853C96.9502 133.365 97.4465 133.772 98.0932 134.073C98.7549 134.359 99.5294 134.502 100.417 134.502C101.545 134.502 102.477 134.268 103.214 133.802C103.763 133.46 104.191 133.036 104.5 132.527ZM104.432 130.82V128.878H100.71C99.567 128.878 98.7699 129.081 98.3188 129.488C97.8826 129.894 97.6646 130.399 97.6646 131.001C97.6646 131.679 97.9278 132.221 98.4541 132.627C98.9805 133.034 99.7174 133.237 100.665 133.237C101.567 133.237 102.342 133.034 102.988 132.627C103.65 132.206 104.131 131.603 104.432 130.82ZM116.626 118.578V134.389H118.296V121.568L128.446 134.389H129.822V118.578H128.176V131.401L118.003 118.578H116.626ZM142.06 132.527V134.389H143.594V127.026C143.594 125.475 143.173 124.323 142.331 123.57C141.504 122.802 140.323 122.418 138.789 122.418C137.857 122.418 136.97 122.561 136.128 122.847C135.285 123.118 134.564 123.51 133.962 124.022L134.684 125.219C135.165 124.797 135.752 124.458 136.443 124.202C137.135 123.946 137.865 123.818 138.632 123.818C139.744 123.818 140.579 124.089 141.136 124.631C141.707 125.173 141.993 125.949 141.993 126.958V127.681H138.226C137.098 127.681 136.195 127.839 135.519 128.155C134.857 128.456 134.376 128.863 134.075 129.375C133.789 129.872 133.646 130.429 133.646 131.046C133.646 131.724 133.819 132.326 134.165 132.853C134.511 133.365 135.007 133.772 135.654 134.073C136.316 134.359 137.09 134.502 137.977 134.502C139.105 134.502 140.038 134.268 140.775 133.802C141.324 133.46 141.752 133.036 142.06 132.527ZM141.993 130.82V128.878H138.271C137.128 128.878 136.331 129.081 135.879 129.488C135.443 129.894 135.225 130.399 135.225 131.001C135.225 131.679 135.488 132.221 136.015 132.627C136.541 133.034 137.278 133.237 138.226 133.237C139.128 133.237 139.902 133.034 140.549 132.627C141.211 132.206 141.692 131.603 141.993 130.82ZM149.117 133.598C149.719 134.201 150.576 134.502 151.689 134.502C152.155 134.502 152.607 134.434 153.043 134.299C153.494 134.163 153.877 133.952 154.193 133.666L153.629 132.514C153.163 132.921 152.576 133.124 151.87 133.124C151.208 133.124 150.697 132.936 150.336 132.559C149.99 132.183 149.817 131.648 149.817 130.956V123.863H153.426V122.531H149.817V119.911H148.215V122.531H146.095V123.863H148.215V131.046C148.215 132.145 148.516 132.996 149.117 133.598ZM164.531 132.527V134.389H166.065V127.026C166.065 125.475 165.644 124.323 164.802 123.57C163.975 122.802 162.794 122.418 161.26 122.418C160.328 122.418 159.44 122.561 158.598 122.847C157.756 123.118 157.034 123.51 156.433 124.022L157.155 125.219C157.636 124.797 158.222 124.458 158.914 124.202C159.606 123.946 160.335 123.818 161.102 123.818C162.215 123.818 163.05 124.089 163.606 124.631C164.178 125.173 164.463 125.949 164.463 126.958V127.681H160.696C159.568 127.681 158.666 127.839 157.989 128.155C157.328 128.456 156.846 128.863 156.545 129.375C156.26 129.872 156.117 130.429 156.117 131.046C156.117 131.724 156.29 132.326 156.636 132.853C156.982 133.365 157.478 133.772 158.125 134.073C158.786 134.359 159.561 134.502 160.448 134.502C161.576 134.502 162.508 134.268 163.245 133.802C163.794 133.46 164.223 133.036 164.531 132.527ZM164.463 130.82V128.878H160.741C159.598 128.878 158.801 129.081 158.35 129.488C157.914 129.894 157.696 130.399 157.696 131.001C157.696 131.679 157.959 132.221 158.486 132.627C159.012 133.034 159.749 133.237 160.696 133.237C161.599 133.237 162.373 133.034 163.02 132.627C163.681 132.206 164.163 131.603 164.463 130.82ZM170.415 117.63V134.389H172.017V117.63H170.415ZM176.473 122.531V134.389H178.075V122.531H176.473ZM176.451 119.572C176.676 119.798 176.955 119.911 177.285 119.911C177.631 119.911 177.91 119.798 178.12 119.572C178.346 119.346 178.458 119.068 178.458 118.736C178.458 118.42 178.346 118.157 178.12 117.946C177.895 117.735 177.616 117.63 177.285 117.63C176.955 117.63 176.676 117.743 176.451 117.968C176.225 118.179 176.112 118.443 176.112 118.759C176.112 119.075 176.225 119.346 176.451 119.572ZM184.314 133.734C185.246 134.246 186.329 134.502 187.562 134.502C188.51 134.502 189.374 134.336 190.156 134.005C190.953 133.674 191.615 133.192 192.141 132.559L191.239 131.52C190.788 132.048 190.247 132.439 189.615 132.695C188.998 132.951 188.329 133.079 187.607 133.079C186.69 133.079 185.87 132.891 185.148 132.514C184.441 132.123 183.885 131.588 183.479 130.911C183.151 130.33 182.96 129.675 182.908 128.946H192.863V128.697C192.878 128.607 192.886 128.524 192.886 128.449C192.886 127.259 192.638 126.213 192.141 125.309C191.645 124.39 190.961 123.683 190.089 123.186C189.231 122.674 188.246 122.418 187.133 122.418C186.036 122.418 185.043 122.681 184.156 123.208C183.283 123.72 182.592 124.428 182.08 125.332C181.584 126.235 181.336 127.274 181.336 128.449C181.336 129.623 181.599 130.67 182.126 131.588C182.652 132.492 183.381 133.207 184.314 133.734ZM182.915 127.749C182.973 127.084 183.146 126.481 183.434 125.942C183.795 125.264 184.299 124.737 184.945 124.36C185.592 123.984 186.321 123.796 187.133 123.796C187.961 123.796 188.69 123.984 189.322 124.36C189.953 124.737 190.45 125.264 190.811 125.942C191.115 126.479 191.297 127.081 191.354 127.749H182.915ZM95.3911 152.897C94.5434 152.898 93.7308 153.246 93.1015 153.866C92.5362 154.422 92.1513 155.163 91.9943 155.975H90.4158H90.1025V156.289V157.315V157.629H90.4158H91.9943C92.1513 158.441 92.5362 159.183 93.1015 159.74C93.7308 160.358 94.5427 160.706 95.3904 160.707H102.628H102.941V160.393V159.367V159.053H102.628H101.6L100.343 157.629H103.532H103.846V157.315V156.289V155.975H103.532H100.343L101.6 154.551H102.628H102.941V154.237V153.211V152.897H102.628H95.3911ZM93.5406 154.313C94.0606 153.802 94.7181 153.526 95.3914 153.525H102.314V153.924H101.458H101.317L101.223 154.029L99.4141 156.082L98.9545 156.603H99.649H103.219V157.002H99.649H98.9545L99.4141 157.522L101.223 159.575L101.317 159.681H101.458H102.314V160.08H95.3917C94.7184 160.078 94.0606 159.802 93.5406 159.292C93.0197 158.778 92.6728 158.064 92.572 157.275L92.537 157.002H92.2612H90.7291V156.603H92.2612H92.537L92.572 156.329C92.6728 155.54 93.0197 154.826 93.5406 154.313ZM95.3911 153.924C94.7865 153.924 94.2066 154.162 93.7487 154.586C93.2916 155.009 92.9831 155.593 92.867 156.234L92.8001 156.603H93.1753H94.7515H94.8929L94.9864 156.497L96.7956 154.444L97.2551 153.924H96.5607H95.3911ZM95.3913 154.551H95.8663L94.6102 155.975H93.5797C93.7049 155.611 93.9102 155.291 94.1742 155.047C94.5236 154.723 94.9537 154.551 95.3913 154.551ZM97.8398 153.924H97.6984L97.6049 154.029L95.7957 156.082L95.3362 156.603H96.0306H98.3699H98.5113L98.6048 156.497L100.414 154.444L100.874 153.924H100.179H97.8398ZM96.725 155.975L97.9811 154.551H99.4847L98.2285 155.975H96.725ZM8.77266 156.492H8.45935V157.12H8.77266H89.4054H89.7187V156.492H89.4054H8.77266ZM104.625 156.492H104.312V157.12H104.625H185.259H185.572V156.492H185.259H104.625ZM93.1753 157.002H92.8001L92.867 157.372C92.9831 158.012 93.2916 158.595 93.7487 159.018C94.2066 159.442 94.7861 159.681 95.3907 159.681H96.5607H97.2551L96.7956 159.16L94.9864 157.107L94.8929 157.002H94.7515H93.1753ZM94.1742 158.558C93.9102 158.314 93.7049 157.993 93.5797 157.629H94.6102L95.8663 159.053H95.3916C94.9539 159.053 94.5234 158.881 94.1742 158.558ZM96.0306 157.002H95.3362L95.7957 157.522L97.6049 159.575L97.6984 159.681H97.8398H100.179H100.874L100.414 159.16L98.6048 157.107L98.5113 157.002H98.3699H96.0306ZM97.9811 159.053L96.725 157.629H98.2285L99.4847 159.053H97.9811ZM57.4965 189.882C57.3963 190.347 57.3085 190.798 57.2333 191.238C57.4338 191.238 57.6657 191.143 57.9289 190.955C58.2046 190.767 58.4051 190.46 58.5304 190.033C58.568 189.908 58.6495 189.638 58.7748 189.224C58.9002 188.81 59.0568 188.308 59.2448 187.718C59.4328 187.116 59.6396 186.457 59.8652 185.742C60.0907 185.026 60.3163 184.305 60.5419 183.577C60.9179 183.539 61.2938 183.514 61.6698 183.502C62.0458 183.489 62.4907 183.477 63.0045 183.464C63.5184 183.452 64.1575 183.445 64.922 183.445C64.7089 184.148 64.5147 184.813 64.3392 185.44C64.1638 186.055 64.0259 186.551 63.9257 186.927C63.7753 187.505 63.6625 188.044 63.5873 188.546C63.5121 189.035 63.4745 189.443 63.4745 189.769C63.4745 190.246 63.5685 190.598 63.7565 190.824C63.9445 191.049 64.2828 191.187 64.7716 191.238C64.7591 191.15 64.7465 191.049 64.734 190.936V190.56C64.734 190.096 64.7779 189.487 64.8656 188.734C64.9659 187.981 65.1288 187.072 65.3544 186.005C65.4296 185.616 65.5173 185.208 65.6176 184.782C65.7178 184.342 65.8243 183.891 65.9371 183.426C66.1878 183.426 66.4447 183.401 66.7079 183.351C66.9711 183.288 67.2405 183.113 67.5162 182.824C67.2906 182.824 67.0588 182.818 66.8207 182.805C66.5951 182.78 66.357 182.761 66.1063 182.749L66.7831 180.189C67.0212 179.336 67.253 178.552 67.4786 177.836C67.7042 177.109 67.9047 176.513 68.0802 176.048C67.9047 176.048 67.7418 176.111 67.5914 176.236C67.4536 176.362 67.3408 176.5 67.253 176.651C67.1653 176.801 67.0964 176.927 67.0463 177.027C66.9335 177.265 66.7705 177.68 66.5575 178.269C66.357 178.846 66.1314 179.524 65.8807 180.302C65.6426 181.08 65.3982 181.871 65.1476 182.674C64.6714 182.623 64.1638 182.586 63.6249 182.561C63.0985 182.523 62.5408 182.504 61.9518 182.504C61.7638 182.504 61.5758 182.51 61.3878 182.523C61.2124 182.523 61.0369 182.529 60.8615 182.542L62.3278 177.761C62.3654 177.636 62.3967 177.504 62.4218 177.366C62.4594 177.228 62.4782 177.09 62.4782 176.952C62.4782 176.726 62.4155 176.519 62.2902 176.331C62.1774 176.142 61.9518 176.048 61.6134 176.048C61.2625 176.048 60.8677 176.155 60.4291 176.368C60.003 176.582 59.5894 176.87 59.1884 177.234C58.7999 177.585 58.4803 177.974 58.2297 178.401C57.979 178.828 57.8537 179.254 57.8537 179.681C57.8537 179.982 57.9352 180.239 58.0981 180.453C58.2735 180.653 58.568 180.754 58.9816 180.754C58.9565 180.666 58.9315 180.566 58.9064 180.453C58.8939 180.34 58.8876 180.227 58.8876 180.114C58.8876 179.8 58.9503 179.442 59.0756 179.041C59.2009 178.639 59.3701 178.25 59.5832 177.874C59.8088 177.498 60.0594 177.19 60.3351 176.952C60.6234 176.701 60.9179 176.575 61.2187 176.575C61.3314 176.575 61.4004 176.594 61.4254 176.632C61.463 176.669 61.4818 176.738 61.4818 176.839C61.4818 177.027 61.4505 177.228 61.3878 177.441C61.3252 177.642 61.2688 177.811 61.2187 177.949C61.0933 178.313 60.968 178.671 60.8427 179.022C60.7299 179.373 60.6171 179.712 60.5043 180.038C60.3915 180.352 60.285 180.666 60.1847 180.98C60.0845 181.281 59.9842 181.576 59.8839 181.864C59.7962 182.14 59.7085 182.41 59.6208 182.674C59.1571 182.761 58.7811 182.899 58.4928 183.088C58.2171 183.263 58.073 183.508 58.0605 183.822C58.2735 183.797 58.4803 183.772 58.6808 183.746C58.8939 183.721 59.1007 183.703 59.3012 183.69C58.9628 184.719 58.6808 185.61 58.4552 186.363C58.2297 187.116 58.0354 187.781 57.8725 188.358C57.7221 188.922 57.5968 189.431 57.4965 189.882ZM67.4564 189.694C67.682 190.033 68.0643 190.202 68.6032 190.202C69.0794 190.202 69.5682 190.014 70.0695 189.638C70.5833 189.261 71.0533 188.791 71.4794 188.226C71.6172 188.289 71.7613 188.339 71.9117 188.377C72.0621 188.402 72.2188 188.414 72.3817 188.414C72.7953 188.414 73.2276 188.295 73.6788 188.057C73.865 187.955 74.0341 187.827 74.186 187.671C74.1814 187.688 74.1767 187.703 74.172 187.718C73.9965 188.232 73.8461 188.678 73.7208 189.054C73.5829 189.418 73.514 189.638 73.514 189.713C73.514 189.776 73.5767 189.838 73.702 189.901C73.8148 189.964 73.9526 190.014 74.1156 190.052C74.2785 190.089 74.4163 190.108 74.5291 190.108C74.7547 189.468 75.0492 188.828 75.4127 188.188C75.7887 187.536 76.1834 186.94 76.597 186.4C77.0106 185.861 77.4116 185.428 77.8001 185.102C78.1886 184.763 78.5207 184.593 78.7964 184.593C78.9719 184.593 79.091 184.662 79.1536 184.8C79.2288 184.926 79.2664 185.095 79.2664 185.309C79.2664 185.635 79.2038 186.03 79.0784 186.494C78.9656 186.946 78.8278 187.398 78.6649 187.85C78.5145 188.289 78.3766 188.678 78.2513 189.017C78.1385 189.343 78.0821 189.55 78.0821 189.638C78.0821 189.726 78.1385 189.795 78.2513 189.845C78.3766 189.908 78.5145 189.951 78.6649 189.977C78.8152 190.002 78.9406 190.014 79.0408 190.014C79.1662 189.763 79.2977 189.487 79.4356 189.186C79.5735 188.872 79.7426 188.565 79.9432 188.264C80.5322 187.373 81.0084 186.683 81.3719 186.193C81.7478 185.704 82.0925 185.459 82.4058 185.459C82.5436 185.459 82.669 185.509 82.7818 185.61C82.8946 185.71 82.951 185.886 82.951 186.137C82.951 186.375 82.9008 186.645 82.8006 186.946C82.7128 187.247 82.6188 187.555 82.5186 187.868C82.4309 188.182 82.387 188.496 82.387 188.81C82.387 189.186 82.4872 189.506 82.6878 189.769C82.8883 190.046 83.2079 190.184 83.6465 190.184C84.1478 190.184 84.6052 190.014 85.0188 189.675C85.4197 189.357 85.7708 188.96 86.0719 188.486C86.1154 188.995 86.3 189.429 86.6258 189.788C87.0144 190.215 87.5908 190.428 88.3553 190.428C88.9819 190.428 89.596 190.271 90.1976 189.958C90.8117 189.657 91.3756 189.23 91.8895 188.678C92.4158 188.126 92.8482 187.473 93.1866 186.72L92.961 186.551C92.6477 187.153 92.2655 187.705 91.8143 188.207C91.3631 188.709 90.8744 189.117 90.348 189.431C89.8216 189.732 89.289 189.882 88.7501 189.882C88.4619 189.882 88.2175 189.838 88.017 189.751C87.829 189.663 87.6786 189.544 87.5658 189.393C87.453 189.23 87.3715 189.054 87.3214 188.866C87.2838 188.678 87.265 188.49 87.265 188.301C87.265 188.201 87.2713 188.094 87.2838 187.981C87.2963 187.868 87.3151 187.749 87.3402 187.624C87.8791 187.574 88.418 187.448 88.9569 187.247C89.5083 187.034 90.0096 186.764 90.4608 186.438C90.9245 186.112 91.2942 185.742 91.5699 185.327C91.8582 184.901 92.0023 184.449 92.0023 183.972C92.0023 183.508 91.8769 183.201 91.6263 183.05C91.3882 182.899 91.125 182.824 90.8368 182.824C90.2853 182.824 89.7276 183 89.1637 183.351C88.5997 183.69 88.0796 184.135 87.6034 184.688C87.1397 185.24 86.7637 185.829 86.4755 186.457C86.2877 186.883 86.1639 187.296 86.104 187.694C86.0688 187.758 86.0329 187.822 85.9963 187.887C85.7332 188.339 85.4449 188.728 85.1316 189.054C84.8308 189.368 84.505 189.525 84.1541 189.525C83.941 189.525 83.7906 189.462 83.7029 189.337C83.6277 189.199 83.5901 189.048 83.5901 188.885C83.5901 188.621 83.6465 188.308 83.7593 187.944C83.8846 187.58 84.0037 187.203 84.1165 186.814C84.2293 186.425 84.2857 186.068 84.2857 185.742C84.2857 185.415 84.2042 185.133 84.0413 184.895C83.8909 184.656 83.6152 184.537 83.2141 184.537C82.788 184.537 82.387 184.681 82.011 184.97C81.635 185.246 81.2841 185.61 80.9583 186.062C80.645 186.501 80.3567 186.959 80.0936 187.436C80.1688 187.26 80.2502 187.028 80.3379 186.739C80.4257 186.438 80.5009 186.118 80.5635 185.779C80.6387 185.428 80.6763 185.095 80.6763 184.782C80.6763 184.393 80.6011 184.06 80.4507 183.784C80.3129 183.495 80.0497 183.351 79.6612 183.351C79.3228 183.351 78.9719 183.464 78.6085 183.69C78.2575 183.903 77.9066 184.186 77.5557 184.537C77.2048 184.888 76.8664 185.277 76.5406 185.704C76.2273 186.118 75.9453 186.526 75.6947 186.927C75.8325 186.451 75.9453 186.018 76.033 185.629C76.1333 185.227 76.1834 184.945 76.1834 184.782C76.1834 184.631 76.1396 184.512 76.0518 184.424C75.9766 184.336 75.8513 184.292 75.6759 184.292C75.5004 184.292 75.3312 184.336 75.1683 184.424C75.0054 184.512 74.8863 184.6 74.8111 184.688C74.8111 185.102 74.7422 185.578 74.6043 186.118C74.5528 186.34 74.4979 186.561 74.44 186.781C74.3017 187.039 74.1294 187.251 73.9232 187.417C73.6851 187.617 73.4407 187.762 73.19 187.85C72.9394 187.925 72.7138 187.963 72.5133 187.963C72.2626 187.963 72.0245 187.9 71.7989 187.774C72.1624 187.222 72.4632 186.651 72.7013 186.062C72.9394 185.459 73.0585 184.913 73.0585 184.424C73.0585 184.01 72.9707 183.665 72.7953 183.389C72.6198 183.113 72.2752 182.975 71.7613 182.975C71.3728 182.975 71.0407 183.088 70.765 183.314C70.4893 183.527 70.2762 183.815 70.1259 184.179C69.988 184.543 69.9191 184.932 69.9191 185.346C69.9191 185.836 70.0131 186.319 70.201 186.796C70.4016 187.26 70.6773 187.636 71.0282 187.925C70.6773 188.364 70.3201 188.728 69.9567 189.017C69.5932 189.293 69.2799 189.431 69.0167 189.431C68.8162 189.431 68.6533 189.349 68.528 189.186C68.4026 189.01 68.34 188.734 68.34 188.358C68.34 188.119 68.3838 187.831 68.4716 187.492C68.5718 187.153 68.6909 186.814 68.8287 186.476C68.9666 186.124 69.1107 185.817 69.2611 185.553C69.424 185.277 69.5619 185.089 69.6747 184.989C69.612 184.964 69.5431 184.945 69.4679 184.932C69.4052 184.907 69.3426 184.895 69.2799 184.895C69.0167 184.895 68.7535 185.008 68.4904 185.233C68.2397 185.459 68.0079 185.754 67.7948 186.118C67.5943 186.482 67.4314 186.871 67.3061 187.285C67.1807 187.699 67.1181 188.101 67.1181 188.49C67.1181 188.966 67.2309 189.368 67.4564 189.694ZM72.1373 185.986C71.9368 186.488 71.6799 186.971 71.3666 187.436C71.1535 187.185 70.9906 186.877 70.8778 186.513C70.7775 186.137 70.7274 185.767 70.7274 185.403C70.7274 184.851 70.859 184.393 71.1222 184.029C71.3854 183.665 71.6423 183.483 71.8929 183.483C72.0559 183.483 72.1874 183.571 72.2877 183.746C72.4005 183.91 72.4569 184.173 72.4569 184.537C72.4569 184.989 72.3504 185.472 72.1373 185.986ZM88.5809 186.777C88.1548 186.99 87.7726 187.153 87.4342 187.266C87.5595 186.814 87.7475 186.363 87.9982 185.911C88.2488 185.459 88.5308 185.045 88.8441 184.669C89.1574 184.292 89.4833 183.991 89.8216 183.765C90.16 183.527 90.4796 183.408 90.7804 183.408C90.9433 183.408 91.0498 183.445 91.0999 183.521C91.1501 183.596 91.1751 183.703 91.1751 183.841C91.1751 184.242 91.0435 184.625 90.7804 184.989C90.5297 185.353 90.2039 185.685 89.8028 185.986C89.4143 186.287 89.007 186.551 88.5809 186.777ZM97.7504 190.334C98.0763 190.761 98.565 190.974 99.2167 190.974C99.8809 190.974 100.457 190.767 100.946 190.353C101.447 189.951 101.867 189.462 102.206 188.885L102.506 188.922C102.607 188.935 102.707 188.941 102.807 188.941C103.284 188.941 103.76 188.803 104.236 188.527C104.298 188.49 104.36 188.448 104.42 188.402C104.392 188.58 104.378 188.753 104.378 188.922C104.378 189.449 104.516 189.839 104.792 190.089C105.055 190.353 105.381 190.485 105.769 190.485C106.233 190.485 106.684 190.303 107.123 189.939C107.574 189.575 108.069 189.029 108.608 188.301L108.57 188.603C108.558 188.69 108.551 188.772 108.551 188.847C108.551 189.173 108.658 189.475 108.871 189.751C109.096 190.027 109.441 190.165 109.905 190.165C110.356 190.165 110.813 190.02 111.277 189.732C111.753 189.443 112.198 189.042 112.612 188.527C112.815 188.274 113 188.001 113.167 187.709C113.142 187.956 113.13 188.191 113.13 188.414C113.13 188.703 113.136 188.985 113.148 189.261C113.174 189.525 113.23 189.744 113.318 189.92C113.418 190.096 113.575 190.184 113.788 190.184C113.938 190.184 114.082 190.14 114.22 190.052C114.358 189.977 114.464 189.826 114.54 189.6C114.64 189.311 114.765 188.948 114.916 188.508C115.066 188.069 115.248 187.605 115.461 187.116C115.674 186.626 115.912 186.168 116.175 185.742C116.451 185.302 116.758 184.951 117.096 184.688C117.435 184.411 117.798 184.273 118.186 184.273C118.437 184.273 118.656 184.349 118.844 184.499C119.032 184.65 119.126 184.857 119.126 185.12C119.126 185.434 119.026 185.71 118.826 185.949C118.638 186.174 118.406 186.363 118.13 186.513C117.854 186.651 117.585 186.758 117.322 186.833C117.059 186.896 116.858 186.927 116.72 186.927C116.72 187.216 116.752 187.555 116.814 187.944C116.889 188.32 116.996 188.69 117.134 189.054C117.284 189.418 117.485 189.719 117.735 189.958C117.986 190.196 118.287 190.315 118.638 190.315C119.076 190.315 119.515 190.14 119.954 189.788C120.405 189.449 120.812 189.01 121.175 188.471C121.18 188.464 121.184 188.457 121.188 188.451C121.226 188.975 121.412 189.421 121.745 189.788C122.133 190.215 122.71 190.428 123.474 190.428C124.101 190.428 124.715 190.271 125.317 189.958C125.931 189.657 126.495 189.23 127.009 188.678C127.157 188.521 127.298 188.358 127.433 188.186C127.413 188.323 127.404 188.456 127.404 188.584C127.404 188.948 127.479 189.249 127.629 189.487C127.767 189.726 127.943 189.895 128.156 189.995C128.381 190.108 128.601 190.165 128.814 190.165C129.202 190.165 129.609 190.014 130.036 189.713C130.474 189.412 130.919 188.998 131.37 188.471C131.821 187.931 132.248 187.329 132.649 186.664C132.536 187.09 132.448 187.479 132.385 187.831C132.323 188.182 132.291 188.464 132.291 188.678C132.291 189.004 132.379 189.318 132.555 189.619C132.743 189.933 133.068 190.089 133.532 190.089C133.958 190.089 134.403 189.939 134.867 189.638C135.343 189.349 135.788 188.954 136.202 188.452C136.615 187.937 136.941 187.36 137.179 186.72L136.953 186.551C136.69 187.128 136.383 187.624 136.032 188.038C135.681 188.452 135.331 188.772 134.98 188.998C134.629 189.224 134.322 189.337 134.058 189.337C133.845 189.337 133.72 189.249 133.682 189.073C133.645 188.897 133.626 188.634 133.626 188.283C133.626 187.655 133.726 186.965 133.927 186.212C134.14 185.447 134.409 184.656 134.735 183.841C135.074 183.025 135.425 182.222 135.788 181.431C136.151 180.641 136.496 179.913 136.822 179.248C137.16 178.57 137.43 177.993 137.63 177.516C137.843 177.027 137.95 176.682 137.95 176.481C137.95 176.356 137.912 176.255 137.837 176.18C137.762 176.092 137.674 176.048 137.574 176.048C137.373 176.048 137.141 176.211 136.878 176.538C136.628 176.851 136.358 177.284 136.07 177.836C135.794 178.376 135.506 178.997 135.205 179.7C134.904 180.39 134.604 181.111 134.303 181.864C134.015 182.617 133.733 183.357 133.457 184.085C133.056 185.127 132.605 186.036 132.103 186.814C131.602 187.592 131.107 188.195 130.618 188.621C130.142 189.048 129.735 189.261 129.396 189.261C129.196 189.261 129.033 189.18 128.908 189.017C128.782 188.853 128.72 188.634 128.72 188.358C128.72 188.069 128.782 187.718 128.908 187.304C129.045 186.877 129.233 186.438 129.472 185.986C129.71 185.535 129.985 185.114 130.299 184.725C130.625 184.324 130.975 184.004 131.351 183.765C131.74 183.514 132.135 183.389 132.536 183.389C132.711 183.389 132.855 183.414 132.968 183.464C133.093 183.502 133.187 183.571 133.25 183.671C133.263 183.621 133.269 183.577 133.269 183.539C133.281 183.502 133.288 183.458 133.288 183.408C133.288 183.207 133.213 183.063 133.062 182.975C132.924 182.874 132.724 182.824 132.461 182.824C131.997 182.824 131.527 182.956 131.051 183.219C130.574 183.47 130.117 183.815 129.678 184.255C129.24 184.681 128.851 185.152 128.513 185.666C128.174 186.168 127.905 186.676 127.705 187.191C127.702 187.197 127.7 187.203 127.697 187.21C127.469 187.561 127.214 187.894 126.934 188.207C126.483 188.709 125.994 189.117 125.467 189.431C124.941 189.732 124.408 189.882 123.869 189.882C123.581 189.882 123.336 189.838 123.136 189.751C122.948 189.663 122.798 189.544 122.685 189.393C122.572 189.23 122.491 189.054 122.44 188.866C122.403 188.678 122.384 188.49 122.384 188.301C122.384 188.201 122.39 188.094 122.403 187.981C122.415 187.868 122.434 187.749 122.459 187.624C122.998 187.574 123.537 187.448 124.076 187.247C124.627 187.034 125.129 186.764 125.58 186.438C126.044 186.112 126.414 185.742 126.689 185.327C126.978 184.901 127.122 184.449 127.122 183.972C127.122 183.508 126.996 183.201 126.746 183.05C126.508 182.899 126.244 182.824 125.956 182.824C125.405 182.824 124.847 183 124.283 183.351C123.719 183.69 123.199 184.135 122.722 184.688C122.259 185.24 121.883 185.829 121.594 186.457C121.41 186.876 121.288 187.28 121.227 187.671C121.143 187.817 121.057 187.958 120.969 188.094C120.68 188.546 120.373 188.91 120.048 189.186C119.722 189.462 119.377 189.6 119.014 189.6C118.763 189.6 118.55 189.5 118.374 189.299C118.199 189.086 118.049 188.835 117.923 188.546C117.811 188.257 117.723 187.981 117.66 187.718C117.597 187.454 117.56 187.272 117.547 187.172C117.735 187.172 117.973 187.134 118.262 187.059C118.562 186.971 118.857 186.846 119.145 186.683C119.446 186.507 119.697 186.281 119.897 186.005C120.11 185.716 120.217 185.371 120.217 184.97C120.217 184.506 120.054 184.11 119.728 183.784C119.402 183.458 119.007 183.295 118.544 183.295C118.08 183.295 117.635 183.47 117.209 183.822C116.783 184.173 116.388 184.625 116.025 185.177C115.661 185.729 115.335 186.306 115.047 186.909C114.771 187.511 114.533 188.063 114.333 188.565C114.333 187.912 114.433 187.109 114.634 186.156C114.847 185.189 115.16 184.198 115.573 183.182C116.125 182.843 116.632 182.435 117.096 181.958C117.572 181.482 117.98 180.973 118.318 180.434C118.669 179.894 118.938 179.361 119.126 178.834C119.314 178.294 119.408 177.811 119.408 177.385C119.408 177.046 119.352 176.757 119.239 176.519C119.139 176.28 119.001 176.161 118.826 176.161C118.6 176.161 118.306 176.368 117.942 176.782C117.579 177.196 117.184 177.755 116.758 178.457C116.332 179.16 115.906 179.944 115.479 180.81C115.053 181.676 114.659 182.573 114.295 183.502C113.944 184.418 113.662 185.302 113.449 186.156C113.396 186.368 113.35 186.574 113.31 186.773C112.79 187.654 112.275 188.326 111.766 188.791C111.214 189.28 110.77 189.525 110.431 189.525C110.206 189.525 110.043 189.437 109.942 189.261C109.842 189.073 109.792 188.885 109.792 188.697C109.792 188.471 109.848 188.232 109.961 187.981C110.074 187.718 110.199 187.461 110.337 187.21C110.475 186.959 110.6 186.739 110.713 186.551C110.826 186.35 110.882 186.193 110.882 186.08C110.882 185.98 110.838 185.898 110.751 185.836C110.663 185.773 110.556 185.723 110.431 185.685C110.318 185.647 110.224 185.622 110.149 185.61C110.137 185.61 110.105 185.647 110.055 185.723C109.805 186.099 109.516 186.513 109.19 186.965C108.865 187.417 108.52 187.856 108.157 188.283C107.806 188.697 107.461 189.042 107.123 189.318C106.784 189.581 106.471 189.713 106.183 189.713C105.844 189.713 105.675 189.468 105.675 188.979C105.675 188.615 105.75 188.201 105.901 187.737C106.051 187.272 106.258 186.802 106.521 186.325C106.784 185.848 107.085 185.409 107.423 185.008C107.762 184.593 108.113 184.267 108.476 184.029C108.84 183.778 109.197 183.652 109.548 183.652C109.886 183.652 110.124 183.759 110.262 183.972C110.4 184.173 110.469 184.418 110.469 184.706C110.469 184.807 110.456 184.92 110.431 185.045C110.419 185.158 110.4 185.265 110.375 185.365C110.65 185.365 110.87 185.309 111.033 185.196C111.208 185.083 111.296 184.869 111.296 184.556C111.296 184.129 111.133 183.79 110.807 183.539C110.481 183.276 110.074 183.144 109.585 183.144C109.096 183.144 108.601 183.27 108.1 183.521C107.611 183.772 107.141 184.11 106.69 184.537C106.252 184.951 105.857 185.415 105.506 185.93C105.155 186.432 104.879 186.946 104.679 187.473C104.653 187.54 104.629 187.605 104.606 187.67C104.432 187.901 104.227 188.106 103.992 188.283C103.691 188.496 103.315 188.603 102.864 188.603C102.776 188.603 102.688 188.596 102.6 188.584L102.375 188.546C102.588 188.132 102.751 187.705 102.864 187.266C102.976 186.827 103.033 186.4 103.033 185.986C103.033 185.422 102.926 184.995 102.713 184.706C102.5 184.405 102.212 184.255 101.849 184.255C101.422 184.255 101.053 184.437 100.739 184.8C100.426 185.164 100.269 185.647 100.269 186.25C100.269 186.714 100.382 187.178 100.608 187.643C100.833 188.094 101.178 188.439 101.642 188.678C101.404 189.142 101.09 189.519 100.702 189.807C100.313 190.108 99.9373 190.259 99.5739 190.259C99.1979 190.259 98.9285 190.089 98.7655 189.751C98.6152 189.424 98.54 189.004 98.54 188.49C98.54 187.963 98.5964 187.423 98.7092 186.871C98.8345 186.306 98.9661 185.811 99.1039 185.384C99.2543 184.945 99.3671 184.656 99.4423 184.518C99.8809 184.255 100.307 183.897 100.721 183.445C101.147 182.981 101.541 182.473 101.905 181.921C102.268 181.369 102.588 180.81 102.864 180.246C103.139 179.668 103.352 179.129 103.503 178.627C103.653 178.125 103.728 177.698 103.728 177.347C103.728 177.083 103.678 176.82 103.578 176.556C103.49 176.293 103.34 176.161 103.127 176.161C102.876 176.161 102.557 176.381 102.168 176.82C101.78 177.247 101.366 177.824 100.927 178.552C100.489 179.267 100.05 180.07 99.6115 180.961C99.1854 181.852 98.7969 182.768 98.446 183.709C98.0951 184.637 97.8131 185.528 97.6 186.382C97.387 187.235 97.2805 187.975 97.2805 188.603C97.2805 189.33 97.4371 189.908 97.7504 190.334ZM102.149 187.398C102.074 187.712 101.968 188.013 101.83 188.301C101.504 188.088 101.272 187.793 101.134 187.417C100.996 187.04 100.927 186.683 100.927 186.344C100.927 185.955 100.996 185.635 101.134 185.384C101.285 185.12 101.454 184.989 101.642 184.989C101.817 184.989 101.961 185.114 102.074 185.365C102.199 185.616 102.262 185.961 102.262 186.4C102.262 186.739 102.225 187.072 102.149 187.398ZM101.604 181.375C101.316 181.852 101.003 182.303 100.664 182.73C100.338 183.157 100 183.508 99.6491 183.784C99.8621 183.069 100.138 182.354 100.476 181.638C100.815 180.911 101.153 180.252 101.491 179.662C101.842 179.06 102.156 178.583 102.431 178.232C102.72 177.868 102.914 177.686 103.014 177.686C103.039 177.686 103.058 177.698 103.07 177.723C103.083 177.736 103.089 177.774 103.089 177.836C103.089 178.025 103.027 178.307 102.901 178.683C102.776 179.06 102.6 179.48 102.375 179.944C102.149 180.409 101.892 180.885 101.604 181.375ZM117.397 180.848C116.971 181.438 116.47 181.965 115.893 182.429C116.256 181.588 116.632 180.81 117.021 180.095C117.409 179.367 117.754 178.784 118.055 178.345C118.368 177.905 118.588 177.686 118.713 177.686C118.738 177.686 118.75 177.698 118.75 177.723C118.763 177.748 118.769 177.792 118.769 177.855C118.769 178.169 118.65 178.602 118.412 179.154C118.174 179.693 117.836 180.258 117.397 180.848ZM123.7 186.777C123.274 186.99 122.892 187.153 122.553 187.266C122.678 186.814 122.866 186.363 123.117 185.911C123.368 185.459 123.65 185.045 123.963 184.669C124.276 184.292 124.602 183.991 124.941 183.765C125.279 183.527 125.599 183.408 125.9 183.408C126.063 183.408 126.169 183.445 126.219 183.521C126.27 183.596 126.295 183.703 126.295 183.841C126.295 184.242 126.163 184.625 125.9 184.989C125.649 185.353 125.323 185.685 124.922 185.986C124.533 186.287 124.126 186.551 123.7 186.777Z" fill="#151515"/>
</g>
<defs>
<clipPath id="clip0_317_145">
<rect width="193" height="191.984" fill="white"/>
</clipPath>
</defs>
</svg>
