<svg width="82" height="84" viewBox="0 0 82 84" fill="none" xmlns="http://www.w3.org/2000/svg">
<path d="M41 48.4941C44.5381 48.4941 47.4062 45.556 47.4062 41.9316C47.4062 38.3073 44.5381 35.3691 41 35.3691C37.4619 35.3691 34.5938 38.3073 34.5938 41.9316C34.5938 45.556 37.4619 48.4941 41 48.4941Z" fill="#00D8FF"/>
<path d="M41 56.9783C33.3 57.1691 25.6193 56.1059 18.245 53.8283C14.8385 52.7221 11.6613 50.9795 8.87394 48.6886C7.81032 47.906 6.92457 46.8969 6.27746 45.7306C5.63036 44.5643 5.23721 43.2684 5.125 41.9318C5.125 37.5927 9.7785 33.3402 17.5736 30.5577C25.1451 28.0922 33.0561 26.8973 41 27.0192C48.8379 26.907 56.6429 28.0804 64.1189 30.4947C67.3996 31.5661 70.4691 33.2245 73.185 35.393C74.2304 36.1391 75.1029 37.1116 75.7406 38.2416C76.3783 39.3716 76.7655 40.6314 76.875 41.9318C76.875 46.4416 71.6731 51.0117 63.2938 53.852C56.0622 56.0553 48.5436 57.1097 41 56.9783ZM41 30.1587C33.3999 30.0547 25.8321 31.1906 18.5807 33.524C11.4057 36.0886 8.18975 39.5956 8.18975 41.924C8.18975 44.36 11.6466 48.1898 19.2367 50.849C26.2914 53.0168 33.6369 54.026 41 53.8388C48.217 53.971 55.4113 52.9707 62.3328 50.8726C70.2125 48.1977 73.8 44.3626 73.8 41.9318C73.6707 41.0977 73.374 40.3001 72.9285 39.5893C72.483 38.8786 71.8985 38.2703 71.2119 37.8027C68.782 35.879 66.04 34.4092 63.1118 33.461C55.9599 31.1608 48.4953 30.046 41 30.1587Z" fill="#00D8FF"/>
<path d="M26.445 74.663C25.2496 74.6911 24.0683 74.394 23.0215 73.802C19.352 71.6337 18.081 65.381 19.621 57.0729C21.3191 49.122 24.2612 41.5048 28.3335 34.5162C32.1535 27.5051 37.0439 21.1653 42.8193 15.737C45.3643 13.3606 48.3002 11.4649 51.4909 10.1379C52.6449 9.58383 53.9038 9.29663 55.1783 9.29663C56.4528 9.29663 57.7117 9.58383 58.8657 10.1379C62.6813 12.3901 63.9446 19.2886 62.1637 28.1427C60.4132 35.6622 57.5475 42.8623 53.6664 49.4919C49.9809 56.4202 45.2444 62.7049 39.6342 68.111C36.9968 70.5806 33.936 72.5287 30.6065 73.8571C29.2735 74.3639 27.8665 74.6364 26.445 74.663ZM30.9883 36.0755C27.1038 42.7675 24.2839 50.0502 22.6345 57.6504C21.2175 65.3022 22.5782 69.9039 24.5564 71.0746C26.6064 72.29 31.5828 71.1376 37.6252 65.7301C42.9809 60.5509 47.5016 54.535 51.0194 47.9064C54.7374 41.5683 57.4863 34.6846 59.1707 27.4944C60.8465 19.16 59.3987 14.057 57.3436 12.8442C56.5733 12.5419 55.7502 12.4066 54.9263 12.4468C54.1024 12.487 53.2956 12.7019 52.5569 13.0779C49.7168 14.2784 47.1057 15.9828 44.8437 18.1126C39.3258 23.3122 34.6544 29.3816 31.0062 36.0912L30.9883 36.0755Z" fill="#00D8FF"/>
<path d="M55.5474 74.697C52.0752 74.697 47.6651 72.5445 43.0731 68.4993C37.1965 63.0217 32.2234 56.6065 28.3464 49.5022C24.3252 42.6099 21.4063 35.1029 19.7006 27.2658C18.9608 23.8179 18.8237 20.2628 19.2957 16.7658C19.4048 15.4686 19.7904 14.2116 20.4253 13.0836C21.0602 11.9556 21.929 10.9841 22.9703 10.2374C26.7807 7.97732 33.2459 10.3004 39.8444 16.3012C45.3296 21.6094 49.9877 27.748 53.6562 34.5029C57.675 41.2344 60.6245 48.577 62.3944 56.2563C63.166 59.8308 63.285 63.5207 62.7454 67.1396C62.6171 68.4742 62.2085 69.7645 61.5477 70.9221C60.8869 72.0798 59.9895 73.0774 58.9171 73.8465C57.8873 74.4311 56.7244 74.7246 55.5474 74.697ZM30.9986 47.922C34.7179 54.7113 39.4684 60.851 45.0719 66.1106C50.8349 71.19 55.4064 72.282 57.3719 71.0981C59.4219 69.8775 60.9337 64.8952 59.3757 56.8338C57.6688 49.502 54.8398 42.4932 50.9938 36.0674C47.493 29.6024 43.0468 23.7243 37.8097 18.6374C31.5982 12.9884 26.5604 11.7258 24.5078 12.9438C23.8681 13.4764 23.3431 14.139 22.966 14.89C22.5889 15.6409 22.3678 16.4637 22.3169 17.3066C21.9094 20.4253 22.0422 23.5932 22.7089 26.6647C24.3497 34.1594 27.1491 41.3374 31.0012 47.9272L30.9986 47.922Z" fill="#00D8FF"/>
</svg>
