<svg width="264" height="89" viewBox="0 0 264 89" fill="none" xmlns="http://www.w3.org/2000/svg">
<path fill-rule="evenodd" clip-rule="evenodd" d="M45.7454 10.7388C48.7586 14.39 53.2784 20.6723 55.1615 23.357L66.9988 20.9407C66.138 14.2826 62.6944 9.39648 61.0803 7.78564C54.8388 3.70489 48.7945 0.894903 46.5525 0L44.4002 1.07388C45.6917 2.36253 45.8352 8.05412 45.7454 10.7388ZM63.2326 8.32239L65.6538 5.90616C70.8552 8.2329 81.5268 16.645 83.948 30.8739L79.6434 34.6325C77.7603 31.8582 72.9716 25.5044 68.8822 22.2828C68.6132 19.6877 67.1066 13.2622 63.2326 8.32239ZM76.5824 51.907C78.8501 46.5339 78.9576 46.2792 79.9124 36.512L84.217 32.2164C85.3828 38.3018 85.8312 52.3518 79.9124 62.2852L77.2222 66.8491C77.2222 64.612 76.6841 57.8822 75.608 54.2311C75.9717 53.3539 76.2944 52.5891 76.5824 51.907ZM55.4307 25.236C54.5698 29.3168 51.3055 37.4963 49.7811 41.0759L58.659 56.3787C65.3311 55.9492 72.2002 54.0519 74.8009 53.1571C76.7379 50.1501 77.9396 40.0915 78.2982 35.438C75.0699 30.0686 69.779 24.7887 67.537 22.8198C64.0934 23.8937 58.0314 24.8781 55.4307 25.236ZM45.2073 86.9843C47.0009 85.8209 50.8569 83.3869 51.9332 82.9573H58.659C56.686 84.1206 51.2337 86.5547 45.2073 86.9843ZM18.5733 56.3789C15.2552 56.1104 7.4892 54.9828 2.96948 52.6202C2.16238 54.6784 0.602003 59.9227 0.817227 64.433C2.34174 67.1177 6.84354 73.5609 12.6546 77.8564C14.1791 78.5724 18.4657 80.0579 23.4158 80.2727C23.8642 78.5724 25.4067 74.5274 27.9894 71.9502C25.3887 68.281 19.8647 60.0301 18.5733 56.3789ZM2.96948 50.7409C0.386788 46.4453 -0.0795335 36.9595 0.0101436 32.7534C1.3553 30.4267 5.6598 24.5919 12.1165 19.8668C13.6231 20.9407 20.4564 22.641 23.685 23.357C23.4696 27.8673 26.8236 36.154 28.5275 39.7336L18.5733 54.768C9.74909 53.6941 4.494 51.6358 2.96948 50.7409ZM30.4106 39.7336H47.8977C49.5119 36.6013 52.9016 29.1558 53.5473 24.4307C52.2021 22.0144 48.5972 16.0545 44.9384 11.5442H34.7152C32.1145 14.4974 26.5904 20.9943 25.2991 23.357C25.6578 26.5786 27.1823 34.3643 30.4106 39.7336ZM29.6037 73.0241C26.5906 76.4605 25.2991 80.1833 25.0302 81.6152C28.2585 84.622 32.025 86.7161 33.6392 86.9845C35.2533 87.253 39.5579 87.5214 42.7863 86.9845C45.4398 86.5432 47.7902 84.2881 49.3898 82.7538C49.7362 82.4213 50.0477 82.1227 50.319 81.8836C49.6735 79.5211 47.3598 75.1718 46.2836 73.2925L29.6037 73.0241ZM51.9332 81.6154C51.5745 79.9151 50.2652 75.7627 47.8977 72.7557C49.5119 71.2344 53.9241 66.2051 58.659 58.2584C60.9008 58.3478 67.1604 57.8288 74.2628 55.0366L76.1459 68.1918C72.1721 74.4902 69.62 76.1266 63.9009 79.7938C63.038 80.347 62.1031 80.9467 61.0803 81.6154H51.9332ZM47.0837 70.847C38.5384 71.4945 31.5831 70.937 29.5358 70.5772C25.2632 65.1802 21.7028 58.2541 20.4564 55.4656C23.661 50.2846 28.2006 43.9522 30.07 41.4337C33.9153 40.7859 43.4219 41.1639 47.6945 41.4337C50.4716 45.1036 54.7264 53.3968 56.5067 57.0848C54.4694 62.4199 49.6546 68.8688 47.0837 70.847ZM14.45 79.2879C15.8524 79.7677 19.4808 81.0092 23.2947 81.3151C24.5173 82.5129 27.8822 85.0759 30.8584 86.4473C34.5788 88.1616 19.7313 83.112 14.1881 79.1987C14.2639 79.2242 14.3515 79.2543 14.45 79.2879Z" fill="#F46565"/>
<path d="M78.1256 87.4494C76.4344 87.4494 74.8861 87.1409 73.4808 86.5238C72.0754 85.883 70.8844 85.0167 69.9078 83.925C68.9312 82.8333 68.2286 81.611 67.7998 80.2582L70.8368 79.0122C71.4799 80.721 72.4327 82.0382 73.6951 82.9638C74.9814 83.8657 76.482 84.3166 78.197 84.3166C79.2451 84.3166 80.1622 84.1505 80.9482 83.8182C81.7342 83.4859 82.3416 83.0231 82.7704 82.4298C83.223 81.8127 83.4492 81.1007 83.4492 80.2938C83.4492 79.1783 83.1277 78.3002 82.4846 77.6594C81.8652 76.9949 80.9482 76.4965 79.7334 76.1642L74.8385 74.669C72.9091 74.0757 71.4323 73.1382 70.408 71.8566C69.3838 70.575 68.8717 69.1035 68.8717 67.4422C68.8717 65.9945 69.2171 64.7247 69.9078 63.633C70.6224 62.5175 71.599 61.6513 72.8376 61.0342C74.1001 60.3934 75.5292 60.073 77.1252 60.073C78.7211 60.073 80.1621 60.3578 81.4484 60.9274C82.7585 61.497 83.8661 62.2683 84.7712 63.2414C85.6764 64.1907 86.3433 65.2825 86.7721 66.5166L83.7708 67.7626C83.1991 66.2674 82.3416 65.1401 81.1983 64.3806C80.055 63.5974 78.7092 63.2058 77.1609 63.2058C76.2081 63.2058 75.3625 63.3719 74.6241 63.7042C73.9095 64.0127 73.3498 64.4755 72.9448 65.0926C72.5637 65.6859 72.3732 66.3979 72.3732 67.2286C72.3732 68.2017 72.6828 69.0679 73.3021 69.8274C73.9214 70.5869 74.8623 71.1683 76.1247 71.5718L80.5909 72.889C82.687 73.5298 84.271 74.4435 85.3429 75.6302C86.4148 76.8169 86.9507 78.2883 86.9507 80.0446C86.9507 81.4923 86.5696 82.7739 85.8074 83.8894C85.069 85.0049 84.0328 85.883 82.6989 86.5238C81.3889 87.1409 79.8644 87.4494 78.1256 87.4494ZM88.6856 87.0222L98.2253 60.5002H102.37L111.91 87.0222H108.158L105.979 80.7922H94.6166L92.4372 87.0222H88.6856ZM95.7243 77.5882H104.871L99.7974 63.0278H100.798L95.7243 77.5882ZM125.723 87.4494C123.841 87.4494 122.102 87.1171 120.506 86.4526C118.934 85.7643 117.552 84.8031 116.362 83.569C115.194 82.3349 114.289 80.8871 113.646 79.2258C113.003 77.5645 112.681 75.7489 112.681 73.779C112.681 71.7854 113.003 69.9579 113.646 68.2966C114.289 66.6353 115.194 65.1875 116.362 63.9534C117.529 62.7193 118.91 61.7699 120.506 61.1054C122.102 60.4171 123.841 60.073 125.723 60.073C127.557 60.073 129.2 60.3934 130.653 61.0342C132.13 61.675 133.369 62.5057 134.369 63.5262C135.393 64.5467 136.12 65.6385 136.549 66.8014L133.333 68.261C132.714 66.7895 131.749 65.6029 130.439 64.701C129.129 63.7754 127.557 63.3126 125.723 63.3126C123.865 63.3126 122.209 63.7517 120.756 64.6298C119.327 65.5079 118.208 66.7302 117.398 68.2966C116.588 69.863 116.183 71.6905 116.183 73.779C116.183 75.8438 116.588 77.6594 117.398 79.2258C118.208 80.7922 119.327 82.0145 120.756 82.8926C122.209 83.7707 123.865 84.2098 125.723 84.2098C127.557 84.2098 129.129 83.7589 130.439 82.857C131.749 81.9314 132.714 80.7329 133.333 79.2614L136.549 80.721C136.12 81.8839 135.393 82.9757 134.369 83.9962C133.369 85.0167 132.13 85.8474 130.653 86.4882C129.2 87.129 127.557 87.4494 125.723 87.4494ZM140.454 78.941V75.915H153.852V78.941H140.454ZM158.898 87.0222V60.5002H175.762V63.7042H162.4V72.2838H174.512V75.4878H162.4V87.0222H158.898ZM185.096 87.4494C183.715 87.4494 182.464 87.129 181.345 86.4882C180.249 85.8474 179.392 84.9574 178.772 83.8182C178.177 82.6553 177.879 81.3262 177.879 79.831V67.8338H181.202V79.475C181.202 80.4243 181.392 81.255 181.774 81.967C182.178 82.679 182.726 83.2367 183.417 83.6402C184.132 84.0437 184.942 84.2454 185.847 84.2454C186.752 84.2454 187.55 84.0437 188.241 83.6402C188.955 83.2367 189.503 82.6553 189.884 81.8958C190.289 81.1363 190.492 80.2345 190.492 79.1902V67.8338H193.85V87.0222H190.599V83.2842L191.135 83.6046C190.682 84.815 189.908 85.7643 188.812 86.4526C187.74 87.1171 186.502 87.4494 185.096 87.4494ZM184.418 64.2382L187.24 58.6134H191.742L187.74 64.2382H184.418ZM206.109 87.2358C204.227 87.2358 202.774 86.7018 201.75 85.6338C200.749 84.5658 200.249 83.0587 200.249 81.1126V71.0022H196.747V67.8338H197.462C198.319 67.8338 198.998 67.5727 199.499 67.0506C199.999 66.5285 200.249 65.8402 200.249 64.9858V63.4194H203.572V67.8338H207.895V71.0022H203.572V81.0058C203.572 81.6466 203.667 82.2043 203.858 82.679C204.072 83.1537 204.417 83.5334 204.894 83.8182C205.37 84.0793 206.001 84.2098 206.787 84.2098C206.954 84.2098 207.157 84.1979 207.395 84.1742C207.657 84.1505 207.895 84.1267 208.109 84.103V87.0222C207.8 87.0934 207.454 87.1409 207.073 87.1646C206.692 87.2121 206.371 87.2358 206.109 87.2358ZM221.702 87.4494C220.154 87.4494 218.737 87.1053 217.451 86.417C216.188 85.7287 215.212 84.7557 214.521 83.4978L214.985 82.9282V87.0222H211.734V60.073H215.057V71.9634L214.557 71.1446C215.271 70.0054 216.248 69.1035 217.486 68.439C218.725 67.7507 220.142 67.4066 221.738 67.4066C223.548 67.4066 225.168 67.8457 226.597 68.7238C228.05 69.6019 229.194 70.8005 230.027 72.3194C230.861 73.8146 231.278 75.5234 231.278 77.4458C231.278 79.3207 230.861 81.0177 230.027 82.5366C229.194 84.0555 228.05 85.2541 226.597 86.1322C225.168 87.0103 223.537 87.4494 221.702 87.4494ZM221.452 84.2454C222.667 84.2454 223.751 83.9487 224.704 83.3554C225.657 82.7621 226.395 81.9551 226.919 80.9346C227.467 79.8903 227.741 78.7274 227.741 77.4458C227.741 76.1167 227.467 74.9538 226.919 73.957C226.395 72.9365 225.657 72.1295 224.704 71.5362C223.751 70.9191 222.667 70.6106 221.452 70.6106C220.238 70.6106 219.142 70.9073 218.165 71.5006C217.212 72.0939 216.45 72.9127 215.879 73.957C215.331 74.9775 215.057 76.1405 215.057 77.4458C215.057 78.7274 215.331 79.8903 215.879 80.9346C216.45 81.9551 217.212 82.7621 218.165 83.3554C219.142 83.9487 220.238 84.2454 221.452 84.2454ZM244.067 87.4494C242.209 87.4494 240.53 87.0222 239.029 86.1678C237.529 85.2897 236.338 84.0911 235.456 82.5722C234.575 81.0533 234.134 79.3326 234.134 77.4102C234.134 75.4878 234.563 73.779 235.421 72.2838C236.302 70.7886 237.493 69.6019 238.993 68.7238C240.494 67.8457 242.185 67.4066 244.067 67.4066C245.925 67.4066 247.604 67.8457 249.105 68.7238C250.605 69.5782 251.785 70.753 252.642 72.2482C253.523 73.7434 253.964 75.4641 253.964 77.4102C253.964 79.3563 253.511 81.0889 252.606 82.6078C251.701 84.103 250.498 85.2897 248.998 86.1678C247.521 87.0222 245.877 87.4494 244.067 87.4494ZM244.067 84.2454C245.258 84.2454 246.33 83.9487 247.283 83.3554C248.259 82.7621 249.021 81.9433 249.569 80.899C250.141 79.8547 250.427 78.6918 250.427 77.4102C250.427 76.1049 250.141 74.9538 249.569 73.957C249.021 72.9365 248.259 72.1295 247.283 71.5362C246.33 70.9191 245.258 70.6106 244.067 70.6106C242.852 70.6106 241.757 70.9191 240.78 71.5362C239.827 72.1295 239.065 72.9365 238.493 73.957C237.922 74.9538 237.636 76.1049 237.636 77.4102C237.636 78.6918 237.922 79.8547 238.493 80.899C239.065 81.9433 239.827 82.7621 240.78 83.3554C241.757 83.9487 242.852 84.2454 244.067 84.2454ZM257.585 87.0222V60.073H260.907V87.0222H257.585Z" fill="#1F1F1F"/>
</svg>
