<svg width="84" height="84" viewBox="0 0 84 84" fill="none" xmlns="http://www.w3.org/2000/svg">
<g clip-path="url(#clip0_615_36)">
<path d="M42.0026 16.8013C30.8024 16.8013 23.8048 22.3991 21.0026 33.5993C25.2013 28.0008 30.1028 25.9015 35.7013 27.3013C38.8979 28.098 41.1823 30.4158 43.7122 32.9844C47.8295 37.1627 52.5952 42 63.0026 42C74.2022 42 81.2004 36.4015 84.0026 25.1986C79.8033 30.8004 74.9024 32.8997 69.3033 31.5C66.1073 30.7026 63.8256 28.3854 61.2924 25.8168C57.1778 21.6385 52.4134 16.8013 42.0026 16.8013ZM21.0026 42C9.80306 42 2.80481 47.5984 0.00262451 58.8013C4.20131 53.1995 9.10219 51.1002 14.7013 52.5C17.8979 53.2973 20.1823 55.6145 22.7122 58.1831C26.8295 62.3614 31.5952 67.1986 42.0026 67.1986C53.2022 67.1986 60.2004 61.6008 63.0026 50.4006C58.8033 55.9991 53.9024 58.0984 48.3033 56.6986C45.1073 55.902 42.8256 53.5841 40.2924 51.0155C36.1777 46.8372 31.4134 42 21.0026 42Z" fill="#38BDF8"/>
</g>
<defs>
<clipPath id="clip0_615_36">
<rect width="84" height="84" fill="white"/>
</clipPath>
</defs>
</svg>
