<svg width="95" height="94" viewBox="0 0 95 94" fill="none" xmlns="http://www.w3.org/2000/svg">
<path d="M85.1675 5.875H9.8325C7.68135 5.875 5.9375 7.60049 5.9375 9.729V84.271C5.9375 86.3995 7.68135 88.125 9.8325 88.125H85.1675C87.3186 88.125 89.0625 86.3995 89.0625 84.271V9.729C89.0625 7.60049 87.3186 5.875 85.1675 5.875Z" fill="#3178C6"/>
<path fill-rule="evenodd" clip-rule="evenodd" d="M54.1648 69.7921V78.8043C55.8197 79.6125 57.5833 80.1814 59.4017 80.4934C61.503 80.8772 63.6359 81.0661 65.7726 81.0574C67.8552 81.0672 69.9329 80.8594 71.9714 80.4376C73.8016 80.0717 75.5478 79.3746 77.1222 78.3813C78.5838 77.4478 79.7885 76.17 80.6283 74.6625C82.1323 71.5409 82.3307 67.9581 81.1804 64.6926C80.695 63.4714 79.9718 62.3566 79.0518 61.4114C78.0644 60.4064 76.9427 59.5396 75.7179 58.8352C74.3079 58.0181 72.8429 57.2977 71.3331 56.6791C70.1456 56.1915 69.0768 55.7175 68.1268 55.2573C67.2831 54.8576 66.4756 54.3868 65.7133 53.8503C65.1162 53.4361 64.5976 52.921 64.1814 52.3286C63.8217 51.7908 63.6345 51.1581 63.644 50.5133C63.6361 49.9198 63.8032 49.3369 64.125 48.836C64.4744 48.3117 64.9405 47.8736 65.4876 47.5552C66.1564 47.1656 66.8841 46.8849 67.6429 46.7239C68.5746 46.5191 69.5268 46.4205 70.4811 46.4301C71.2836 46.4329 72.0851 46.4898 72.8798 46.6005C73.7381 46.7153 74.5872 46.8891 75.4211 47.1205C76.2692 47.3531 77.0988 47.6476 77.9029 48.0017C78.6832 48.3459 79.4296 48.7609 80.1325 49.2413V40.8313C78.6692 40.2835 77.1517 39.8897 75.6051 39.6563C73.7375 39.3874 71.8517 39.2607 69.9645 39.2773C67.9016 39.2663 65.8446 39.4981 63.837 39.9676C62.0223 40.3779 60.2969 41.1072 58.7426 42.1208C57.2989 43.0725 56.1067 44.3528 55.2662 45.8544C54.3755 47.5219 53.9348 49.3887 53.9867 51.2741C53.9209 53.7674 54.7509 56.203 56.329 58.1478C58.2652 60.3042 60.7067 61.9574 63.4392 62.9624C64.6861 63.4716 65.8488 63.97 66.9275 64.4576C67.9007 64.8861 68.8361 65.394 69.724 65.9763C70.4402 66.4372 71.0692 67.0189 71.5825 67.6947C72.0338 68.3077 72.2732 69.0484 72.2653 69.8068C72.2694 70.3751 72.1219 70.9344 71.8378 71.4283C71.5221 71.959 71.0784 72.4041 70.5464 72.7237C69.8807 73.1253 69.1524 73.4151 68.3911 73.5815C67.3993 73.8008 66.385 73.9044 65.3689 73.8899C63.3748 73.8863 61.3966 73.5384 59.5234 72.8618C57.5665 72.163 55.7517 71.1234 54.1648 69.7921ZM38.8639 47.3555H50.7389V39.9324H17.6284V47.3555H29.45V80.4141H38.8639V47.3555Z" fill="white"/>
</svg>
